<?xml version="1.0" encoding="UTF-8"?>
<!DOCTYPE svg PUBLIC "-//W3C//DTD SVG 1.0//EN" "http://www.w3.org/TR/2001/REC-SVG-20010904/DTD/svg10.dtd">
<!-- Creator: CorelDRAW -->
<svg xmlns="http://www.w3.org/2000/svg" xml:space="preserve" width="6.66667in" height="4.18941in" version="1.0" style="shape-rendering:geometricPrecision; text-rendering:geometricPrecision; image-rendering:optimizeQuality; fill-rule:evenodd; clip-rule:evenodd"
viewBox="0 0 6666.67 4189.41"
 xmlns:xlink="http://www.w3.org/1999/xlink"
 xmlns:xodm="http://www.corel.com/coreldraw/odm/2003">
 <defs>
  <style type="text/css">
   <![CDATA[
    .str0 {stroke:#FEFEFE;stroke-width:20.8;stroke-miterlimit:2.61313}
    .fil0 {fill:#009600}
    .fil6 {fill:gray}
    .fil8 {fill:#999999}
    .fil10 {fill:#B3B3B3}
    .fil12 {fill:#CCCCCC}
    .fil2 {fill:#FEFEFE}
    .fil3 {fill:#009600;fill-rule:nonzero}
    .fil4 {fill:#009600;fill-rule:nonzero}
    .fil5 {fill:gray;fill-rule:nonzero}
    .fil7 {fill:#999999;fill-rule:nonzero}
    .fil9 {fill:#B3B3B3;fill-rule:nonzero}
    .fil11 {fill:#CCCCCC;fill-rule:nonzero}
    .fil1 {fill:#FEFEFE;fill-rule:nonzero}
   ]]>
  </style>
 </defs>
 <g id="Layer_x0020_1">
  <metadata id="CorelCorpID_0Corel-Layer"/>
  <g id="_2914912259488">
   <path class="fil0" d="M1687.06 0l1602.09 0 0 1602.08 -1602.09 0 0 -1602.08z"/>
   <path id="_1" class="fil0" d="M1687.06 0l1602.09 0 0 1602.08 -1602.09 0 0 -1602.08zm1507.83 94.25l-1413.57 0 0 1413.57 1413.57 0 0 -1413.57z"/>
  </g>
  <g id="_2004700808464">
   <g>
    <path class="fil1" d="M2837.44 541.72l113.09 0.25 -2.69 89.12 -7.26 83.74 -11.5 78.28 -15.65 72.89 -19.49 67.43 -23 62.13 -26.41 56.67 -29.6 51.37 -32.53 45.9 -35.39 40.44 -38.16 34.89 -40.6 29.19 -42.97 23.24 -45.01 16.96 -46.47 10.35 -47.37 3.43 -47.29 -3.43 -46.47 -10.44 -45.01 -16.96 -42.89 -23.24 -40.52 -29.19 -37.99 -34.9 -35.22 -40.52 -32.37 -45.91 -29.35 -51.37 -26.17 -56.67 -22.75 -62.13 -19.08 -67.51 -15.33 -72.81 -11.17 -78.35 -6.85 -83.66 -2.28 -89.12 113.09 0.17 2.12 84.31 6.44 78.6 10.44 72.81 14.02 67.02 17.37 61.24 20.3 55.36 22.91 49.57 25.03 43.87 26.74 37.92 28.05 32.29 28.94 26.66 29.35 21.11 29.35 15.98 29.19 11.01 28.78 6.44 28.62 2.04 28.7 -2.04 28.78 -6.44 29.27 -11.09 29.52 -15.9 29.43 -21.2 29.11 -26.66 28.21 -32.29 26.99 -38 25.19 -43.86 23.15 -49.57 20.55 -55.45 17.61 -61.23 14.43 -67.02 10.69 -72.81 6.85 -78.52 2.53 -84.39 -0 -0z"/>
   </g>
   <circle class="fil2 str0" cx="2082.18" cy="400.5" r="56.5"/>
   <circle class="fil2 str0" cx="2893.95" cy="400.5" r="56.5"/>
  </g>
  <path class="fil3" d="M4016.61 643.88c37.43,0 70.61,7.5 99.56,22.42 29.02,14.92 51.85,37.75 68.49,68.49 16.71,30.66 25.03,70.04 25.03,118.06l0 270.37 -136.9 0 0 -249.33c0,-38.07 -7.91,-66.13 -23.72,-84.22 -15.82,-18.19 -38.07,-27.24 -66.69,-27.24 -19.89,0 -37.75,4.48 -53.57,13.62 -15.82,9.05 -28.13,22.67 -36.85,40.77 -8.81,18.18 -13.21,41.26 -13.21,69.39l0 237.02 -136.9 0 0 -249.33c0,-38.07 -7.74,-66.13 -23.32,-84.22 -15.49,-18.19 -37.59,-27.23 -66.2,-27.23 -19.89,0 -37.75,4.48 -53.57,13.61 -15.82,9.05 -28.13,22.67 -36.85,40.77 -8.8,18.18 -13.21,41.26 -13.21,69.39l0 237.02 -136.9 0 0 -472.33 130.78 0 0 129.07 -24.62 -37.75c16.39,-32.2 39.7,-56.59 69.79,-73.3 30.17,-16.63 64.57,-25.03 103.14,-25.03 43.38,0 81.21,11 113.74,32.94 32.45,21.93 53.98,55.44 64.5,100.54l-48.27 -13.21c15.74,-36.85 41.09,-66.13 75.91,-87.73 34.81,-21.69 74.77,-32.53 119.86,-32.53l0 0.01z"/>
  <path id="_1_3" class="fil3" d="M4622.25 1123.23l0 -92.22 -8.8 -20.22 0 -164.95c0,-29.27 -8.89,-52.1 -26.74,-68.49 -17.86,-16.39 -45.17,-24.62 -82.11,-24.62 -25.11,0 -49.9,4 -74.12,11.91 -24.3,7.91 -44.93,18.59 -61.89,32.04l-49.17 -95.72c25.76,-18.1 56.75,-32.2 93.04,-42.15 36.28,-9.95 73.13,-14.92 110.64,-14.92 71.91,0 127.85,17.04 167.63,50.96 39.79,33.92 59.69,86.92 59.69,158.83l0 269.56 -128.17 0zm-143.99 7.01c-36.85,0 -68.41,-6.28 -94.74,-18.92 -26.33,-12.56 -46.56,-29.68 -60.58,-51.37 -14.02,-21.61 -21.11,-45.91 -21.11,-72.81 0,-28.13 6.93,-52.67 20.63,-73.71 13.78,-21.11 35.55,-37.67 65.47,-49.65 29.84,-11.99 68.74,-17.94 116.68,-17.94l125.56 0 0 79.82 -110.64 0c-32.12,0 -54.22,5.3 -66.21,15.82 -12.06,10.52 -18.02,23.73 -18.02,39.46 0,17.61 6.85,31.47 20.63,41.75 13.78,10.19 32.61,15.33 56.59,15.33 22.83,0 43.3,-5.38 61.48,-16.22 18.1,-10.85 31.31,-26.75 39.46,-47.86l21.11 63.19c-9.95,30.49 -28.13,53.57 -54.46,69.39 -26.33,15.82 -60.26,23.72 -101.84,23.72l0 -0z"/>
  <path id="_2" class="fil3" d="M4874.19 1123.23l0 -472.33 130.78 0 0 133.47 -18.43 -38.65c14.02,-33.35 36.53,-58.63 67.59,-75.91 30.98,-17.28 68.73,-25.93 113.25,-25.93l0 126.46c-5.87,-0.65 -11.17,-1.06 -15.82,-1.39 -4.73,-0.24 -9.7,-0.41 -14.92,-0.41 -37.5,0 -67.76,10.68 -90.83,32.04 -23.15,21.36 -34.73,54.55 -34.73,99.64l0 223 -136.9 0 0 0z"/>
  <path id="_3" class="fil3" d="M5362.27 1026.61l3.5 -166.74 220.31 -208.98 163.24 0 -211.5 215.09 -71.1 57.97 -104.44 102.65zm-113.26 96.62l0 -651.39 136.9 0 0 651.39 -136.9 0zm351.98 0l-159.81 -198.46 86.1 -106.16 239.63 304.61 -165.92 0 0 0z"/>
  <path id="_4" class="fil3" d="M6042.52 1130.24c-53.81,0 -101.11,-10.52 -141.79,-31.63 -40.6,-21.04 -72.07,-49.9 -94.34,-86.43 -22.26,-36.61 -33.35,-78.27 -33.35,-125.07 0,-47.45 11.01,-89.44 32.94,-125.97 21.93,-36.61 51.94,-65.31 89.93,-86.02 38.07,-20.79 81.05,-31.23 129.07,-31.23 46.23,0 87.89,9.87 125.07,29.44 37.18,19.57 66.53,47.7 88.22,84.31 21.69,36.53 32.45,80.31 32.45,131.19 0,5.3 -0.25,11.25 -0.82,18.02 -0.65,6.69 -1.22,12.96 -1.79,18.83l-383.62 0 0 -79.82 311.63 0 -52.67 23.65c0,-24.54 -4.97,-45.9 -14.92,-64.08 -9.95,-18.1 -23.65,-32.29 -41.26,-42.56 -17.53,-10.19 -37.99,-15.33 -61.48,-15.33 -23.4,0 -44.03,5.14 -61.8,15.33 -17.85,10.28 -31.8,24.63 -41.75,43.06 -9.95,18.43 -14.92,40.2 -14.92,65.39l0 21.04c0,25.76 5.71,48.43 17.13,68.08 11.41,19.57 27.48,34.49 48.27,44.76 20.79,10.19 45.25,15.33 73.3,15.33 25.19,0 47.29,-3.83 66.29,-11.41 19,-7.58 36.45,-19 52.26,-34.24l72.81 79.01c-21.61,24.54 -48.84,43.46 -81.62,56.59 -32.78,13.21 -70.52,19.81 -113.25,19.81l0 -0.01z"/>
  <path id="_5" class="fil3" d="M6555.13 1130.24c-55.53,0 -98.82,-14.19 -129.89,-42.56 -30.98,-28.46 -46.47,-70.69 -46.47,-126.87l0 -414.36 136.9 0 0 412.57c0,19.89 5.3,35.31 15.82,46.15 10.52,10.76 24.87,16.22 42.97,16.22 21.69,0 40.11,-5.87 55.36,-17.61l36.85 96.62c-14.11,9.95 -30.9,17.37 -50.47,22.34 -19.65,4.97 -39.95,7.5 -61.07,7.5l0 -0zm-249.26 -363.41l0 -105.34 327.44 0 0 105.34 -327.44 0z"/>
  <path class="fil4" d="M398.28 1177.79l93.65 -753.5 120.56 0 -92.57 753.5 -121.63 0zm-398.28 -172.23l0 -117.33 695.37 0 0 117.33 -695.37 0zm119.48 172.23l93.65 -753.5 120.56 0 -93.65 753.5 -120.56 0zm-82.89 -463.94l0 -117.33 694.3 0 1.07 117.33 -695.37 0z"/>
  <path id="_1_0" class="fil4" d="M911.74 1177.79l0 -688.91 75.35 75.35 -226.05 0 0 -139.93 325.08 0 0 753.5 -174.38 0z"/>
  <g id="_2914912256704">
   <path class="fil5" d="M133.06 2335.63l31.29 -251.73 40.28 0 -30.93 251.73 -40.64 0zm-133.06 -57.54l0 -39.2 232.31 0 0 39.2 -232.31 0zm39.92 57.54l31.28 -251.73 40.28 0 -31.29 251.73 -40.28 0zm-27.69 -154.99l0 -39.2 231.95 0 0.36 39.2 -232.31 0z"/>
   <path id="_1_1" class="fil5" d="M263.6 2335.63l0 -37.76 97.09 -91.7c7.67,-6.95 13.31,-13.19 16.9,-18.7 3.6,-5.52 6.06,-10.55 7.37,-15.11 1.32,-4.56 1.98,-8.75 1.98,-12.59 0,-10.07 -3.42,-17.8 -10.25,-23.19 -6.83,-5.39 -16.84,-8.09 -30.03,-8.09 -10.55,0 -20.32,2.04 -29.31,6.11 -8.99,4.08 -16.6,10.43 -22.83,19.06l-42.44 -27.33c9.59,-14.39 23.02,-25.78 40.28,-34.17 17.26,-8.39 37.16,-12.59 59.69,-12.59 18.7,0 35.06,3.06 49.09,9.17 14.02,6.11 24.93,14.69 32.73,25.71 7.79,11.03 11.69,24.22 11.69,39.56 0,8.15 -1.02,16.24 -3.06,24.27 -2.04,8.03 -6.11,16.48 -12.22,25.35 -6.12,8.87 -15.05,18.82 -26.8,29.85l-80.55 75.88 -11.15 -21.22 142.05 0 0 47.47 -190.24 0z"/>
   <path class="fil6" d="M594.34 2079.57l2452.01 0c21,0 38.19,17.19 38.19,38.19l0 51.65c0,21 -17.19,38.19 -38.19,38.19l-2452.01 0 0 -128.03z"/>
   <path class="fil6" d="M610.75 2335.63l2435.6 0c21,0 38.19,17.19 38.19,38.19l0 51.65c0,21 -17.19,38.19 -38.19,38.19l-2435.6 0 0 -128.03z"/>
   <path class="fil6" d="M610.75 2591.68l1169.8 0c26.41,0 48.01,21.6 48.01,48.01l0 32.01c0,26.41 -21.6,48.01 -48.01,48.01l-1169.8 0 0 -128.03z"/>
  </g>
  <g id="_2914912258912">
   <path class="fil7" d="M3715.22 2335.62l31.29 -251.73 40.28 0 -30.93 251.73 -40.64 0zm-133.06 -57.54l0 -39.2 232.31 0 0 39.2 -232.31 0zm39.92 57.54l31.29 -251.73 40.28 0 -31.29 251.73 -40.28 0zm-27.69 -155l0 -39.2 231.95 0 0.36 39.2 -232.31 0z"/>
   <path id="_1_2" class="fil7" d="M3929.55 2339.94c-17.5,0 -34.88,-2.34 -52.14,-7.01 -17.26,-4.68 -31.89,-11.33 -43.87,-19.96l22.65 -44.59c9.59,6.95 20.74,12.46 33.44,16.54 12.71,4.07 25.54,6.11 38.48,6.11 14.62,0 26.13,-2.87 34.52,-8.63 8.39,-5.75 12.59,-13.67 12.59,-23.73 0,-9.59 -3.72,-17.14 -11.15,-22.66 -7.43,-5.52 -19.42,-8.27 -35.96,-8.27l-26.61 0 0 -38.48 70.13 -79.47 6.48 20.85 -131.98 0 0 -46.75 176.21 0 0 37.76 -69.77 79.48 -29.49 -16.9 16.9 0c30.93,0 54.3,6.95 70.13,20.85 15.82,13.91 23.74,31.77 23.74,53.59 0,14.14 -3.72,27.39 -11.15,39.74 -7.43,12.35 -18.82,22.35 -34.17,30.03 -15.34,7.67 -35,11.51 -58.98,11.51z"/>
   <path class="fil8" d="M4176.49 2079.57l2451.98 0c21.01,0 38.19,17.19 38.19,38.19l0 51.65c0,21 -17.18,38.19 -38.19,38.19l-2451.98 0 0 -128.02z"/>
   <path class="fil8" d="M4192.9 2335.62l2435.57 0c21,0 38.19,17.19 38.19,38.19l0 51.65c0,21 -17.19,38.19 -38.19,38.19l-2435.57 0 0 -128.03z"/>
   <path class="fil8" d="M4192.9 2591.68l1194.21 0c23.47,0 42.67,19.2 42.67,42.67l0 42.68c0,23.47 -19.2,42.67 -42.67,42.67l-1194.21 0 0 -128.02z"/>
  </g>
  <g id="_2914912262176">
   <path class="fil9" d="M133.07 3805.33l31.29 -251.73 40.28 0 -30.93 251.73 -40.64 0zm-133.05 -57.54l0 -39.2 232.31 0 0 39.2 -232.31 0zm39.92 57.54l31.29 -251.73 40.27 0 -31.28 251.73 -40.28 0zm-27.69 -154.99l0 -39.2 231.95 0 0.36 39.2 -232.31 0z"/>
   <path id="_1_3" class="fil9" d="M262.9 3752.46l0 -39.2 118.67 -159.67 61.14 0 -116.16 159.67 -28.41 -8.27 198.15 0 0 47.47 -233.39 0zm135.57 52.86l0 -52.86 1.8 -47.47 0 -47.11 55.02 0 0 147.44 -56.82 0z"/>
   <path class="fil10" d="M594.35 3549.27l2451.98 0c21,0 38.19,17.19 38.19,38.19l0 51.64c0,21.01 -17.19,38.19 -38.19,38.19l-2451.98 0 0 -128.03z"/>
   <path class="fil10" d="M610.76 3805.33l2435.57 0c21.01,0 38.19,17.19 38.19,38.19l0 51.64c0,21.01 -17.19,38.19 -38.19,38.19l-2435.57 0 0 -128.03z"/>
   <path class="fil10" d="M610.76 4061.38l1204.88 0c17.6,0 32,14.41 32,32l0 64.02c0,17.6 -14.4,32 -32,32l-1204.88 0 0 -128.03z"/>
  </g>
  <g id="_2914912261216">
   <path class="fil11" d="M3715.22 3805.33l31.29 -251.73 40.28 0 -30.93 251.73 -40.64 0zm-133.06 -57.54l0 -39.2 232.31 0 0 39.2 -232.31 0zm39.92 57.54l31.29 -251.73 40.28 0 -31.29 251.73 -40.28 0zm-27.69 -154.99l0 -39.2 231.95 0 0.36 39.2 -232.31 0z"/>
   <path id="_1_4" class="fil11" d="M3933.5 3809.64c-17.5,0 -34.82,-2.34 -51.96,-7.01 -17.14,-4.68 -31.83,-11.33 -44.06,-19.96l23.02 -44.59c9.59,6.95 20.68,12.47 33.26,16.54 12.59,4.07 25.35,6.11 38.3,6.11 14.63,0 26.13,-2.88 34.52,-8.63 8.39,-5.75 12.59,-13.78 12.59,-24.09 0,-6.47 -1.68,-12.22 -5.04,-17.26 -3.35,-5.04 -9.29,-8.87 -17.8,-11.51 -8.51,-2.64 -20.44,-3.96 -35.78,-3.96l-64.37 0 12.95 -141.69 153.56 0 0 46.75 -132.7 0 30.21 -26.61 -8.99 101.05 -30.21 -26.61 53.22 0c24.93,0 45.01,3.41 60.24,10.25 15.22,6.83 26.31,16.12 33.26,27.87 6.95,11.75 10.43,25.05 10.43,39.92 0,14.86 -3.72,28.59 -11.15,41.17 -7.43,12.59 -18.88,22.78 -34.35,30.57 -15.46,7.8 -35.18,11.69 -59.15,11.69z"/>
   <path class="fil12" d="M4176.49 3549.27l2451.98 0c21.01,0 38.19,17.19 38.19,38.19l0 51.64c0,21.01 -17.19,38.19 -38.19,38.19l-2451.98 0 0 -128.03z"/>
   <path class="fil12" d="M4192.9 3805.33l2435.57 0c21.01,0 38.19,17.19 38.19,38.19l0 51.64c0,21.01 -17.19,38.19 -38.19,38.19l-2435.57 0 0 -128.03z"/>
   <path class="fil12" d="M4192.9 4061.38l1204.88 0c17.6,0 32,14.41 32,32l0 64.02c0,17.6 -14.4,32 -32,32l-1204.88 0 0 -128.03z"/>
  </g>
 </g>
</svg>
