<?xml version="1.0" encoding="UTF-8"?>
<!DOCTYPE svg PUBLIC "-//W3C//DTD SVG 1.0//EN" "http://www.w3.org/TR/2001/REC-SVG-20010904/DTD/svg10.dtd">
<!-- Creator: CorelDRAW -->
<svg xmlns="http://www.w3.org/2000/svg" xml:space="preserve" width="1.20842in" height="0.197945in" version="1.0" style="shape-rendering:geometricPrecision; text-rendering:geometricPrecision; image-rendering:optimizeQuality; fill-rule:evenodd; clip-rule:evenodd"
viewBox="0 0 5543.57 908.06"
 xmlns:xlink="http://www.w3.org/1999/xlink"
 xmlns:xodm="http://www.corel.com/coreldraw/odm/2003">
 <defs>
  <style type="text/css">
   <![CDATA[
    .fil0 {fill:#009600;fill-rule:nonzero}
   ]]>
  </style>
 </defs>
 <g id="Layer_x0020_1">
  <metadata id="CorelCorpID_0Corel-Layer"/>
  <path id="star_24dp_E8EAED_FILL0_wght400_GRAD0_opsz24.svg" class="fil0" d="M182.81 908.06l77.68 -335.59 -260.49 -225.72 344.17 -30.04 133.89 -316.72 133.89 316.72 344.17 30.04 -260.49 225.72 77.68 335.59 -294.83 -178.1 -294.83 178.1 0 0 -0.83 0z"/>
  <path id="star_24dp_E8EAED_FILL0_wght400_GRAD0_opsz24.svg_0" class="fil0" d="M1329.68 908.06l77.68 -335.59 -260.49 -225.72 344.17 -30.04 133.89 -316.72 133.89 316.72 344.17 30.04 -260.49 225.72 77.68 335.59 -294.83 -178.1 -294.83 178.1 0 0 -0.83 0z"/>
  <path id="star_24dp_E8EAED_FILL0_wght400_GRAD0_opsz24.svg_1" class="fil0" d="M2476.54 908.06l77.68 -335.59 -260.49 -225.72 344.17 -30.04 133.89 -316.72 133.89 316.72 344.17 30.04 -260.49 225.72 77.68 335.59 -294.83 -178.1 -294.83 178.1 0 0 -0.83 0z"/>
  <path id="star_24dp_E8EAED_FILL0_wght400_GRAD0_opsz24.svg_2" class="fil0" d="M3623.41 908.06l77.68 -335.59 -260.49 -225.72 344.17 -30.04 133.89 -316.72 133.89 316.72 344.17 30.04 -260.49 225.72 77.68 335.59 -294.83 -178.1 -294.83 178.1 0 0 -0.83 0z"/>
  <path id="star_24dp_E8EAED_FILL0_wght400_GRAD0_opsz24.svg_3" class="fil0" d="M4770.28 908.06l77.68 -335.59 -260.49 -225.72 344.17 -30.04 133.89 -316.72 133.89 316.72 344.17 30.04 -260.49 225.72 77.68 335.59 -294.83 -178.1 -294.83 178.1 0 0 -0.83 0z"/>
 </g>
</svg>
