<?xml version="1.0" encoding="UTF-8"?>
<!DOCTYPE svg PUBLIC "-//W3C//DTD SVG 1.0//EN" "http://www.w3.org/TR/2001/REC-SVG-20010904/DTD/svg10.dtd">
<!-- Creator: CorelDRAW -->
<svg xmlns="http://www.w3.org/2000/svg" xml:space="preserve" width="1.20842in" height="0.197945in" version="1.0" style="shape-rendering:geometricPrecision; text-rendering:geometricPrecision; image-rendering:optimizeQuality; fill-rule:evenodd; clip-rule:evenodd"
viewBox="0 0 7006.48 1147.7"
 xmlns:xlink="http://www.w3.org/1999/xlink"
 xmlns:xodm="http://www.corel.com/coreldraw/odm/2003">
 <defs>
  <style type="text/css">
   <![CDATA[
    .fil0 {fill:#009600;fill-rule:nonzero}
   ]]>
  </style>
 </defs>
 <g id="Layer_x0020_1">
  <metadata id="CorelCorpID_0Corel-Layer"/>
  <path id="star_24dp_E8EAED_FILL0_wght400_GRAD0_opsz24.svg" class="fil0" d="M231.06 1147.7l98.18 -424.15 -329.23 -285.29 434.99 -37.96 169.22 -400.29 169.22 400.29 434.99 37.96 -329.23 285.29 98.18 424.15 -372.63 -225.1 -372.63 225.1 0 0 -1.05 0z"/>
  <path id="star_24dp_E8EAED_FILL0_wght400_GRAD0_opsz24.svg_0" class="fil0" d="M1680.57 1147.7l98.18 -424.15 -329.23 -285.29 434.99 -37.96 169.22 -400.29 169.22 400.29 434.99 37.96 -329.23 285.29 98.18 424.15 -372.63 -225.1 -372.63 225.1 0 0 -1.05 0z"/>
  <path id="star_24dp_E8EAED_FILL0_wght400_GRAD0_opsz24.svg_1" class="fil0" d="M3130.09 1147.7l98.18 -424.15 -329.23 -285.29 434.99 -37.96 169.22 -400.29 169.22 400.29 434.99 37.96 -329.23 285.29 98.18 424.15 -372.63 -225.1 -372.63 225.1 0 0 -1.05 0z"/>
  <path id="star_24dp_E8EAED_FILL0_wght400_GRAD0_opsz24.svg_2" class="fil0" d="M4579.6 1147.7l98.18 -424.15 -329.23 -285.29 434.99 -37.96 169.22 -400.29 169.22 400.29 434.99 37.96 -329.23 285.29 98.18 424.15 -372.63 -225.1 -372.63 225.1 0 0 -1.05 0z"/>
  <path id="star_24dp_E8EAED_FILL0_wght400_GRAD0_opsz24.svg_3" class="fil0" d="M6029.12 1147.7l98.18 -424.15 -329.23 -285.29 434.99 -37.96 169.22 -400.29 169.22 400.29 434.99 37.96 -329.23 285.29 98.18 424.15 -372.63 -225.1 -372.63 225.1 0 0 -1.05 0z"/>
 </g>
</svg>
