<?xml version="1.0" encoding="UTF-8"?>
<!DOCTYPE svg PUBLIC "-//W3C//DTD SVG 1.0//EN" "http://www.w3.org/TR/2001/REC-SVG-20010904/DTD/svg10.dtd">
<!-- Creator: CorelDRAW -->
<svg xmlns="http://www.w3.org/2000/svg" xml:space="preserve" width="0.233335in" height="0.199862in" version="1.0" style="shape-rendering:geometricPrecision; text-rendering:geometricPrecision; image-rendering:optimizeQuality; fill-rule:evenodd; clip-rule:evenodd"
viewBox="0 0 96.93 83.03"
 xmlns:xlink="http://www.w3.org/1999/xlink"
 xmlns:xodm="http://www.corel.com/coreldraw/odm/2003">
 <defs>
  <style type="text/css">
   <![CDATA[
    .fil0 {fill:black;fill-rule:nonzero}
   ]]>
  </style>
 </defs>
 <g id="Layer_x0020_1">
  <metadata id="CorelCorpID_0Corel-Layer"/>
  <path id="AccountSetting.svg" class="fil0" d="M39.06 39.07c-5.37,0 -9.97,-1.91 -13.8,-5.74 -3.83,-3.83 -5.74,-8.42 -5.74,-13.8 0,-5.37 1.91,-9.97 5.74,-13.8 3.83,-3.83 8.42,-5.74 13.8,-5.74 5.37,0 9.97,1.91 13.8,5.74 3.83,3.83 5.74,8.42 5.74,13.8 0,5.37 -1.91,9.97 -5.74,13.8 -3.83,3.83 -8.42,5.74 -13.8,5.74zm-39.06 39.07l0 -13.67c0,-2.69 0.69,-5.21 2.08,-7.57 1.38,-2.36 3.3,-4.15 5.74,-5.37 4.15,-2.12 8.83,-3.91 14.04,-5.37 5.21,-1.46 10.95,-2.2 17.22,-2.2l1.71 0c0.49,0 0.98,0.08 1.47,0.24 -0.65,1.47 -1.2,2.99 -1.65,4.58 -0.44,1.59 -0.79,3.24 -1.04,4.94l-0.49 0c-5.78,0 -10.96,0.73 -15.57,2.2 -4.6,1.47 -8.36,2.93 -11.29,4.39 -0.73,0.41 -1.32,0.98 -1.77,1.71 -0.44,0.73 -0.67,1.55 -0.67,2.44l0 3.91 30.77 0c0.49,1.71 1.14,3.4 1.95,5.07 0.82,1.67 1.71,3.24 2.69,4.7l-45.17 0 -0.01 0zm68.36 4.88l-1.47 -7.33c-0.97,-0.41 -1.89,-0.84 -2.75,-1.28 -0.85,-0.44 -1.73,-1 -2.63,-1.65l-7.08 2.2 -4.89 -8.3 5.62 -4.89c-0.16,-1.14 -0.24,-2.2 -0.24,-3.17 0,-0.97 0.08,-2.03 0.24,-3.17l-5.62 -4.89 4.89 -8.3 7.08 2.2c0.9,-0.65 1.77,-1.2 2.63,-1.65 0.85,-0.44 1.77,-0.88 2.75,-1.28l1.47 -7.33 9.77 0 1.47 7.33c0.97,0.41 1.89,0.85 2.75,1.35 0.85,0.49 1.73,1.1 2.63,1.83l7.08 -2.44 4.89 8.55 -5.62 4.89c0.17,0.97 0.24,1.99 0.24,3.05 0,1.06 -0.08,2.08 -0.24,3.05l5.62 4.89 -4.89 8.3 -7.08 -2.2c-0.9,0.65 -1.77,1.2 -2.63,1.65 -0.85,0.45 -1.77,0.88 -2.75,1.28l-1.47 7.33 -9.77 0 0 -0.01zm4.88 -14.65c2.69,0 4.98,-0.96 6.9,-2.87 1.91,-1.91 2.87,-4.21 2.87,-6.9 0,-2.69 -0.96,-4.98 -2.87,-6.9 -1.91,-1.91 -4.21,-2.87 -6.9,-2.87 -2.68,0 -4.98,0.96 -6.9,2.87 -1.91,1.91 -2.87,4.21 -2.87,6.9 0,2.68 0.96,4.98 2.87,6.9 1.91,1.91 4.21,2.87 6.9,2.87zm-34.18 -39.07c2.69,0 4.98,-0.96 6.9,-2.87 1.91,-1.91 2.87,-4.21 2.87,-6.9 0,-2.69 -0.96,-4.98 -2.87,-6.9 -1.91,-1.91 -4.21,-2.87 -6.9,-2.87 -2.69,0 -4.98,0.96 -6.9,2.87 -1.91,1.91 -2.87,4.21 -2.87,6.9 0,2.69 0.96,4.98 2.87,6.9 1.91,1.91 4.21,2.87 6.9,2.87zm0 -9.77zm1.47 48.84z"/>
 </g>
</svg>
