<?xml version="1.0" encoding="UTF-8"?>
<!DOCTYPE svg PUBLIC "-//W3C//DTD SVG 1.0//EN" "http://www.w3.org/TR/2001/REC-SVG-20010904/DTD/svg10.dtd">
<!-- Creator: CorelDRAW -->
<svg xmlns="http://www.w3.org/2000/svg" xml:space="preserve" width="0.231248in" height="0.166669in" version="1.0" style="shape-rendering:geometricPrecision; text-rendering:geometricPrecision; image-rendering:optimizeQuality; fill-rule:evenodd; clip-rule:evenodd"
viewBox="0 0 37.65 27.14"
 xmlns:xlink="http://www.w3.org/1999/xlink"
 xmlns:xodm="http://www.corel.com/coreldraw/odm/2003">
 <defs>
  <style type="text/css">
   <![CDATA[
    .fil0 {fill:white;fill-rule:nonzero}
   ]]>
  </style>
 </defs>
 <g id="Layer_x0020_1">
  <metadata id="CorelCorpID_0Corel-Layer"/>
  <path id="Account_x0020_Checked.svg" class="fil0" d="M28.07 13.57l-6.02 -6.02 2.42 -2.37 3.6 3.6 7.21 -7.21 2.37 2.42 -9.58 9.58 0 0zm-14.5 0c-1.87,0 -3.46,-0.66 -4.79,-1.99 -1.33,-1.33 -1.99,-2.93 -1.99,-4.79 0,-1.87 0.66,-3.46 1.99,-4.79 1.33,-1.33 2.93,-1.99 4.79,-1.99 1.87,0 3.46,0.66 4.79,1.99 1.33,1.33 1.99,2.93 1.99,4.79 0,1.87 -0.66,3.46 -1.99,4.79 -1.33,1.33 -2.93,1.99 -4.79,1.99zm-13.57 13.57l0 -4.75c0,-0.96 0.25,-1.84 0.74,-2.65 0.49,-0.81 1.15,-1.42 1.97,-1.84 1.75,-0.88 3.53,-1.53 5.34,-1.97 1.81,-0.44 3.65,-0.66 5.51,-0.66 1.87,0 3.7,0.22 5.51,0.66 1.81,0.44 3.59,1.1 5.34,1.97 0.82,0.42 1.48,1.04 1.97,1.84 0.49,0.81 0.74,1.69 0.74,2.65l0 4.75 -27.14 0zm3.39 -3.39l20.35 0 0 -1.36c0,-0.31 -0.08,-0.59 -0.23,-0.85 -0.16,-0.25 -0.36,-0.45 -0.61,-0.59 -1.53,-0.76 -3.07,-1.34 -4.62,-1.72 -1.56,-0.38 -3.12,-0.57 -4.71,-0.57 -1.58,0 -3.15,0.19 -4.71,0.57 -1.55,0.38 -3.09,0.95 -4.62,1.72 -0.25,0.14 -0.46,0.34 -0.61,0.59 -0.16,0.25 -0.23,0.54 -0.23,0.85l0 1.36zm10.18 -13.57c0.93,0 1.73,-0.33 2.4,-1 0.66,-0.66 1,-1.46 1,-2.4 0,-0.93 -0.33,-1.73 -1,-2.4 -0.66,-0.66 -1.46,-1 -2.4,-1 -0.93,0 -1.73,0.33 -2.4,1 -0.66,0.66 -1,1.46 -1,2.4 0,0.93 0.33,1.73 1,2.4 0.66,0.66 1.46,1 2.4,1zm0 11.02zm0 -14.42z"/>
 </g>
</svg>
