<?xml version="1.0" encoding="UTF-8"?>
<!DOCTYPE svg PUBLIC "-//W3C//DTD SVG 1.0//EN" "http://www.w3.org/TR/2001/REC-SVG-20010904/DTD/svg10.dtd">
<!-- Creator: CorelDRAW -->
<svg xmlns="http://www.w3.org/2000/svg" xml:space="preserve" width="0.166669in" height="0.166665in" version="1.0" style="shape-rendering:geometricPrecision; text-rendering:geometricPrecision; image-rendering:optimizeQuality; fill-rule:evenodd; clip-rule:evenodd"
viewBox="0 0 166.67 166.67"
 xmlns:xlink="http://www.w3.org/1999/xlink"
 xmlns:xodm="http://www.corel.com/coreldraw/odm/2003">
 <defs>
  <style type="text/css">
   <![CDATA[
    .fil0 {fill:white;fill-rule:nonzero}
   ]]>
  </style>
 </defs>
 <g id="Layer_x0020_1">
  <metadata id="CorelCorpID_0Corel-Layer"/>
  <path id="Account.svg" class="fil0" d="M83.34 83.34c-11.46,0 -21.27,-4.08 -29.43,-12.24 -8.16,-8.16 -12.24,-17.97 -12.24,-29.43 0,-11.46 4.08,-21.27 12.24,-29.43 8.16,-8.16 17.97,-12.24 29.43,-12.24 11.46,0 21.27,4.08 29.43,12.24 8.16,8.16 12.24,17.97 12.24,29.43 0,11.46 -4.08,21.27 -12.24,29.43 -8.16,8.16 -17.97,12.24 -29.43,12.24zm-83.33 83.33l0 -29.17c0,-5.91 1.52,-11.33 4.56,-16.28 3.04,-4.95 7.07,-8.72 12.11,-11.33 10.76,-5.38 21.7,-9.42 32.81,-12.11 11.11,-2.69 22.4,-4.04 33.85,-4.04 11.46,0 22.74,1.35 33.85,4.04 11.11,2.69 22.05,6.73 32.81,12.11 5.04,2.6 9.07,6.38 12.11,11.33 3.04,4.95 4.56,10.37 4.56,16.28l0 29.17 -166.67 0 0.01 0zm20.83 -20.83l125 0 0 -8.33c0,-1.91 -0.48,-3.65 -1.43,-5.21 -0.95,-1.56 -2.21,-2.78 -3.78,-3.65 -9.37,-4.69 -18.83,-8.2 -28.39,-10.55 -9.55,-2.34 -19.19,-3.52 -28.91,-3.52 -9.72,0 -19.36,1.17 -28.91,3.52 -9.55,2.35 -19.01,5.86 -28.39,10.55 -1.56,0.87 -2.82,2.09 -3.78,3.65 -0.96,1.56 -1.43,3.3 -1.43,5.21l0 8.33 0.02 0zm62.5 -83.33c5.73,0 10.63,-2.04 14.71,-6.12 4.08,-4.08 6.12,-8.98 6.12,-14.71 0,-5.73 -2.04,-10.63 -6.12,-14.72 -4.08,-4.08 -8.98,-6.12 -14.71,-6.12 -5.73,0 -10.63,2.04 -14.71,6.12 -4.08,4.08 -6.12,8.98 -6.12,14.72 0,5.73 2.04,10.63 6.12,14.71 4.08,4.08 8.98,6.12 14.71,6.12zm0 -20.83zm0 104.17z"/>
 </g>
</svg>
