<?xml version="1.0" encoding="UTF-8"?>
<!DOCTYPE svg PUBLIC "-//W3C//DTD SVG 1.0//EN" "http://www.w3.org/TR/2001/REC-SVG-20010904/DTD/svg10.dtd">
<!-- Creator: CorelDRAW -->
<svg xmlns="http://www.w3.org/2000/svg" xml:space="preserve" width="4.36864in" height="2.71963in" version="1.0" style="shape-rendering:geometricPrecision; text-rendering:geometricPrecision; image-rendering:optimizeQuality; fill-rule:evenodd; clip-rule:evenodd"
viewBox="0 0 4368.64 2719.62"
 xmlns:xlink="http://www.w3.org/1999/xlink"
 xmlns:xodm="http://www.corel.com/coreldraw/odm/2003">
 <defs>
  <style type="text/css">
   <![CDATA[
    .str0 {stroke:white;stroke-width:20.8;stroke-miterlimit:2.61313}
    .fil1 {fill:#009600}
    .fil3 {fill:white}
    .fil0 {fill:#666666;fill-rule:nonzero}
    .fil2 {fill:white;fill-rule:nonzero}
   ]]>
  </style>
 </defs>
 <g id="Layer_x0020_1">
  <metadata id="CorelCorpID_0Corel-Layer"/>
  <path id="XMLID_469_" class="fil0" d="M242.8 277.04c-0.78,-1.03 -29.6,-40.02 -35.19,-46.04 -2.28,-2.46 -4.78,-4.99 -7.98,-6.64 -5.22,-2.7 -10.94,-2.36 -17,0.98 -6.83,3.74 -25.57,11.37 -31.29,13.59 -0.75,0.3 -1.73,0.61 -2.11,0.41 -0.35,-0.18 -5.06,-5.73 -6.46,-7.45 -32.16,-39.42 -41.26,-98.98 -41.81,-108.52 -0.07,-1.37 0.15,-1.86 0.14,-1.86 0.44,-0.48 2.56,-1.16 3.65,-1.5 3.18,-1 6.88,-2.57 10.46,-4.08 1.7,-0.72 3.39,-1.44 5.04,-2.09 5.12,-2.07 8.04,-4.23 11.43,-6.72l1.76 -1.29c8.17,-5.93 8.22,-14.48 8.24,-17.24 0.03,-2.3 4.05,-50.11 4.45,-55.15 0.98,-12.14 -2.13,-19.64 -9.79,-23.59 -0.71,-0.37 0,0 -3.05,-1.41 -3.71,-1.72 -24.82,-9.33 -36.41,-8.33 -12.29,1.06 -37.59,11.59 -54.51,44.35 -15.23,29.48 -10.89,66.98 -8.33,81.72 0.06,0.37 0.15,1.1 0.28,2.15 7.56,60.82 28.72,113.93 59.58,149.54 29.71,34.28 46.54,45.16 56.62,50.37 0,0 0,0 0,0 4.24,2.19 7.8,3.61 10.94,4.85l1.99 0.8c13.52,5.53 49.54,5.48 65.28,-9.14 12.39,-11.52 21.72,-26.28 21.23,-33.64 -0.35,-5.01 -3.36,-9 -7.17,-14.04z"/>
  <path id="XMLID_469__43" class="fil0" d="M4302.09 277.04c-0.78,-1.03 -29.6,-40.02 -35.19,-46.04 -2.28,-2.46 -4.78,-4.99 -7.98,-6.64 -5.22,-2.7 -10.94,-2.36 -17,0.98 -6.83,3.74 -25.57,11.37 -31.29,13.59 -0.75,0.3 -1.73,0.61 -2.11,0.41 -0.35,-0.18 -5.06,-5.73 -6.46,-7.45 -32.16,-39.42 -41.26,-98.98 -41.81,-108.52 -0.07,-1.37 0.15,-1.86 0.14,-1.86 0.44,-0.48 2.56,-1.16 3.65,-1.5 3.18,-1 6.88,-2.57 10.46,-4.08 1.7,-0.72 3.39,-1.44 5.04,-2.09 5.12,-2.07 8.04,-4.23 11.43,-6.72l1.76 -1.29c8.17,-5.93 8.22,-14.48 8.24,-17.24 0.03,-2.3 4.05,-50.11 4.45,-55.15 0.98,-12.14 -2.13,-19.64 -9.79,-23.59 -0.71,-0.37 0,0 -3.05,-1.41 -3.71,-1.72 -24.82,-9.33 -36.41,-8.33 -12.29,1.06 -37.59,11.59 -54.51,44.35 -15.23,29.48 -10.89,66.98 -8.33,81.72 0.06,0.37 0.15,1.1 0.28,2.15 7.56,60.82 28.72,113.93 59.58,149.54 29.71,34.28 46.54,45.16 56.62,50.37 0,0 0,0 0,0 4.24,2.19 7.8,3.61 10.94,4.85l1.99 0.8c13.52,5.53 49.54,5.48 65.28,-9.14 12.39,-11.52 21.72,-26.28 21.23,-33.64 -0.35,-5.01 -3.36,-9 -7.17,-14.04z"/>
  <path id="XMLID_469__44" class="fil0" d="M2272.44 277.04c-0.78,-1.03 -29.6,-40.02 -35.19,-46.04 -2.28,-2.46 -4.78,-4.99 -7.98,-6.64 -5.22,-2.7 -10.94,-2.36 -17,0.98 -6.83,3.74 -25.57,11.37 -31.29,13.59 -0.75,0.3 -1.73,0.61 -2.11,0.41 -0.35,-0.18 -5.06,-5.73 -6.46,-7.45 -32.16,-39.42 -41.26,-98.98 -41.81,-108.52 -0.07,-1.37 0.15,-1.86 0.14,-1.86 0.44,-0.48 2.56,-1.16 3.65,-1.5 3.18,-1 6.88,-2.57 10.46,-4.08 1.7,-0.72 3.39,-1.44 5.04,-2.09 5.12,-2.07 8.04,-4.23 11.43,-6.72l1.76 -1.29c8.17,-5.93 8.22,-14.48 8.24,-17.24 0.03,-2.3 4.05,-50.11 4.45,-55.15 0.98,-12.14 -2.13,-19.64 -9.79,-23.59 -0.71,-0.37 0,0 -3.05,-1.41 -3.71,-1.72 -24.82,-9.33 -36.41,-8.33 -12.29,1.06 -37.59,11.59 -54.51,44.35 -15.23,29.48 -10.89,66.98 -8.33,81.72 0.06,0.37 0.15,1.1 0.28,2.15 7.56,60.82 28.72,113.93 59.58,149.54 29.71,34.28 46.54,45.16 56.62,50.37 0,0 0,0 0,0 4.24,2.19 7.8,3.61 10.94,4.85l1.99 0.8c13.52,5.53 49.54,5.48 65.28,-9.14 12.39,-11.52 21.72,-26.28 21.23,-33.64 -0.35,-5.01 -3.36,-9 -7.17,-14.04z"/>
  <g id="_2822395350368">
   <path id="XMLID_469__45" class="fil0" d="M1236.46 197.11c-0.66,-0.31 -25.24,-12.42 -29.61,-14 -1.78,-0.64 -3.69,-1.26 -5.73,-1.26 -3.32,0 -6.11,1.65 -8.28,4.91 -2.46,3.65 -9.89,12.34 -12.19,14.94 -0.3,0.34 -0.71,0.75 -0.96,0.75 -0.22,0 -4.02,-1.57 -5.18,-2.07 -26.37,-11.46 -46.39,-39.01 -49.14,-43.65 -0.39,-0.67 -0.41,-0.97 -0.41,-0.97 0.1,-0.35 0.98,-1.24 1.44,-1.7 1.34,-1.33 2.79,-3.07 4.19,-4.76 0.67,-0.8 1.33,-1.6 1.98,-2.36 2.04,-2.37 2.94,-4.21 4,-6.34l0.55 -1.11c2.57,-5.1 0.37,-9.4 -0.33,-10.79 -0.58,-1.17 -10.96,-26.22 -12.07,-28.85 -2.65,-6.35 -6.16,-9.31 -11.04,-9.31 -0.45,0 0,0 -1.9,0.08 -2.31,0.1 -14.89,1.75 -20.44,5.26 -5.9,3.72 -15.87,15.57 -15.87,36.41 0,18.76 11.91,36.47 17.02,43.2 0.13,0.17 0.36,0.52 0.7,1.01 19.57,28.58 43.97,49.76 68.7,59.64 23.81,9.51 35.09,10.61 41.5,10.61 0,0 0,0 0,0 2.69,0 4.85,-0.21 6.75,-0.4l1.2 -0.11c8.23,-0.73 26.3,-10.09 30.42,-21.52 3.24,-9 4.09,-18.83 1.94,-22.4 -1.48,-2.43 -4.02,-3.65 -7.24,-5.19z"/>
   <path id="XMLID_470_" class="fil0" d="M1158.53 0c-91.34,0 -165.65,73.75 -165.65,164.41 0,29.32 7.85,58.02 22.71,83.14l-28.45 83.93c-0.53,1.56 -0.13,3.3 1.02,4.47 0.83,0.85 1.97,1.31 3.13,1.31 0.44,0 0.89,-0.07 1.33,-0.21l87.51 -27.81c23.95,12.8 51.02,19.55 78.41,19.55 91.33,0 165.64,-73.74 165.64,-164.39 0,-90.66 -74.3,-164.41 -165.64,-164.41zm0 294.55c-25.78,0 -50.74,-7.44 -72.2,-21.52 -0.72,-0.48 -1.56,-0.72 -2.4,-0.72 -0.44,0 -0.89,0.07 -1.33,0.21l-43.84 13.93 14.15 -41.75c0.46,-1.35 0.23,-2.84 -0.61,-3.99 -16.34,-22.33 -24.98,-48.71 -24.98,-76.3 0,-71.77 58.86,-130.16 131.21,-130.16 72.34,0 131.2,58.39 131.2,130.16 0,71.76 -58.85,130.14 -131.2,130.14z"/>
  </g>
  <g id="_2822395351904">
   <path id="XMLID_469__46" class="fil0" d="M3266.1 197.11c-0.66,-0.31 -25.24,-12.42 -29.61,-14 -1.78,-0.64 -3.69,-1.26 -5.73,-1.26 -3.32,0 -6.11,1.65 -8.28,4.91 -2.46,3.65 -9.89,12.34 -12.19,14.94 -0.3,0.34 -0.71,0.75 -0.96,0.75 -0.22,0 -4.02,-1.57 -5.18,-2.07 -26.37,-11.46 -46.39,-39.01 -49.14,-43.65 -0.39,-0.67 -0.41,-0.97 -0.41,-0.97 0.1,-0.35 0.98,-1.24 1.44,-1.7 1.34,-1.33 2.79,-3.07 4.19,-4.76 0.67,-0.8 1.33,-1.6 1.98,-2.36 2.04,-2.37 2.94,-4.21 4,-6.34l0.55 -1.11c2.57,-5.1 0.37,-9.4 -0.33,-10.79 -0.58,-1.17 -10.96,-26.22 -12.07,-28.85 -2.65,-6.35 -6.16,-9.31 -11.04,-9.31 -0.45,0 0,0 -1.9,0.08 -2.31,0.1 -14.89,1.75 -20.44,5.26 -5.9,3.72 -15.87,15.57 -15.87,36.41 0,18.76 11.91,36.47 17.02,43.2 0.13,0.17 0.36,0.52 0.7,1.01 19.57,28.58 43.97,49.76 68.7,59.64 23.81,9.51 35.09,10.61 41.5,10.61 0,0 0,0 0,0 2.69,0 4.85,-0.21 6.75,-0.4l1.2 -0.11c8.23,-0.73 26.3,-10.09 30.42,-21.52 3.24,-9 4.09,-18.83 1.94,-22.4 -1.48,-2.43 -4.02,-3.65 -7.24,-5.19z"/>
   <path id="XMLID_470__47" class="fil0" d="M3188.17 0c-91.34,0 -165.65,73.75 -165.65,164.41 0,29.32 7.85,58.02 22.71,83.14l-28.45 83.93c-0.53,1.56 -0.13,3.3 1.02,4.47 0.83,0.85 1.97,1.31 3.13,1.31 0.44,0 0.89,-0.07 1.33,-0.21l87.51 -27.81c23.95,12.8 51.02,19.55 78.41,19.55 91.33,0 165.64,-73.74 165.64,-164.39 0,-90.66 -74.3,-164.41 -165.64,-164.41zm0 294.55c-25.78,0 -50.74,-7.44 -72.2,-21.52 -0.72,-0.48 -1.56,-0.72 -2.4,-0.72 -0.44,0 -0.89,0.07 -1.33,0.21l-43.84 13.93 14.15 -41.75c0.46,-1.35 0.23,-2.84 -0.61,-3.99 -16.34,-22.33 -24.98,-48.71 -24.98,-76.3 0,-71.77 58.86,-130.16 131.21,-130.16 72.34,0 131.2,58.39 131.2,130.16 0,71.76 -58.85,130.14 -131.2,130.14z"/>
  </g>
  <g id="_2822395354064">
   <path id="XMLID_469__48" class="fil0" d="M1278.55 1026.25c-0.78,-1.03 -29.6,-40.02 -35.19,-46.04 -2.28,-2.46 -4.78,-4.99 -7.98,-6.64 -5.22,-2.7 -10.94,-2.36 -17,0.98 -6.83,3.74 -25.57,11.37 -31.29,13.59 -0.75,0.3 -1.73,0.61 -2.11,0.41 -0.35,-0.18 -5.06,-5.73 -6.46,-7.45 -32.16,-39.42 -41.26,-98.98 -41.81,-108.52 -0.07,-1.37 0.15,-1.86 0.14,-1.86 0.44,-0.48 2.56,-1.16 3.65,-1.5 3.18,-1 6.88,-2.57 10.46,-4.08 1.7,-0.72 3.39,-1.44 5.04,-2.09 5.12,-2.07 8.04,-4.23 11.43,-6.72l1.76 -1.29c8.17,-5.93 8.22,-14.48 8.24,-17.24 0.03,-2.3 4.05,-50.11 4.45,-55.15 0.98,-12.14 -2.13,-19.64 -9.79,-23.59 -0.71,-0.37 0,0 -3.05,-1.41 -3.71,-1.72 -24.82,-9.33 -36.41,-8.33 -12.29,1.06 -37.59,11.59 -54.51,44.35 -15.23,29.48 -10.89,66.98 -8.33,81.72 0.06,0.37 0.15,1.1 0.28,2.15 7.56,60.82 28.72,113.93 59.58,149.54 29.71,34.28 46.54,45.16 56.62,50.37 0,0 0,0 0,0 4.24,2.19 7.8,3.61 10.94,4.85l1.99 0.8c13.52,5.53 49.54,5.48 65.28,-9.14 12.39,-11.52 21.72,-26.28 21.23,-33.64 -0.35,-5.01 -3.36,-9 -7.17,-14.04z"/>
   <path id="XMLID_469__49" class="fil0" d="M242.8 1910.19c-0.78,-1.03 -29.6,-40.02 -35.19,-46.04 -2.28,-2.46 -4.78,-4.99 -7.98,-6.64 -5.22,-2.7 -10.94,-2.36 -17,0.98 -6.83,3.74 -25.57,11.37 -31.29,13.59 -0.75,0.3 -1.73,0.61 -2.11,0.41 -0.35,-0.18 -5.06,-5.73 -6.46,-7.45 -32.16,-39.42 -41.26,-98.98 -41.81,-108.52 -0.07,-1.37 0.15,-1.86 0.14,-1.86 0.44,-0.48 2.56,-1.16 3.65,-1.5 3.18,-1 6.88,-2.57 10.46,-4.08 1.7,-0.72 3.39,-1.44 5.04,-2.09 5.12,-2.07 8.04,-4.23 11.43,-6.72l1.76 -1.29c8.17,-5.93 8.22,-14.48 8.24,-17.24 0.03,-2.3 4.05,-50.11 4.45,-55.15 0.98,-12.14 -2.13,-19.64 -9.79,-23.59 -0.71,-0.37 0,0 -3.05,-1.41 -3.71,-1.72 -24.82,-9.33 -36.41,-8.33 -12.29,1.06 -37.59,11.59 -54.51,44.35 -15.23,29.48 -10.89,66.98 -8.33,81.72 0.06,0.37 0.15,1.1 0.28,2.15 7.56,60.82 28.72,113.93 59.58,149.54 29.71,34.28 46.54,45.16 56.62,50.37 0,0 0,0 0,0 4.24,2.19 7.8,3.61 10.94,4.85l1.99 0.8c13.52,5.53 49.54,5.48 65.28,-9.14 12.39,-11.52 21.72,-26.28 21.23,-33.64 -0.35,-5.01 -3.36,-9 -7.17,-14.04z"/>
   <path id="XMLID_469__50" class="fil0" d="M3294.23 1026.25c-0.78,-1.03 -29.6,-40.02 -35.19,-46.04 -2.28,-2.46 -4.78,-4.99 -7.98,-6.64 -5.22,-2.7 -10.94,-2.36 -17,0.98 -6.83,3.74 -25.57,11.37 -31.29,13.59 -0.75,0.3 -1.73,0.61 -2.11,0.41 -0.35,-0.18 -5.06,-5.73 -6.46,-7.45 -32.16,-39.42 -41.26,-98.98 -41.81,-108.52 -0.07,-1.37 0.15,-1.86 0.14,-1.86 0.44,-0.48 2.56,-1.16 3.65,-1.5 3.18,-1 6.88,-2.57 10.46,-4.08 1.7,-0.72 3.39,-1.44 5.04,-2.09 5.12,-2.07 8.04,-4.23 11.43,-6.72l1.76 -1.29c8.17,-5.93 8.22,-14.48 8.24,-17.24 0.03,-2.3 4.05,-50.11 4.45,-55.15 0.98,-12.14 -2.13,-19.64 -9.79,-23.59 -0.71,-0.37 0,0 -3.05,-1.41 -3.71,-1.72 -24.82,-9.33 -36.41,-8.33 -12.29,1.06 -37.59,11.59 -54.51,44.35 -15.23,29.48 -10.89,66.98 -8.33,81.72 0.06,0.37 0.15,1.1 0.28,2.15 7.56,60.82 28.72,113.93 59.58,149.54 29.71,34.28 46.54,45.16 56.62,50.37 0,0 0,0 0,0 4.24,2.19 7.8,3.61 10.94,4.85l1.99 0.8c13.52,5.53 49.54,5.48 65.28,-9.14 12.39,-11.52 21.72,-26.28 21.23,-33.64 -0.35,-5.01 -3.36,-9 -7.17,-14.04z"/>
   <path id="XMLID_469__51" class="fil0" d="M4302.09 1910.19c-0.78,-1.03 -29.6,-40.02 -35.19,-46.04 -2.28,-2.46 -4.78,-4.99 -7.98,-6.64 -5.22,-2.7 -10.94,-2.36 -17,0.98 -6.83,3.74 -25.57,11.37 -31.29,13.59 -0.75,0.3 -1.73,0.61 -2.11,0.41 -0.35,-0.18 -5.06,-5.73 -6.46,-7.45 -32.16,-39.42 -41.26,-98.98 -41.81,-108.52 -0.07,-1.37 0.15,-1.86 0.14,-1.86 0.44,-0.48 2.56,-1.16 3.65,-1.5 3.18,-1 6.88,-2.57 10.46,-4.08 1.7,-0.72 3.39,-1.44 5.04,-2.09 5.12,-2.07 8.04,-4.23 11.43,-6.72l1.76 -1.29c8.17,-5.93 8.22,-14.48 8.24,-17.24 0.03,-2.3 4.05,-50.11 4.45,-55.15 0.98,-12.14 -2.13,-19.64 -9.79,-23.59 -0.71,-0.37 0,0 -3.05,-1.41 -3.71,-1.72 -24.82,-9.33 -36.41,-8.33 -12.29,1.06 -37.59,11.59 -54.51,44.35 -15.23,29.48 -10.89,66.98 -8.33,81.72 0.06,0.37 0.15,1.1 0.28,2.15 7.56,60.82 28.72,113.93 59.58,149.54 29.71,34.28 46.54,45.16 56.62,50.37 0,0 0,0 0,0 4.24,2.19 7.8,3.61 10.94,4.85l1.99 0.8c13.52,5.53 49.54,5.48 65.28,-9.14 12.39,-11.52 21.72,-26.28 21.23,-33.64 -0.35,-5.01 -3.36,-9 -7.17,-14.04z"/>
   <path id="XMLID_469__52" class="fil0" d="M2272.44 1910.19c-0.78,-1.03 -29.6,-40.02 -35.19,-46.04 -2.28,-2.46 -4.78,-4.99 -7.98,-6.64 -5.22,-2.7 -10.94,-2.36 -17,0.98 -6.83,3.74 -25.57,11.37 -31.29,13.59 -0.75,0.3 -1.73,0.61 -2.11,0.41 -0.35,-0.18 -5.06,-5.73 -6.46,-7.45 -32.16,-39.42 -41.26,-98.98 -41.81,-108.52 -0.07,-1.37 0.15,-1.86 0.14,-1.86 0.44,-0.48 2.56,-1.16 3.65,-1.5 3.18,-1 6.88,-2.57 10.46,-4.08 1.7,-0.72 3.39,-1.44 5.04,-2.09 5.12,-2.07 8.04,-4.23 11.43,-6.72l1.76 -1.29c8.17,-5.93 8.22,-14.48 8.24,-17.24 0.03,-2.3 4.05,-50.11 4.45,-55.15 0.98,-12.14 -2.13,-19.64 -9.79,-23.59 -0.71,-0.37 0,0 -3.05,-1.41 -3.71,-1.72 -24.82,-9.33 -36.41,-8.33 -12.29,1.06 -37.59,11.59 -54.51,44.35 -15.23,29.48 -10.89,66.98 -8.33,81.72 0.06,0.37 0.15,1.1 0.28,2.15 7.56,60.82 28.72,113.93 59.58,149.54 29.71,34.28 46.54,45.16 56.62,50.37 0,0 0,0 0,0 4.24,2.19 7.8,3.61 10.94,4.85l1.99 0.8c13.52,5.53 49.54,5.48 65.28,-9.14 12.39,-11.52 21.72,-26.28 21.23,-33.64 -0.35,-5.01 -3.36,-9 -7.17,-14.04z"/>
   <g>
    <path id="XMLID_469__53" class="fil0" d="M249.56 946.31c-0.66,-0.31 -25.24,-12.42 -29.61,-14 -1.78,-0.64 -3.69,-1.26 -5.73,-1.26 -3.32,0 -6.11,1.65 -8.28,4.91 -2.46,3.65 -9.89,12.34 -12.19,14.94 -0.3,0.34 -0.71,0.75 -0.96,0.75 -0.22,0 -4.02,-1.57 -5.18,-2.07 -26.37,-11.46 -46.39,-39.01 -49.14,-43.65 -0.39,-0.67 -0.41,-0.97 -0.41,-0.97 0.1,-0.35 0.98,-1.24 1.44,-1.7 1.34,-1.33 2.79,-3.07 4.19,-4.76 0.67,-0.8 1.33,-1.6 1.98,-2.36 2.04,-2.37 2.94,-4.21 4,-6.34l0.55 -1.11c2.57,-5.1 0.37,-9.4 -0.33,-10.79 -0.58,-1.17 -10.96,-26.22 -12.07,-28.85 -2.65,-6.35 -6.16,-9.31 -11.04,-9.31 -0.45,0 0,0 -1.9,0.08 -2.31,0.1 -14.89,1.75 -20.44,5.26 -5.9,3.72 -15.87,15.57 -15.87,36.41 0,18.76 11.91,36.47 17.02,43.2 0.13,0.17 0.36,0.52 0.7,1.01 19.57,28.58 43.97,49.76 68.7,59.64 23.81,9.51 35.09,10.61 41.5,10.61 0,0 0,0 0,0 2.69,0 4.85,-0.21 6.75,-0.4l1.2 -0.11c8.23,-0.73 26.3,-10.09 30.42,-21.52 3.24,-9 4.09,-18.83 1.94,-22.4 -1.48,-2.43 -4.02,-3.65 -7.24,-5.19z"/>
    <path id="XMLID_470__54" class="fil0" d="M171.63 749.21c-91.34,0 -165.65,73.75 -165.65,164.41 0,29.32 7.85,58.02 22.71,83.14l-28.45 83.93c-0.53,1.56 -0.13,3.3 1.02,4.47 0.83,0.85 1.97,1.31 3.13,1.31 0.44,0 0.89,-0.07 1.33,-0.21l87.51 -27.81c23.95,12.8 51.02,19.55 78.41,19.55 91.33,0 165.64,-73.74 165.64,-164.39 0,-90.66 -74.3,-164.41 -165.64,-164.41zm0 294.55c-25.78,0 -50.74,-7.44 -72.2,-21.52 -0.72,-0.48 -1.56,-0.72 -2.4,-0.72 -0.44,0 -0.89,0.07 -1.33,0.21l-43.84 13.93 14.15 -41.75c0.46,-1.35 0.23,-2.84 -0.61,-3.99 -16.34,-22.33 -24.98,-48.71 -24.98,-76.3 0,-71.77 58.86,-130.16 131.21,-130.16 72.34,0 131.2,58.39 131.2,130.16 0,71.76 -58.85,130.14 -131.2,130.14z"/>
   </g>
   <g>
    <path id="XMLID_469__55" class="fil0" d="M2265.24 946.31c-0.66,-0.31 -25.24,-12.42 -29.61,-14 -1.78,-0.64 -3.69,-1.26 -5.73,-1.26 -3.32,0 -6.11,1.65 -8.28,4.91 -2.46,3.65 -9.89,12.34 -12.19,14.94 -0.3,0.34 -0.71,0.75 -0.96,0.75 -0.22,0 -4.02,-1.57 -5.18,-2.07 -26.37,-11.46 -46.39,-39.01 -49.14,-43.65 -0.39,-0.67 -0.41,-0.97 -0.41,-0.97 0.1,-0.35 0.98,-1.24 1.44,-1.7 1.34,-1.33 2.79,-3.07 4.19,-4.76 0.67,-0.8 1.33,-1.6 1.98,-2.36 2.04,-2.37 2.94,-4.21 4,-6.34l0.55 -1.11c2.57,-5.1 0.37,-9.4 -0.33,-10.79 -0.58,-1.17 -10.96,-26.22 -12.07,-28.85 -2.65,-6.35 -6.16,-9.31 -11.04,-9.31 -0.45,0 0,0 -1.9,0.08 -2.31,0.1 -14.89,1.75 -20.44,5.26 -5.9,3.72 -15.87,15.57 -15.87,36.41 0,18.76 11.91,36.47 17.02,43.2 0.13,0.17 0.36,0.52 0.7,1.01 19.57,28.58 43.97,49.76 68.7,59.64 23.81,9.51 35.09,10.61 41.5,10.61 0,0 0,0 0,0 2.69,0 4.85,-0.21 6.75,-0.4l1.2 -0.11c8.23,-0.73 26.3,-10.09 30.42,-21.52 3.24,-9 4.09,-18.83 1.94,-22.4 -1.48,-2.43 -4.02,-3.65 -7.24,-5.19z"/>
    <path id="XMLID_470__56" class="fil0" d="M2187.31 749.21c-91.34,0 -165.65,73.75 -165.65,164.41 0,29.32 7.85,58.02 22.71,83.14l-28.45 83.93c-0.53,1.56 -0.13,3.3 1.02,4.47 0.83,0.85 1.97,1.31 3.13,1.31 0.44,0 0.89,-0.07 1.33,-0.21l87.51 -27.81c23.95,12.8 51.02,19.55 78.41,19.55 91.33,0 165.64,-73.74 165.64,-164.39 0,-90.66 -74.3,-164.41 -165.64,-164.41zm0 294.55c-25.78,0 -50.74,-7.44 -72.2,-21.52 -0.72,-0.48 -1.56,-0.72 -2.4,-0.72 -0.44,0 -0.89,0.07 -1.33,0.21l-43.84 13.93 14.15 -41.75c0.46,-1.35 0.23,-2.84 -0.61,-3.99 -16.34,-22.33 -24.98,-48.71 -24.98,-76.3 0,-71.77 58.86,-130.16 131.21,-130.16 72.34,0 131.2,58.39 131.2,130.16 0,71.76 -58.85,130.14 -131.2,130.14z"/>
   </g>
   <g>
    <path id="XMLID_469__57" class="fil0" d="M1236.46 1830.25c-0.66,-0.31 -25.24,-12.42 -29.61,-14 -1.78,-0.64 -3.69,-1.26 -5.73,-1.26 -3.32,0 -6.11,1.65 -8.28,4.91 -2.46,3.65 -9.89,12.34 -12.19,14.94 -0.3,0.34 -0.71,0.75 -0.96,0.75 -0.22,0 -4.02,-1.57 -5.18,-2.07 -26.37,-11.46 -46.39,-39.01 -49.14,-43.65 -0.39,-0.67 -0.41,-0.97 -0.41,-0.97 0.1,-0.35 0.98,-1.24 1.44,-1.7 1.34,-1.33 2.79,-3.07 4.19,-4.76 0.67,-0.8 1.33,-1.6 1.98,-2.36 2.04,-2.37 2.94,-4.21 4,-6.34l0.55 -1.11c2.57,-5.1 0.37,-9.4 -0.33,-10.79 -0.58,-1.17 -10.96,-26.22 -12.07,-28.85 -2.65,-6.35 -6.16,-9.31 -11.04,-9.31 -0.45,0 0,0 -1.9,0.08 -2.31,0.1 -14.89,1.75 -20.44,5.26 -5.9,3.72 -15.87,15.57 -15.87,36.41 0,18.76 11.91,36.47 17.02,43.2 0.13,0.17 0.36,0.52 0.7,1.01 19.57,28.58 43.97,49.76 68.7,59.64 23.81,9.51 35.09,10.61 41.5,10.61 0,0 0,0 0,0 2.69,0 4.85,-0.21 6.75,-0.4l1.2 -0.11c8.23,-0.73 26.3,-10.09 30.42,-21.52 3.24,-9 4.09,-18.83 1.94,-22.4 -1.48,-2.43 -4.02,-3.65 -7.24,-5.19z"/>
    <path id="XMLID_470__58" class="fil0" d="M1158.53 1633.15c-91.34,0 -165.65,73.75 -165.65,164.41 0,29.32 7.85,58.02 22.71,83.14l-28.45 83.93c-0.53,1.56 -0.13,3.3 1.02,4.47 0.83,0.85 1.97,1.31 3.13,1.31 0.44,0 0.89,-0.07 1.33,-0.21l87.51 -27.81c23.95,12.8 51.02,19.55 78.41,19.55 91.33,0 165.64,-73.74 165.64,-164.39 0,-90.66 -74.3,-164.41 -165.64,-164.41zm0 294.55c-25.78,0 -50.74,-7.44 -72.2,-21.52 -0.72,-0.48 -1.56,-0.72 -2.4,-0.72 -0.44,0 -0.89,0.07 -1.33,0.21l-43.84 13.93 14.15 -41.75c0.46,-1.35 0.23,-2.84 -0.61,-3.99 -16.34,-22.33 -24.98,-48.71 -24.98,-76.3 0,-71.77 58.86,-130.16 131.21,-130.16 72.34,0 131.2,58.39 131.2,130.16 0,71.76 -58.85,130.14 -131.2,130.14z"/>
   </g>
   <g>
    <path id="XMLID_469__59" class="fil0" d="M4280.93 946.31c-0.66,-0.31 -25.24,-12.42 -29.61,-14 -1.78,-0.64 -3.69,-1.26 -5.73,-1.26 -3.32,0 -6.11,1.65 -8.28,4.91 -2.46,3.65 -9.89,12.34 -12.19,14.94 -0.3,0.34 -0.71,0.75 -0.96,0.75 -0.22,0 -4.02,-1.57 -5.18,-2.07 -26.37,-11.46 -46.39,-39.01 -49.14,-43.65 -0.39,-0.67 -0.41,-0.97 -0.41,-0.97 0.1,-0.35 0.98,-1.24 1.44,-1.7 1.34,-1.33 2.79,-3.07 4.19,-4.76 0.67,-0.8 1.33,-1.6 1.98,-2.36 2.04,-2.37 2.94,-4.21 4,-6.34l0.55 -1.11c2.57,-5.1 0.37,-9.4 -0.33,-10.79 -0.58,-1.17 -10.96,-26.22 -12.07,-28.85 -2.65,-6.35 -6.16,-9.31 -11.04,-9.31 -0.45,0 0,0 -1.9,0.08 -2.31,0.1 -14.89,1.75 -20.44,5.26 -5.9,3.72 -15.87,15.57 -15.87,36.41 0,18.76 11.91,36.47 17.02,43.2 0.13,0.17 0.36,0.52 0.7,1.01 19.57,28.58 43.97,49.76 68.7,59.64 23.81,9.51 35.09,10.61 41.5,10.61 0,0 0,0 0,0 2.69,0 4.85,-0.21 6.75,-0.4l1.2 -0.11c8.23,-0.73 26.3,-10.09 30.42,-21.52 3.24,-9 4.09,-18.83 1.94,-22.4 -1.48,-2.43 -4.02,-3.65 -7.24,-5.19z"/>
    <path id="XMLID_470__60" class="fil0" d="M4203 749.21c-91.34,0 -165.65,73.75 -165.65,164.41 0,29.32 7.85,58.02 22.71,83.14l-28.45 83.93c-0.53,1.56 -0.13,3.3 1.02,4.47 0.83,0.85 1.97,1.31 3.13,1.31 0.44,0 0.89,-0.07 1.33,-0.21l87.51 -27.81c23.95,12.8 51.02,19.55 78.41,19.55 91.33,0 165.64,-73.74 165.64,-164.39 0,-90.66 -74.3,-164.41 -165.64,-164.41zm0 294.55c-25.78,0 -50.74,-7.44 -72.2,-21.52 -0.72,-0.48 -1.56,-0.72 -2.4,-0.72 -0.44,0 -0.89,0.07 -1.33,0.21l-43.84 13.93 14.15 -41.75c0.46,-1.35 0.23,-2.84 -0.61,-3.99 -16.34,-22.33 -24.98,-48.71 -24.98,-76.3 0,-71.77 58.86,-130.16 131.21,-130.16 72.34,0 131.2,58.39 131.2,130.16 0,71.76 -58.85,130.14 -131.2,130.14z"/>
   </g>
   <g>
    <path id="XMLID_469__61" class="fil0" d="M3266.1 1830.25c-0.66,-0.31 -25.24,-12.42 -29.61,-14 -1.78,-0.64 -3.69,-1.26 -5.73,-1.26 -3.32,0 -6.11,1.65 -8.28,4.91 -2.46,3.65 -9.89,12.34 -12.19,14.94 -0.3,0.34 -0.71,0.75 -0.96,0.75 -0.22,0 -4.02,-1.57 -5.18,-2.07 -26.37,-11.46 -46.39,-39.01 -49.14,-43.65 -0.39,-0.67 -0.41,-0.97 -0.41,-0.97 0.1,-0.35 0.98,-1.24 1.44,-1.7 1.34,-1.33 2.79,-3.07 4.19,-4.76 0.67,-0.8 1.33,-1.6 1.98,-2.36 2.04,-2.37 2.94,-4.21 4,-6.34l0.55 -1.11c2.57,-5.1 0.37,-9.4 -0.33,-10.79 -0.58,-1.17 -10.96,-26.22 -12.07,-28.85 -2.65,-6.35 -6.16,-9.31 -11.04,-9.31 -0.45,0 0,0 -1.9,0.08 -2.31,0.1 -14.89,1.75 -20.44,5.26 -5.9,3.72 -15.87,15.57 -15.87,36.41 0,18.76 11.91,36.47 17.02,43.2 0.13,0.17 0.36,0.52 0.7,1.01 19.57,28.58 43.97,49.76 68.7,59.64 23.81,9.51 35.09,10.61 41.5,10.61 0,0 0,0 0,0 2.69,0 4.85,-0.21 6.75,-0.4l1.2 -0.11c8.23,-0.73 26.3,-10.09 30.42,-21.52 3.24,-9 4.09,-18.83 1.94,-22.4 -1.48,-2.43 -4.02,-3.65 -7.24,-5.19z"/>
    <path id="XMLID_470__62" class="fil0" d="M3188.17 1633.15c-91.34,0 -165.65,73.75 -165.65,164.41 0,29.32 7.85,58.02 22.71,83.14l-28.45 83.93c-0.53,1.56 -0.13,3.3 1.02,4.47 0.83,0.85 1.97,1.31 3.13,1.31 0.44,0 0.89,-0.07 1.33,-0.21l87.51 -27.81c23.95,12.8 51.02,19.55 78.41,19.55 91.33,0 165.64,-73.74 165.64,-164.39 0,-90.66 -74.3,-164.41 -165.64,-164.41zm0 294.55c-25.78,0 -50.74,-7.44 -72.2,-21.52 -0.72,-0.48 -1.56,-0.72 -2.4,-0.72 -0.44,0 -0.89,0.07 -1.33,0.21l-43.84 13.93 14.15 -41.75c0.46,-1.35 0.23,-2.84 -0.61,-3.99 -16.34,-22.33 -24.98,-48.71 -24.98,-76.3 0,-71.77 58.86,-130.16 131.21,-130.16 72.34,0 131.2,58.39 131.2,130.16 0,71.76 -58.85,130.14 -131.2,130.14z"/>
   </g>
  </g>
  <path id="XMLID_469__63" class="fil0" d="M1278.55 2659.4c-0.78,-1.03 -29.6,-40.02 -35.19,-46.04 -2.28,-2.46 -4.78,-4.99 -7.98,-6.64 -5.22,-2.7 -10.94,-2.36 -17,0.98 -6.83,3.74 -25.57,11.37 -31.29,13.59 -0.75,0.3 -1.73,0.61 -2.11,0.41 -0.35,-0.18 -5.06,-5.73 -6.46,-7.45 -32.16,-39.42 -41.26,-98.98 -41.81,-108.52 -0.07,-1.37 0.15,-1.86 0.14,-1.86 0.44,-0.48 2.56,-1.16 3.65,-1.5 3.18,-1 6.88,-2.57 10.46,-4.08 1.7,-0.72 3.39,-1.44 5.04,-2.09 5.12,-2.07 8.04,-4.23 11.43,-6.72l1.76 -1.29c8.17,-5.93 8.22,-14.48 8.24,-17.24 0.03,-2.3 4.05,-50.11 4.45,-55.15 0.98,-12.14 -2.13,-19.64 -9.79,-23.59 -0.71,-0.37 0,0 -3.05,-1.41 -3.71,-1.72 -24.82,-9.33 -36.41,-8.33 -12.29,1.06 -37.59,11.59 -54.51,44.35 -15.23,29.48 -10.89,66.98 -8.33,81.72 0.06,0.37 0.15,1.1 0.28,2.15 7.56,60.82 28.72,113.93 59.58,149.54 29.71,34.28 46.54,45.16 56.62,50.37 0,0 0,0 0,0 4.24,2.19 7.8,3.61 10.94,4.85l1.99 0.8c13.52,5.53 49.54,5.48 65.28,-9.14 12.39,-11.52 21.72,-26.28 21.23,-33.64 -0.35,-5.01 -3.36,-9 -7.17,-14.04z"/>
  <path id="XMLID_469__64" class="fil0" d="M3294.23 2659.4c-0.78,-1.03 -29.6,-40.02 -35.19,-46.04 -2.28,-2.46 -4.78,-4.99 -7.98,-6.64 -5.22,-2.7 -10.94,-2.36 -17,0.98 -6.83,3.74 -25.57,11.37 -31.29,13.59 -0.75,0.3 -1.73,0.61 -2.11,0.41 -0.35,-0.18 -5.06,-5.73 -6.46,-7.45 -32.16,-39.42 -41.26,-98.98 -41.81,-108.52 -0.07,-1.37 0.15,-1.86 0.14,-1.86 0.44,-0.48 2.56,-1.16 3.65,-1.5 3.18,-1 6.88,-2.57 10.46,-4.08 1.7,-0.72 3.39,-1.44 5.04,-2.09 5.12,-2.07 8.04,-4.23 11.43,-6.72l1.76 -1.29c8.17,-5.93 8.22,-14.48 8.24,-17.24 0.03,-2.3 4.05,-50.11 4.45,-55.15 0.98,-12.14 -2.13,-19.64 -9.79,-23.59 -0.71,-0.37 0,0 -3.05,-1.41 -3.71,-1.72 -24.82,-9.33 -36.41,-8.33 -12.29,1.06 -37.59,11.59 -54.51,44.35 -15.23,29.48 -10.89,66.98 -8.33,81.72 0.06,0.37 0.15,1.1 0.28,2.15 7.56,60.82 28.72,113.93 59.58,149.54 29.71,34.28 46.54,45.16 56.62,50.37 0,0 0,0 0,0 4.24,2.19 7.8,3.61 10.94,4.85l1.99 0.8c13.52,5.53 49.54,5.48 65.28,-9.14 12.39,-11.52 21.72,-26.28 21.23,-33.64 -0.35,-5.01 -3.36,-9 -7.17,-14.04z"/>
  <g id="_2822395361552">
   <path id="XMLID_469__65" class="fil0" d="M249.56 2579.46c-0.66,-0.31 -25.24,-12.42 -29.61,-14 -1.78,-0.64 -3.69,-1.26 -5.73,-1.26 -3.32,0 -6.11,1.65 -8.28,4.91 -2.46,3.65 -9.89,12.34 -12.19,14.94 -0.3,0.34 -0.71,0.75 -0.96,0.75 -0.22,0 -4.02,-1.57 -5.18,-2.07 -26.37,-11.46 -46.39,-39.01 -49.14,-43.65 -0.39,-0.67 -0.41,-0.97 -0.41,-0.97 0.1,-0.35 0.98,-1.24 1.44,-1.7 1.34,-1.33 2.79,-3.07 4.19,-4.76 0.67,-0.8 1.33,-1.6 1.98,-2.36 2.04,-2.37 2.94,-4.21 4,-6.34l0.55 -1.11c2.57,-5.1 0.37,-9.4 -0.33,-10.79 -0.58,-1.17 -10.96,-26.22 -12.07,-28.85 -2.65,-6.35 -6.16,-9.31 -11.04,-9.31 -0.45,0 0,0 -1.9,0.08 -2.31,0.1 -14.89,1.75 -20.44,5.26 -5.9,3.72 -15.87,15.57 -15.87,36.41 0,18.76 11.91,36.47 17.02,43.2 0.13,0.17 0.36,0.52 0.7,1.01 19.57,28.58 43.97,49.76 68.7,59.64 23.81,9.51 35.09,10.61 41.5,10.61 0,0 0,0 0,0 2.69,0 4.85,-0.21 6.75,-0.4l1.2 -0.11c8.23,-0.73 26.3,-10.09 30.42,-21.52 3.24,-9 4.09,-18.83 1.94,-22.4 -1.48,-2.43 -4.02,-3.65 -7.24,-5.19z"/>
   <path id="XMLID_470__66" class="fil0" d="M171.63 2382.36c-91.34,0 -165.65,73.75 -165.65,164.41 0,29.32 7.85,58.02 22.71,83.14l-28.45 83.93c-0.53,1.56 -0.13,3.3 1.02,4.47 0.83,0.85 1.97,1.31 3.13,1.31 0.44,0 0.89,-0.07 1.33,-0.21l87.51 -27.81c23.95,12.8 51.02,19.55 78.41,19.55 91.33,0 165.64,-73.74 165.64,-164.39 0,-90.66 -74.3,-164.41 -165.64,-164.41zm0 294.55c-25.78,0 -50.74,-7.44 -72.2,-21.52 -0.72,-0.48 -1.56,-0.72 -2.4,-0.72 -0.44,0 -0.89,0.07 -1.33,0.21l-43.84 13.93 14.15 -41.75c0.46,-1.35 0.23,-2.84 -0.61,-3.99 -16.34,-22.33 -24.98,-48.71 -24.98,-76.3 0,-71.77 58.86,-130.16 131.21,-130.16 72.34,0 131.2,58.39 131.2,130.16 0,71.76 -58.85,130.14 -131.2,130.14z"/>
  </g>
  <g id="_2822395301024">
   <path id="XMLID_469__67" class="fil0" d="M2265.24 2579.46c-0.66,-0.31 -25.24,-12.42 -29.61,-14 -1.78,-0.64 -3.69,-1.26 -5.73,-1.26 -3.32,0 -6.11,1.65 -8.28,4.91 -2.46,3.65 -9.89,12.34 -12.19,14.94 -0.3,0.34 -0.71,0.75 -0.96,0.75 -0.22,0 -4.02,-1.57 -5.18,-2.07 -26.37,-11.46 -46.39,-39.01 -49.14,-43.65 -0.39,-0.67 -0.41,-0.97 -0.41,-0.97 0.1,-0.35 0.98,-1.24 1.44,-1.7 1.34,-1.33 2.79,-3.07 4.19,-4.76 0.67,-0.8 1.33,-1.6 1.98,-2.36 2.04,-2.37 2.94,-4.21 4,-6.34l0.55 -1.11c2.57,-5.1 0.37,-9.4 -0.33,-10.79 -0.58,-1.17 -10.96,-26.22 -12.07,-28.85 -2.65,-6.35 -6.16,-9.31 -11.04,-9.31 -0.45,0 0,0 -1.9,0.08 -2.31,0.1 -14.89,1.75 -20.44,5.26 -5.9,3.72 -15.87,15.57 -15.87,36.41 0,18.76 11.91,36.47 17.02,43.2 0.13,0.17 0.36,0.52 0.7,1.01 19.57,28.58 43.97,49.76 68.7,59.64 23.81,9.51 35.09,10.61 41.5,10.61 0,0 0,0 0,0 2.69,0 4.85,-0.21 6.75,-0.4l1.2 -0.11c8.23,-0.73 26.3,-10.09 30.42,-21.52 3.24,-9 4.09,-18.83 1.94,-22.4 -1.48,-2.43 -4.02,-3.65 -7.24,-5.19z"/>
   <path id="XMLID_470__68" class="fil0" d="M2187.31 2382.36c-91.34,0 -165.65,73.75 -165.65,164.41 0,29.32 7.85,58.02 22.71,83.14l-28.45 83.93c-0.53,1.56 -0.13,3.3 1.02,4.47 0.83,0.85 1.97,1.31 3.13,1.31 0.44,0 0.89,-0.07 1.33,-0.21l87.51 -27.81c23.95,12.8 51.02,19.55 78.41,19.55 91.33,0 165.64,-73.74 165.64,-164.39 0,-90.66 -74.3,-164.41 -165.64,-164.41zm0 294.55c-25.78,0 -50.74,-7.44 -72.2,-21.52 -0.72,-0.48 -1.56,-0.72 -2.4,-0.72 -0.44,0 -0.89,0.07 -1.33,0.21l-43.84 13.93 14.15 -41.75c0.46,-1.35 0.23,-2.84 -0.61,-3.99 -16.34,-22.33 -24.98,-48.71 -24.98,-76.3 0,-71.77 58.86,-130.16 131.21,-130.16 72.34,0 131.2,58.39 131.2,130.16 0,71.76 -58.85,130.14 -131.2,130.14z"/>
  </g>
  <g id="_2822395302656">
   <path id="XMLID_469__69" class="fil0" d="M4280.93 2579.46c-0.66,-0.31 -25.24,-12.42 -29.61,-14 -1.78,-0.64 -3.69,-1.26 -5.73,-1.26 -3.32,0 -6.11,1.65 -8.28,4.91 -2.46,3.65 -9.89,12.34 -12.19,14.94 -0.3,0.34 -0.71,0.75 -0.96,0.75 -0.22,0 -4.02,-1.57 -5.18,-2.07 -26.37,-11.46 -46.39,-39.01 -49.14,-43.65 -0.39,-0.67 -0.41,-0.97 -0.41,-0.97 0.1,-0.35 0.98,-1.24 1.44,-1.7 1.34,-1.33 2.79,-3.07 4.19,-4.76 0.67,-0.8 1.33,-1.6 1.98,-2.36 2.04,-2.37 2.94,-4.21 4,-6.34l0.55 -1.11c2.57,-5.1 0.37,-9.4 -0.33,-10.79 -0.58,-1.17 -10.96,-26.22 -12.07,-28.85 -2.65,-6.35 -6.16,-9.31 -11.04,-9.31 -0.45,0 0,0 -1.9,0.08 -2.31,0.1 -14.89,1.75 -20.44,5.26 -5.9,3.72 -15.87,15.57 -15.87,36.41 0,18.76 11.91,36.47 17.02,43.2 0.13,0.17 0.36,0.52 0.7,1.01 19.57,28.58 43.97,49.76 68.7,59.64 23.81,9.51 35.09,10.61 41.5,10.61 0,0 0,0 0,0 2.69,0 4.85,-0.21 6.75,-0.4l1.2 -0.11c8.23,-0.73 26.3,-10.09 30.42,-21.52 3.24,-9 4.09,-18.83 1.94,-22.4 -1.48,-2.43 -4.02,-3.65 -7.24,-5.19z"/>
   <path id="XMLID_470__70" class="fil0" d="M4203 2382.36c-91.34,0 -165.65,73.75 -165.65,164.41 0,29.32 7.85,58.02 22.71,83.14l-28.45 83.93c-0.53,1.56 -0.13,3.3 1.02,4.47 0.83,0.85 1.97,1.31 3.13,1.31 0.44,0 0.89,-0.07 1.33,-0.21l87.51 -27.81c23.95,12.8 51.02,19.55 78.41,19.55 91.33,0 165.64,-73.74 165.64,-164.39 0,-90.66 -74.3,-164.41 -165.64,-164.41zm0 294.55c-25.78,0 -50.74,-7.44 -72.2,-21.52 -0.72,-0.48 -1.56,-0.72 -2.4,-0.72 -0.44,0 -0.89,0.07 -1.33,0.21l-43.84 13.93 14.15 -41.75c0.46,-1.35 0.23,-2.84 -0.61,-3.99 -16.34,-22.33 -24.98,-48.71 -24.98,-76.3 0,-71.77 58.86,-130.16 131.21,-130.16 72.34,0 131.2,58.39 131.2,130.16 0,71.76 -58.85,130.14 -131.2,130.14z"/>
  </g>
  <g id="_2822395302080">
   <rect class="fil1" x="1517.65" y="693.15" width="1333.33" height="1333.33"/>
   <g>
    <path class="fil2" d="M2437.02 1173.14l81.8 0.18 -1.94 64.47 -5.25 60.57 -8.31 56.62 -11.32 52.73 -14.1 48.78 -16.63 44.94 -19.11 40.99 -21.41 37.16 -23.53 33.21 -25.6 29.25 -27.6 25.24 -29.37 21.11 -31.08 16.81 -32.56 12.27 -33.62 7.49 -34.27 2.48 -34.21 -2.48 -33.62 -7.55 -32.56 -12.27 -31.02 -16.81 -29.31 -21.11 -27.48 -25.24 -25.48 -29.31 -23.41 -33.2 -21.23 -37.16 -18.93 -40.99 -16.46 -44.94 -13.8 -48.83 -11.09 -52.67 -8.08 -56.68 -4.95 -60.52 -1.65 -64.46 81.81 0.12 1.53 60.98 4.66 56.86 7.55 52.67 10.15 48.48 12.56 44.3 14.69 40.05 16.57 35.86 18.11 31.73 19.35 27.43 20.29 23.35 20.94 19.29 21.23 15.28 21.24 11.56 21.11 7.96 20.82 4.66 20.7 1.48 20.76 -1.48 20.82 -4.66 21.18 -8.02 21.35 -11.5 21.3 -15.33 21.06 -19.29 20.41 -23.35 19.52 -27.48 18.22 -31.73 16.75 -35.86 14.86 -40.11 12.74 -44.3 10.44 -48.48 7.73 -52.67 4.95 -56.8 1.83 -61.04 0 -0z"/>
    <circle class="fil3 str0" cx="1890.69" cy="1070.99" r="40.87"/>
    <circle class="fil3 str0" cx="2477.89" cy="1070.99" r="40.87"/>
   </g>
  </g>
 </g>
</svg>
