<?xml version="1.0" encoding="UTF-8"?>
<!DOCTYPE svg PUBLIC "-//W3C//DTD SVG 1.0//EN" "http://www.w3.org/TR/2001/REC-SVG-20010904/DTD/svg10.dtd">
<!-- Creator: CorelDRAW -->
<svg xmlns="http://www.w3.org/2000/svg" xml:space="preserve" width="0.208331in" height="0.208335in" version="1.0" style="shape-rendering:geometricPrecision; text-rendering:geometricPrecision; image-rendering:optimizeQuality; fill-rule:evenodd; clip-rule:evenodd"
viewBox="0 0 58.13 58.13"
 xmlns:xlink="http://www.w3.org/1999/xlink"
 xmlns:xodm="http://www.corel.com/coreldraw/odm/2003">
 <defs>
  <style type="text/css">
   <![CDATA[
    .fil0 {fill:black;fill-rule:nonzero}
   ]]>
  </style>
 </defs>
 <g id="Layer_x0020_1">
  <metadata id="CorelCorpID_0Corel-Layer"/>
  <path id="alternate_email_24dp_E8EAED_FILL0_wght400_GRAD0_opsz24.svg" class="fil0" d="M29.06 58.13c-4.02,0 -7.8,-0.76 -11.34,-2.29 -3.54,-1.53 -6.61,-3.6 -9.23,-6.21 -2.62,-2.62 -4.69,-5.69 -6.21,-9.23 -1.53,-3.54 -2.29,-7.31 -2.29,-11.34 0,-4.02 0.76,-7.8 2.29,-11.34 1.53,-3.54 3.6,-6.61 6.21,-9.23 2.62,-2.62 5.69,-4.69 9.23,-6.21 3.54,-1.53 7.31,-2.29 11.34,-2.29 4.02,0 7.8,0.76 11.34,2.29 3.54,1.53 6.61,3.6 9.23,6.21 2.62,2.62 4.69,5.69 6.21,9.23 1.53,3.54 2.29,7.31 2.29,11.34l0 4.21c0,2.86 -0.98,5.29 -2.94,7.3 -1.96,2.01 -4.37,3.02 -7.23,3.02 -1.69,0 -3.29,-0.36 -4.8,-1.09 -1.5,-0.73 -2.76,-1.77 -3.78,-3.12 -1.4,1.4 -2.99,2.46 -4.76,3.16 -1.77,0.7 -3.62,1.05 -5.56,1.05 -4.02,0 -7.45,-1.42 -10.28,-4.25 -2.83,-2.83 -4.25,-6.26 -4.25,-10.28 0,-4.02 1.42,-7.45 4.25,-10.28 2.83,-2.83 6.26,-4.25 10.28,-4.25 4.02,0 7.45,1.42 10.28,4.25 2.83,2.83 4.25,6.26 4.25,10.28l0 4.21c0,1.26 0.41,2.33 1.24,3.2 0.82,0.87 1.86,1.31 3.12,1.31 1.26,0 2.3,-0.43 3.12,-1.31 0.82,-0.87 1.24,-1.94 1.24,-3.2l0 -4.21c0,-6.49 -2.25,-11.99 -6.76,-16.49 -4.5,-4.5 -10,-6.76 -16.49,-6.76 -6.49,0 -11.99,2.25 -16.49,6.76 -4.5,4.5 -6.76,10 -6.76,16.49 0,6.49 2.25,11.99 6.76,16.49 4.5,4.5 10,6.76 16.49,6.76l14.53 0 0 5.81 -14.53 -0zm0 -20.34c2.42,0 4.48,-0.85 6.18,-2.54 1.7,-1.69 2.54,-3.75 2.54,-6.18 0,-2.42 -0.85,-4.48 -2.54,-6.18 -1.69,-1.7 -3.75,-2.54 -6.18,-2.54 -2.42,0 -4.48,0.85 -6.18,2.54 -1.7,1.69 -2.54,3.75 -2.54,6.18 0,2.42 0.85,4.48 2.54,6.18 1.69,1.7 3.75,2.54 6.18,2.54z"/>
 </g>
</svg>
