<?xml version="1.0" encoding="UTF-8"?>
<!DOCTYPE svg PUBLIC "-//W3C//DTD SVG 1.0//EN" "http://www.w3.org/TR/2001/REC-SVG-20010904/DTD/svg10.dtd">
<!-- Creator: CorelDRAW -->
<svg xmlns="http://www.w3.org/2000/svg" xml:space="preserve" width="3.09483in" height="1.4456in" version="1.0" style="shape-rendering:geometricPrecision; text-rendering:geometricPrecision; image-rendering:optimizeQuality; fill-rule:evenodd; clip-rule:evenodd"
viewBox="0 0 3094.83 1445.6"
 xmlns:xlink="http://www.w3.org/1999/xlink"
 xmlns:xodm="http://www.corel.com/coreldraw/odm/2003">
 <defs>
  <style type="text/css">
   <![CDATA[
    .fil0 {fill:#CCCCCC;fill-rule:nonzero}
   ]]>
  </style>
 </defs>
 <g id="Layer_x0020_1">
  <metadata id="CorelCorpID_0Corel-Layer"/>
  <g id="_2953015682000">
   <path id="corporate_fare_24dp_E8EAED_FILL0_wght400_GRAD0_opsz24.svg" class="fil0" d="M2089.01 148.54l0 -148.53 82.52 0 0 33.01 82.52 0 0 115.52 -165.04 -0zm16.5 -16.5l49.51 0 0 -16.5 -49.51 0 0 16.5zm0 -33.01l49.51 0 0 -16.5 -49.51 0 0 16.51 0 -0zm0 -33.01l49.51 0 0 -16.5 -49.51 0 0 16.5zm0 -33l49.51 0 0 -16.5 -49.51 0 0 16.5zm66.02 99.02l66.02 0 0 -82.52 -66.02 -0 0 82.52 0 0zm16.5 -49.51l0 -16.5 33.01 0 0 16.5 -33.01 0zm0 33.01l0 -16.5 33.01 0 0 16.5 -33.01 0z"/>
   <path id="corporate_fare_24dp_E8EAED_FILL0_wght400_GRAD0_opsz24.svg_10" class="fil0" d="M410.3 1445.59l0 -148.53 82.52 0 0 33 82.52 0 0 115.53 -165.04 -0zm16.5 -16.5l49.51 0 0 -16.5 -49.51 0 0 16.5zm0 -33.01l49.51 0 0 -16.5 -49.51 0 0 16.5 0 -0zm0 -33l49.51 0 0 -16.51 -49.51 0 0 16.51zm0 -33.01l49.51 0 0 -16.5 -49.51 0 0 16.5zm66.02 99.02l66.01 0 0 -82.52 -66.01 -0 0 82.52 0 0zm16.5 -49.51l0 -16.5 33 0 0 16.5 -33 0zm0 33l0 -16.5 33 0 0 16.5 -33 0z"/>
   <path id="corporate_fare_24dp_E8EAED_FILL0_wght400_GRAD0_opsz24.svg_11" class="fil0" d="M2892.29 580.88l0 -148.54 82.52 0 0 33.01 82.52 0 0 115.52 -165.04 0zm16.5 -16.5l49.51 0 0 -16.5 -49.51 0 0 16.5zm0 -33.01l49.51 0 0 -16.5 -49.51 0 0 16.51 0 -0zm0 -33.01l49.51 0 0 -16.5 -49.51 0 0 16.5zm0 -33l49.51 0 0 -16.5 -49.51 0 0 16.5zm66.02 99.02l66.02 0 0 -82.52 -66.02 -0 0 82.52 0 0zm16.5 -49.51l0 -16.5 33.01 0 0 16.5 -33.01 0zm0 33.01l0 -16.5 33.01 0 0 16.5 -33.01 0z"/>
   <path id="source_environment_24dp_E8EAED_FILL0_wght400_GRAD0_opsz24.svg" class="fil0" d="M-0 580.88l0 -120.69 37.13 -27.85 37.13 27.85 0 16.71 74.26 0 0 103.97 -148.53 0zm14.85 -14.85l14.85 0 0 -14.85 -14.85 0 0 14.85zm0 -29.7l14.85 0 0 -14.85 -14.85 0 0 14.85 0 0zm0 -29.71l14.85 0 0 -14.85 -14.85 0 0 14.85zm0 -29.7l14.85 0 0 -14.85 -14.85 0 0 14.85zm29.71 0l14.85 0 0 -14.85 -14.85 0 0 14.85zm0 89.12l89.12 0 0 -74.26 -89.12 -0 0 74.27 0 0zm44.56 -44.56l0 -14.85 29.7 0 0 14.85 -29.7 0zm0 29.7l0 -14.85 29.7 0 0 14.85 -29.7 0zm-29.71 -29.7l0 -14.85 14.85 0 0 14.85 -14.85 0zm0 29.7l0 -14.85 14.85 0 0 14.85 -14.85 0z"/>
   <path id="source_environment_24dp_E8EAED_FILL0_wght400_GRAD0_opsz24.svg_12" class="fil0" d="M1678.71 1445.59l0 -120.68 37.13 -27.85 37.13 27.85 0 16.71 74.26 0 0 103.97 -148.53 -0zm14.85 -14.85l14.85 0 0 -14.85 -14.85 0 0 14.85zm0 -29.71l14.85 0 0 -14.85 -14.85 0 0 14.85 0 -0zm0 -29.7l14.85 0 0 -14.85 -14.85 0 0 14.85zm0 -29.7l14.85 0 0 -14.85 -14.85 0 0 14.85zm29.71 0l14.85 0 0 -14.85 -14.85 0 0 14.85zm0 89.12l89.12 0 0 -74.27 -89.12 0 0 74.26 0 0zm44.56 -44.56l0 -14.85 29.7 0 0 14.85 -29.7 0zm0 29.7l0 -14.85 29.7 0 0 14.85 -29.7 0zm-29.71 -29.7l0 -14.85 14.85 0 0 14.85 -14.85 0zm0 29.7l0 -14.85 14.85 0 0 14.85 -14.85 0z"/>
   <path id="source_environment_24dp_E8EAED_FILL0_wght400_GRAD0_opsz24.svg_13" class="fil0" d="M808.44 1013.23l0 -120.68 37.13 -27.85 37.13 27.85 0 16.71 74.26 0 0 103.97 -148.53 -0zm14.85 -14.85l14.85 0 0 -14.85 -14.85 0 0 14.85zm0 -29.71l14.85 0 0 -14.85 -14.85 0 0 14.85 0 -0zm0 -29.7l14.85 0 0 -14.85 -14.85 0 0 14.85zm0 -29.7l14.85 0 0 -14.85 -14.85 0 0 14.85zm29.71 0l14.85 0 0 -14.85 -14.85 0 0 14.85zm0 89.12l89.12 0 0 -74.26 -89.12 -0 0 74.26 0 0zm44.56 -44.56l0 -14.85 29.7 0 0 14.85 -29.7 0zm0 29.7l0 -14.85 29.7 0 0 14.85 -29.7 0zm-29.71 -29.7l0 -14.85 14.85 0 0 14.85 -14.85 0zm0 29.7l0 -14.85 14.85 0 0 14.85 -14.85 0z"/>
   <path id="emoji_transportation_24dp_E8EAED_FILL0_wght400_GRAD0_opsz24.svg" class="fil0" d="M3000.37 143.71l0 -42.33 10.4 -29.7c0.62,-1.37 1.52,-2.51 2.69,-3.44 1.18,-0.93 2.63,-1.39 4.36,-1.39l54.22 0c1.73,0 3.22,0.46 4.45,1.39 1.24,0.93 2.11,2.07 2.6,3.43l10.4 29.71 0 42.33c0,1.36 -0.46,2.51 -1.39,3.43 -0.93,0.93 -2.07,1.39 -3.43,1.39l-5.2 0c-1.36,0 -2.5,-0.46 -3.43,-1.39 -0.93,-0.93 -1.39,-2.07 -1.39,-3.43l0 -6.31 -59.42 0 0 6.31c0,1.36 -0.46,2.51 -1.39,3.43 -0.93,0.93 -2.07,1.39 -3.44,1.39l-5.2 0c-1.36,0 -2.5,-0.46 -3.43,-1.39 -0.93,-0.93 -1.39,-2.07 -1.39,-3.43zm14.85 -50.87l59.42 0 -5.2 -14.85 -49.02 0 -5.2 14.85zm-3.71 11.14l0 22.28 0 -22.28 0 0zm11.14 18.57c2.1,0 3.87,-0.71 5.29,-2.14 1.42,-1.42 2.13,-3.19 2.13,-5.29 0,-2.1 -0.71,-3.87 -2.13,-5.29 -1.43,-1.43 -3.19,-2.14 -5.29,-2.14 -2.11,0 -3.87,0.71 -5.29,2.14 -1.43,1.42 -2.14,3.19 -2.14,5.29 0,2.11 0.71,3.87 2.14,5.29 1.42,1.43 3.19,2.14 5.29,2.14zm44.56 0c2.11,0 3.87,-0.71 5.29,-2.14 1.43,-1.42 2.14,-3.19 2.14,-5.29 0,-2.1 -0.71,-3.87 -2.14,-5.29 -1.42,-1.43 -3.19,-2.14 -5.29,-2.14 -2.11,0 -3.87,0.71 -5.29,2.14 -1.42,1.42 -2.13,3.19 -2.13,5.29 0,2.11 0.71,3.87 2.13,5.29 1.43,1.43 3.19,2.14 5.29,2.14zm-96.55 -33.42l0 -14.85 14.85 0 0 14.85 -14.85 0zm37.13 -44.56l0 -14.85 14.85 0 0 14.85 -14.85 0zm-37.13 74.27l0 -14.85 14.85 0 0 14.85 -14.85 0zm0 29.7l0 -14.85 14.85 0 0 14.85 -14.85 -0zm-29.71 0l0 -103.98 37.13 0 0 -44.56 74.27 0 0 51.99 -14.85 -0 0 -37.13 -44.56 0 0 44.56 -37.13 0 0 89.12 -14.85 0zm70.56 -22.28l66.84 0 0 -22.28 -66.84 0 0 22.28 0 0z"/>
   <path id="emoji_transportation_24dp_E8EAED_FILL0_wght400_GRAD0_opsz24.svg_14" class="fil0" d="M1321.66 1440.76l0 -42.33 10.4 -29.71c0.62,-1.36 1.52,-2.51 2.7,-3.44 1.17,-0.93 2.63,-1.39 4.36,-1.39l54.22 0c1.73,0 3.22,0.47 4.45,1.39 1.24,0.93 2.11,2.07 2.6,3.44l10.4 29.7 0 42.33c0,1.36 -0.46,2.51 -1.39,3.44 -0.93,0.93 -2.07,1.39 -3.43,1.39l-5.2 0c-1.36,0 -2.51,-0.46 -3.43,-1.39 -0.93,-0.93 -1.39,-2.07 -1.39,-3.43l0 -6.31 -59.42 0 0 6.31c0,1.36 -0.46,2.51 -1.39,3.43 -0.93,0.93 -2.07,1.39 -3.44,1.39l-5.2 0c-1.36,0 -2.51,-0.46 -3.44,-1.39 -0.93,-0.93 -1.39,-2.07 -1.39,-3.43zm14.85 -50.87l59.42 0 -5.2 -14.85 -49.02 0 -5.2 14.85zm-3.71 11.14l0 22.28 0 -22.28 0 0zm11.14 18.57c2.11,0 3.87,-0.71 5.29,-2.13 1.42,-1.43 2.13,-3.19 2.13,-5.29 0,-2.11 -0.71,-3.87 -2.13,-5.29 -1.43,-1.43 -3.19,-2.14 -5.29,-2.14 -2.11,0 -3.87,0.71 -5.29,2.14 -1.43,1.42 -2.14,3.19 -2.14,5.29 0,2.11 0.71,3.87 2.14,5.29 1.42,1.42 3.19,2.13 5.29,2.13zm44.56 0c2.11,0 3.87,-0.71 5.29,-2.13 1.43,-1.43 2.14,-3.19 2.14,-5.29 0,-2.11 -0.71,-3.87 -2.14,-5.29 -1.42,-1.43 -3.19,-2.14 -5.29,-2.14 -2.1,0 -3.87,0.71 -5.29,2.14 -1.42,1.42 -2.13,3.19 -2.13,5.29 0,2.11 0.71,3.87 2.13,5.29 1.43,1.42 3.19,2.13 5.29,2.13zm-96.55 -33.42l0 -14.85 14.85 0 0 14.85 -14.85 0zm37.13 -44.56l0 -14.85 14.85 0 0 14.85 -14.85 0zm-37.13 74.27l0 -14.85 14.85 0 0 14.85 -14.85 0zm0 29.7l0 -14.85 14.85 0 0 14.85 -14.85 -0zm-29.71 0l0 -103.97 37.13 0 0 -44.56 74.27 0 0 51.99 -14.85 -0 0 -37.13 -44.56 0 0 44.56 -37.13 0 0 89.12 -14.85 0zm70.56 -22.28l66.84 0 0 -22.28 -66.84 0 0 22.28 0 0z"/>
   <path id="emoji_transportation_24dp_E8EAED_FILL0_wght400_GRAD0_opsz24.svg_15" class="fil0" d="M496.72 1008.41l0 -42.33 10.4 -29.7c0.62,-1.37 1.52,-2.51 2.69,-3.44 1.18,-0.93 2.63,-1.39 4.36,-1.39l54.22 0c1.73,0 3.22,0.46 4.46,1.39 1.24,0.93 2.11,2.07 2.6,3.44l10.4 29.7 0 42.33c0,1.36 -0.46,2.51 -1.39,3.44 -0.93,0.93 -2.07,1.39 -3.43,1.39l-5.2 0c-1.36,0 -2.5,-0.46 -3.43,-1.39 -0.93,-0.93 -1.39,-2.07 -1.39,-3.43l0 -6.31 -59.42 0 0 6.31c0,1.36 -0.46,2.51 -1.39,3.43 -0.93,0.93 -2.07,1.39 -3.43,1.39l-5.2 0c-1.36,0 -2.5,-0.46 -3.43,-1.39 -0.93,-0.93 -1.39,-2.07 -1.39,-3.43zm14.85 -50.87l59.42 0 -5.2 -14.85 -49.02 0 -5.2 14.85zm-3.71 11.14l0 22.28 0 -22.28 0 0zm11.14 18.57c2.1,0 3.87,-0.71 5.29,-2.14 1.42,-1.42 2.13,-3.19 2.13,-5.29 0,-2.11 -0.71,-3.87 -2.13,-5.29 -1.43,-1.42 -3.19,-2.13 -5.29,-2.13 -2.11,0 -3.87,0.71 -5.29,2.13 -1.43,1.43 -2.14,3.19 -2.14,5.29 0,2.11 0.71,3.87 2.14,5.29 1.42,1.43 3.19,2.14 5.29,2.14zm44.56 0c2.11,0 3.87,-0.71 5.29,-2.14 1.43,-1.42 2.14,-3.19 2.14,-5.29 0,-2.11 -0.71,-3.87 -2.14,-5.29 -1.42,-1.42 -3.19,-2.13 -5.29,-2.13 -2.11,0 -3.87,0.71 -5.29,2.13 -1.42,1.43 -2.13,3.19 -2.13,5.29 0,2.11 0.71,3.87 2.13,5.29 1.43,1.43 3.19,2.14 5.29,2.14zm-96.55 -33.42l0 -14.85 14.86 0 0 14.85 -14.86 0zm37.13 -44.56l0 -14.85 14.86 0 0 14.85 -14.86 0zm-37.13 74.26l0 -14.85 14.86 0 0 14.85 -14.86 0zm0 29.71l0 -14.85 14.86 0 0 14.85 -14.86 0zm-29.7 0l0 -103.98 37.13 0 0 -44.56 74.27 0 0 51.99 -14.85 0 0 -37.13 -44.56 0 0 44.56 -37.14 0 0 89.12 -14.85 0zm70.56 -22.28l66.84 0 0 -22.28 -66.84 0 0 22.28 0 0z"/>
   <path id="cabin_24dp_E8EAED_FILL0_wght400_GRAD0_opsz24.svg" class="fil0" d="M431.75 133.69l89.13 0 0 -14.85 -89.13 0 0 14.85zm0 -29.71l89.13 0 0 -14.85 -89.13 0 0 14.85 0 -0zm0 -29.71l89.13 0 0 -6.68 -10.77 -8.17 -67.59 -0 -10.77 8.17 0 6.69 0 0zm30.08 -29.7l28.96 0 -14.48 -10.96 -14.48 10.96zm-44.94 103.97l0 -69.63 -13.37 10.21 -8.91 -11.88 22.28 -17.08 0 -23.02 14.85 0 0 11.7 44.56 -33.98 81.7 62.39 -8.91 11.7 -13.37 -10.03 0 69.63 -118.83 0zm0 -118.83c0,-6.19 2.17,-11.45 6.5,-15.78 4.33,-4.33 9.59,-6.5 15.78,-6.5 2.11,0 3.87,-0.71 5.29,-2.14 1.43,-1.42 2.14,-3.19 2.14,-5.29l14.85 0c0,6.19 -2.17,11.45 -6.5,15.78 -4.33,4.33 -9.59,6.5 -15.78,6.5 -2.11,0 -3.87,0.71 -5.29,2.14 -1.42,1.42 -2.14,3.19 -2.14,5.29l-14.85 0z"/>
   <path id="cabin_24dp_E8EAED_FILL0_wght400_GRAD0_opsz24.svg_16" class="fil0" d="M2110.46 998.39l89.13 0 0 -14.86 -89.13 0 0 14.86zm0 -29.71l89.13 0 0 -14.85 -89.13 0 0 14.85 0 -0zm0 -29.7l89.13 0 0 -6.69 -10.77 -8.17 -67.59 -0 -10.77 8.17 0 6.68 0 0zm30.08 -29.7l28.96 0 -14.48 -10.96 -14.48 10.96zm-44.94 103.97l0 -69.63 -13.37 10.21 -8.91 -11.88 22.28 -17.08 0 -23.02 14.85 0 0 11.7 44.56 -33.98 81.7 62.39 -8.91 11.7 -13.37 -10.02 0 69.63 -118.83 0zm0 -118.83c0,-6.19 2.17,-11.45 6.5,-15.78 4.33,-4.33 9.59,-6.5 15.78,-6.5 2.11,0 3.87,-0.72 5.29,-2.14 1.42,-1.43 2.13,-3.19 2.13,-5.29l14.85 0c0,6.19 -2.17,11.45 -6.5,15.78 -4.33,4.33 -9.59,6.5 -15.78,6.5 -2.11,0 -3.87,0.71 -5.29,2.13 -1.43,1.43 -2.14,3.19 -2.14,5.29l-14.85 0z"/>
   <path id="cabin_24dp_E8EAED_FILL0_wght400_GRAD0_opsz24.svg_17" class="fil0" d="M1268.85 566.04l89.12 0 0 -14.85 -89.12 0 0 14.85zm0 -29.71l89.12 0 0 -14.85 -89.12 0 0 14.85 0 0zm0 -29.71l89.12 0 0 -6.68 -10.77 -8.17 -67.59 -0 -10.77 8.17 0 6.69 0 0zm30.08 -29.7l28.96 0 -14.48 -10.96 -14.48 10.96zm-44.93 103.97l0 -69.63 -13.37 10.21 -8.91 -11.88 22.28 -17.08 0 -23.02 14.85 0 0 11.7 44.56 -33.98 81.69 62.39 -8.91 11.7 -13.37 -10.03 0 69.63 -118.83 0zm0 -118.83c0,-6.19 2.17,-11.45 6.5,-15.78 4.33,-4.33 9.59,-6.5 15.78,-6.5 2.11,0 3.87,-0.71 5.29,-2.14 1.43,-1.42 2.14,-3.19 2.14,-5.29l14.85 0c0,6.19 -2.16,11.45 -6.5,15.78 -4.33,4.33 -9.59,6.5 -15.78,6.5 -2.1,0 -3.87,0.71 -5.29,2.14 -1.43,1.42 -2.14,3.19 -2.14,5.29l-14.85 0z"/>
   <path id="cabin_24dp_E8EAED_FILL0_wght400_GRAD0_opsz24.svg_18" class="fil0" d="M2947.56 1430.74l89.12 0 0 -14.85 -89.12 0 0 14.85zm0 -29.71l89.12 0 0 -14.85 -89.12 0 0 14.85 0 -0zm0 -29.7l89.12 0 0 -6.69 -10.77 -8.17 -67.59 -0 -10.77 8.17 0 6.69 0 0zm30.08 -29.71l28.96 0 -14.48 -10.96 -14.48 10.96zm-44.93 103.98l0 -69.63 -13.37 10.21 -8.91 -11.88 22.28 -17.08 0 -23.02 14.85 0 0 11.7 44.56 -33.98 81.7 62.39 -8.91 11.7 -13.37 -10.03 0 69.63 -118.83 0zm0 -118.83c0,-6.19 2.17,-11.45 6.5,-15.78 4.33,-4.33 9.59,-6.5 15.78,-6.5 2.11,0 3.87,-0.71 5.29,-2.13 1.43,-1.43 2.14,-3.19 2.14,-5.29l14.85 0c0,6.19 -2.16,11.45 -6.5,15.78 -4.33,4.33 -9.59,6.5 -15.78,6.5 -2.1,0 -3.87,0.71 -5.29,2.13 -1.42,1.43 -2.13,3.19 -2.13,5.29l-14.85 0z"/>
   <path id="food_bank_24dp_E8EAED_FILL0_wght400_GRAD0_opsz24.svg" class="fil0" d="M49.51 123.78l8.25 0 0 -33c3.44,0 6.37,-1.2 8.77,-3.61 2.41,-2.41 3.61,-5.33 3.61,-8.77l0 -24.76 -8.25 0 0 24.76 -4.13 0 0 -24.76 -8.25 0 0 24.76 -4.13 0 0 -24.76 -8.25 0 0 24.76c0,3.44 1.2,6.36 3.61,8.77 2.41,2.41 5.33,3.61 8.76,3.61l0 33zm33.01 0l8.25 0 0 -70.14c-4.54,0 -8.43,1.62 -11.66,4.85 -3.23,3.23 -4.85,7.12 -4.85,11.65l0 24.76 8.25 0 0 28.88zm-82.52 24.76l0 -99.02 66.02 -49.51 66.02 49.51 0 99.02 -132.04 0zm16.51 -16.5l99.02 0 0 -74.27 -49.51 -37.13 -49.51 37.13 0 74.27zm49.51 -55.7z"/>
   <path id="food_bank_24dp_E8EAED_FILL0_wght400_GRAD0_opsz24.svg_19" class="fil0" d="M1728.22 988.48l8.25 0 0 -33.01c3.44,0 6.36,-1.2 8.77,-3.61 2.41,-2.41 3.61,-5.33 3.61,-8.77l0 -24.76 -8.25 0 0 24.75 -4.13 0 0 -24.76 -8.25 0 0 24.75 -4.13 0 0 -24.76 -8.25 0 0 24.75c0,3.44 1.2,6.36 3.61,8.77 2.41,2.41 5.33,3.61 8.77,3.61l0 33.01zm33.01 0l8.25 0 0 -70.14c-4.54,0 -8.43,1.62 -11.66,4.85 -3.23,3.23 -4.85,7.12 -4.85,11.66l0 24.75 8.25 0 0 28.88zm-82.52 24.76l0 -99.02 66.02 -49.51 66.02 49.51 0 99.02 -132.04 0zm16.5 -16.5l99.02 0 0 -74.27 -49.51 -37.13 -49.51 37.13 0 74.27zm49.51 -55.7z"/>
   <path id="food_bank_24dp_E8EAED_FILL0_wght400_GRAD0_opsz24.svg_20" class="fil0" d="M886.61 556.13l8.25 0 0 -33c3.44,0 6.36,-1.2 8.77,-3.61 2.41,-2.41 3.61,-5.33 3.61,-8.77l0 -24.76 -8.25 0 0 24.76 -4.13 0 0 -24.76 -8.25 0 0 24.76 -4.13 0 0 -24.76 -8.25 0 0 24.76c0,3.44 1.2,6.36 3.61,8.77 2.41,2.41 5.33,3.61 8.77,3.61l0 33zm33.01 0l8.25 0 0 -70.14c-4.54,0 -8.42,1.62 -11.66,4.85 -3.23,3.23 -4.85,7.12 -4.85,11.65l0 24.76 8.25 0 0 28.88zm-82.52 24.76l0 -99.02 66.02 -49.51 66.02 49.51 0 99.02 -132.03 0zm16.5 -16.5l99.02 0 0 -74.27 -49.51 -37.13 -49.51 37.13 0 74.27zm49.51 -55.7z"/>
   <path id="food_bank_24dp_E8EAED_FILL0_wght400_GRAD0_opsz24.svg_21" class="fil0" d="M2565.32 1420.84l8.25 0 0 -33.01c3.44,0 6.36,-1.2 8.77,-3.61 2.41,-2.41 3.61,-5.33 3.61,-8.76l0 -24.76 -8.25 0 0 24.76 -4.13 0 0 -24.76 -8.25 0 0 24.76 -4.13 0 0 -24.76 -8.25 0 0 24.76c0,3.44 1.2,6.36 3.61,8.77 2.41,2.41 5.33,3.61 8.77,3.61l0 33.01zm33.01 0l8.25 0 0 -70.15c-4.54,0 -8.42,1.62 -11.66,4.85 -3.23,3.23 -4.85,7.12 -4.85,11.66l0 24.75 8.25 0 0 28.88zm-82.52 24.75l0 -99.02 66.02 -49.51 66.02 49.51 0 99.02 -132.03 0zm16.5 -16.5l99.02 0 0 -74.27 -49.51 -37.13 -49.51 37.13 0 74.27zm49.51 -55.7z"/>
   <path id="house_24dp_E8EAED_FILL0_wght400_GRAD0_opsz24.svg" class="fil0" d="M1258.85 148.54l0 -79.94 -24.46 18.78 -10.48 -13.98 96.11 -73.39 34.95 26.65 0 -17.91 26.21 0 0 38 34.95 26.65 -10.48 13.98 -24.46 -18.79 0 79.94 -52.43 0.01 0 -52.43 -17.47 0 0 52.43 -52.43 0zm17.48 -17.48l17.47 0 0 -52.43 52.43 0 0 52.43 17.47 0 0 -75.8 -43.69 -33.2 -43.69 33.2 0 75.8zm26.21 -69.68l34.95 0c0,-4.66 -1.75,-8.48 -5.24,-11.46 -3.5,-2.99 -7.57,-4.48 -12.23,-4.48 -4.66,0 -8.74,1.49 -12.23,4.48 -3.49,2.98 -5.24,6.8 -5.24,11.46zm-8.74 69.68l0 -52.43 52.43 0 0 52.43 0 -52.43 -52.43 0 0 52.43z"/>
   <path id="house_24dp_E8EAED_FILL0_wght400_GRAD0_opsz24.svg_22" class="fil0" d="M2937.56 1013.24l0 -79.95 -24.46 18.78 -10.49 -13.98 96.11 -73.39 34.95 26.65 0 -17.91 26.21 -0 0 38.01 34.95 26.65 -10.48 13.98 -24.46 -18.78 0 79.94 -52.43 0.01 0 -52.43 -17.48 0 0 52.43 -52.43 0zm17.48 -17.48l17.48 0 0 -52.43 52.43 0 0 52.43 17.47 0 0 -75.8 -43.69 -33.2 -43.69 33.2 0 75.8zm26.21 -69.69l34.95 0c0,-4.66 -1.75,-8.48 -5.24,-11.46 -3.5,-2.98 -7.57,-4.48 -12.23,-4.48 -4.66,0 -8.74,1.49 -12.23,4.48 -3.5,2.98 -5.24,6.81 -5.24,11.46zm-8.74 69.69l0 -52.43 52.43 0 0 52.43 0 -52.43 -52.43 0 0 52.43z"/>
   <path id="house_24dp_E8EAED_FILL0_wght400_GRAD0_opsz24.svg_23" class="fil0" d="M2116.96 580.88l0 -79.94 -24.46 18.78 -10.49 -13.98 96.11 -73.39 34.95 26.65 0 -17.91 26.21 0 0 38 34.95 26.65 -10.48 13.98 -24.46 -18.79 0 79.94 -52.43 0.01 0 -52.43 -17.48 0 0 52.43 -52.43 0zm17.48 -17.48l17.48 0 0 -52.43 52.43 0 0 52.43 17.47 0 0 -75.8 -43.69 -33.2 -43.69 33.2 0 75.8zm26.21 -69.68l34.95 0c0,-4.66 -1.75,-8.48 -5.24,-11.47 -3.5,-2.98 -7.57,-4.48 -12.23,-4.48 -4.66,0 -8.74,1.49 -12.23,4.48 -3.5,2.99 -5.24,6.81 -5.24,11.47zm-8.74 69.68l0 -52.43 52.43 0 0 52.43 0 -52.43 -52.43 0 0 52.43z"/>
   <path id="location_city_24dp_E8EAED_FILL0_wght400_GRAD0_opsz24.svg" class="fil0" d="M820.59 148.54l0 -109.45 46.91 0 0 -15.64 23.46 -23.45 23.45 23.45 0 46.91 46.9 0 0 78.17 -140.72 0zm15.63 -15.63l15.64 0 0 -15.63 -15.64 0 0 15.63zm0 -31.27l15.64 0 0 -15.64 -15.64 0 0 15.64 0 -0zm0 -31.27l15.64 0 0 -15.64 -15.64 0 0 15.64zm46.91 62.54l15.64 0 0 -15.63 -15.64 0 0 15.63zm0 -31.27l15.64 0 0 -15.64 -15.64 0 0 15.64 0 -0zm0 -31.27l15.64 0 0 -15.64 -15.64 0 0 15.64zm0 -31.27l15.64 0 0 -15.64 -15.64 0 0 15.64zm46.91 93.81l15.64 0 0 -15.63 -15.64 0 0 15.63zm0 -31.27l15.64 0 0 -15.64 -15.64 0 0 15.64 0 -0z"/>
   <path id="location_city_24dp_E8EAED_FILL0_wght400_GRAD0_opsz24.svg_24" class="fil0" d="M2499.31 1013.24l0 -109.45 46.91 0 0 -15.64 23.46 -23.45 23.45 23.45 0 46.91 46.9 0 0 78.18 -140.72 0zm15.63 -15.63l15.64 0 0 -15.64 -15.64 0 0 15.64zm0 -31.27l15.64 0 0 -15.64 -15.64 0 0 15.63 0 0zm0 -31.27l15.64 0 0 -15.64 -15.64 0 0 15.64zm46.91 62.54l15.64 0 0 -15.64 -15.64 0 0 15.64zm0 -31.27l15.64 0 0 -15.64 -15.64 0 0 15.63 0 0zm0 -31.27l15.64 0 0 -15.64 -15.64 0 0 15.64zm0 -31.27l15.64 0 0 -15.64 -15.64 0 0 15.64zm46.91 93.81l15.64 0 0 -15.64 -15.64 0 0 15.64zm0 -31.27l15.64 0 0 -15.64 -15.64 0 0 15.63 0 0z"/>
   <path id="location_city_24dp_E8EAED_FILL0_wght400_GRAD0_opsz24.svg_25" class="fil0" d="M1678.71 580.88l0 -109.45 46.91 0 0 -15.64 23.46 -23.45 23.45 23.45 0 46.91 46.9 0 0 78.18 -140.72 0zm15.63 -15.63l15.64 0 0 -15.63 -15.64 0 0 15.63zm0 -31.27l15.64 0 0 -15.64 -15.64 0 0 15.64 0 -0zm0 -31.27l15.64 0 0 -15.63 -15.64 0 0 15.63zm46.91 62.54l15.64 0 0 -15.63 -15.64 0 0 15.63zm0 -31.27l15.64 0 0 -15.64 -15.64 0 0 15.64 0 -0zm0 -31.27l15.64 0 0 -15.63 -15.64 0 0 15.63zm0 -31.27l15.64 0 0 -15.64 -15.64 0 0 15.64zm46.91 93.81l15.64 0 0 -15.63 -15.64 0 0 15.63zm0 -31.27l15.64 0 0 -15.64 -15.64 0 0 15.64 0 -0z"/>
   <path id="domain_24dp_E8EAED_FILL0_wght400_GRAD0_opsz24.svg" class="fil0" d="M2503.65 148.54l0 -148.54 82.52 0 0 33.01 82.52 0 0 115.52 -165.03 0zm16.5 -16.5l16.5 0 0 -16.5 -16.5 0 0 16.5zm0 -33.01l16.5 0 0 -16.5 -16.5 0 0 16.5 0 -0zm0 -33.01l16.5 0 0 -16.5 -16.5 0 0 16.5zm0 -33l16.5 0 0 -16.5 -16.5 0 0 16.5zm33.01 99.02l16.5 0 0 -16.5 -16.5 0 0 16.5zm0 -33.01l16.5 0 0 -16.5 -16.5 0 0 16.5 0 -0zm0 -33.01l16.5 0 0 -16.5 -16.5 0 0 16.5zm0 -33l16.5 0 0 -16.5 -16.5 0 0 16.5zm33 99.02l66.02 0 0 -82.52 -66.02 -0 0 16.5 16.5 0 0 16.51 -16.5 0 0 16.5 16.5 -0 0 16.5 -16.5 0 0 16.5zm33.01 -49.51l0 -16.51 16.5 0 0 16.51 -16.5 0zm0 33l0 -16.5 16.5 0 0 16.5 -16.5 0z"/>
   <path id="domain_24dp_E8EAED_FILL0_wght400_GRAD0_opsz24.svg_26" class="fil0" d="M824.94 1445.59l0 -148.53 82.52 0 0 33 82.52 0 0 115.53 -165.04 -0zm16.5 -16.5l16.5 0 0 -16.51 -16.5 0 0 16.51zm0 -33.01l16.5 0 0 -16.5 -16.5 0 0 16.5 0 -0zm0 -33l16.5 0 0 -16.5 -16.5 0 0 16.5zm0 -33.01l16.5 0 0 -16.5 -16.5 0 0 16.5zm33.01 99.02l16.5 0 0 -16.51 -16.5 0 0 16.51zm0 -33.01l16.5 0 0 -16.5 -16.5 0 0 16.5 0 -0zm0 -33l16.5 0 0 -16.5 -16.5 0 0 16.5zm0 -33.01l16.5 0 0 -16.5 -16.5 0 0 16.5zm33 99.02l66.02 0 0 -82.52 -66.02 0 0 16.5 16.51 0 0 16.5 -16.51 0 0 16.5 16.51 -0 0 16.5 -16.51 0 0 16.51zm33.01 -49.51l0 -16.5 16.5 0 0 16.5 -16.5 0zm0 33l0 -16.5 16.5 0 0 16.5 -16.5 0z"/>
   <path id="domain_24dp_E8EAED_FILL0_wght400_GRAD0_opsz24.svg_27" class="fil0" d="M0 1013.23l0 -148.53 82.52 0 0 33 82.52 0 0 115.53 -165.03 -0zm16.5 -16.5l16.5 0 0 -16.5 -16.5 0 0 16.5zm0 -33.01l16.5 0 0 -16.51 -16.5 0 0 16.5 0 0zm0 -33.01l16.5 0 0 -16.5 -16.5 0 0 16.5zm0 -33.01l16.5 0 0 -16.5 -16.5 0 0 16.5zm33.01 99.02l16.5 0 0 -16.5 -16.5 0 0 16.5zm0 -33.01l16.5 0 0 -16.51 -16.5 0 0 16.5 0 0zm0 -33.01l16.5 0 0 -16.5 -16.5 0 0 16.5zm0 -33.01l16.5 0 0 -16.5 -16.5 0 0 16.5zm33.01 99.02l66.02 0 0 -82.52 -66.02 -0 0 16.5 16.5 0 0 16.5 -16.5 0 0 16.5 16.5 0 0 16.5 -16.5 0 0 16.5zm33.01 -49.51l0 -16.5 16.5 0 0 16.5 -16.5 0zm0 33.01l0 -16.5 16.5 0 0 16.5 -16.5 0z"/>
   <path id="cottage_24dp_E8EAED_FILL0_wght400_GRAD0_opsz24.svg" class="fil0" d="M433.4 580.88l0 -69.63 -13.37 10.21 -8.91 -11.88 22.28 -17.08 0 -23.02 14.85 0 0 11.7 44.56 -33.98 81.69 62.39 -8.91 11.7 -13.37 -10.03 0 69.63 -118.83 0zm14.85 -14.85l37.13 0 0 -29.7 14.85 -0 0 29.7 37.13 0 0 -66.1 -44.56 -33.98 -44.56 33.98 0 66.1zm-14.85 -103.98c0,-6.19 2.17,-11.45 6.5,-15.78 4.33,-4.33 9.59,-6.5 15.78,-6.5 2.11,0 3.87,-0.71 5.29,-2.14 1.43,-1.42 2.14,-3.19 2.14,-5.29l14.85 0c0,6.19 -2.16,11.45 -6.5,15.78 -4.33,4.33 -9.59,6.5 -15.78,6.5 -2.1,0 -3.87,0.71 -5.29,2.14 -1.42,1.42 -2.13,3.19 -2.13,5.29l-14.85 0zm14.85 103.98l89.12 0 -89.12 0z"/>
   <path id="cottage_24dp_E8EAED_FILL0_wght400_GRAD0_opsz24.svg_28" class="fil0" d="M2112.11 1445.59l0 -69.63 -13.37 10.21 -8.91 -11.88 22.28 -17.08 0 -23.02 14.85 0 0 11.7 44.56 -33.98 81.7 62.39 -8.91 11.7 -13.37 -10.03 0 69.63 -118.83 0zm14.85 -14.85l37.13 0 0 -29.7 14.85 -0 0 29.71 37.13 0 0 -66.1 -44.56 -33.98 -44.56 33.98 0 66.1zm-14.85 -103.98c0,-6.19 2.17,-11.45 6.5,-15.78 4.33,-4.33 9.59,-6.5 15.78,-6.5 2.11,0 3.87,-0.71 5.29,-2.13 1.43,-1.43 2.14,-3.19 2.14,-5.29l14.85 0c0,6.19 -2.17,11.45 -6.5,15.78 -4.33,4.33 -9.59,6.5 -15.78,6.5 -2.11,0 -3.87,0.71 -5.29,2.13 -1.42,1.43 -2.13,3.19 -2.13,5.29l-14.85 0zm14.85 103.98l89.12 0 -89.12 0z"/>
   <path id="cottage_24dp_E8EAED_FILL0_wght400_GRAD0_opsz24.svg_29" class="fil0" d="M1241.84 1013.24l0 -69.63 -13.37 10.21 -8.91 -11.88 22.28 -17.08 0 -23.02 14.85 0 0 11.7 44.56 -33.98 81.69 62.39 -8.91 11.7 -13.37 -10.02 0 69.63 -118.83 0zm14.85 -14.85l37.13 0 0 -29.71 14.85 0 0 29.7 37.13 0 0 -66.1 -44.56 -33.98 -44.56 33.98 0 66.1zm-14.85 -103.98c0,-6.19 2.17,-11.45 6.5,-15.78 4.33,-4.33 9.59,-6.5 15.78,-6.5 2.11,0 3.87,-0.71 5.29,-2.14 1.43,-1.42 2.14,-3.19 2.14,-5.29l14.85 0c0,6.19 -2.16,11.45 -6.5,15.78 -4.33,4.33 -9.59,6.5 -15.78,6.5 -2.1,0 -3.87,0.71 -5.29,2.14 -1.42,1.42 -2.13,3.19 -2.13,5.29l-14.85 0zm14.85 103.98l89.12 0 -89.12 0z"/>
   <path id="real_estate_agent_24dp_FILL0_wght400_GRAD0_opsz24.svg" class="fil0" d="M1806.03 88.42l0 -45.98 -35.37 -24.76 -35.37 24.76 0 10.61 -14.15 -0 0 -17.68 49.51 -35.37 49.51 35.37 0 53.05 -14.15 0zm-35.37 -70.73zm3.54 28.29l7.07 0 0 -7.07 -7.07 0 0 7.07zm-14.15 0l7.07 0 0 -7.07 -7.07 0 0 7.07zm14.15 14.15l7.07 0 0 -7.07 -7.07 0 0 7.07zm-14.15 0l7.07 0 0 -7.07 -7.07 0 0 7.07zm-38.9 60.12l49.16 13.44 42.08 -13.08c-0.59,-1.06 -1.44,-1.97 -2.56,-2.74 -1.12,-0.77 -2.39,-1.15 -3.8,-1.15l-35.72 0c-3.18,0 -5.72,-0.12 -7.6,-0.35 -1.89,-0.24 -3.83,-0.71 -5.84,-1.41l-16.44 -5.48 3.89 -13.79 14.32 4.78c2.01,0.59 4.36,1.06 7.08,1.41 2.71,0.35 6.72,0.59 12.02,0.7 0,-1.3 -0.39,-2.53 -1.15,-3.71 -0.77,-1.18 -1.68,-1.94 -2.74,-2.3l-41.38 -15.21 -11.31 0 0 38.9zm-42.44 24.76l0 -77.8 53.75 0c0.83,0 1.65,0.09 2.48,0.26 0.83,0.18 1.59,0.39 2.3,0.62l41.56 15.39c3.89,1.41 7.04,3.89 9.46,7.43 2.42,3.54 3.63,7.43 3.63,11.67l14.15 0c5.89,0 10.91,1.95 15.03,5.84 4.13,3.89 6.19,9.02 6.19,15.38l0 7.07 -56.58 17.68 -49.51 -13.79 0 10.26 -42.44 0zm14.15 -14.15l14.15 0 0 -49.51 -14.15 0 0 49.51z"/>
   <path id="real_estate_agent_24dp_FILL0_wght400_GRAD0_opsz24.svg_30" class="fil0" d="M127.32 1385.47l0 -45.98 -35.37 -24.76 -35.36 24.76 0 10.61 -14.15 0 0 -17.69 49.51 -35.37 49.52 35.37 0 53.05 -14.15 0zm-35.37 -70.73zm3.54 28.3l7.07 0 0 -7.07 -7.07 0 0 7.07zm-14.15 0l7.07 0 0 -7.07 -7.07 0 0 7.07zm14.15 14.14l7.07 0 0 -7.07 -7.07 0 0 7.07zm-14.15 0l7.07 0 0 -7.07 -7.07 0 0 7.07zm-38.9 60.12l49.16 13.44 42.09 -13.09c-0.59,-1.06 -1.45,-1.97 -2.57,-2.74 -1.12,-0.77 -2.39,-1.15 -3.8,-1.15l-35.72 0c-3.18,0 -5.72,-0.12 -7.6,-0.35 -1.89,-0.23 -3.83,-0.7 -5.83,-1.41l-16.45 -5.48 3.89 -13.79 14.33 4.77c2,0.59 4.36,1.06 7.07,1.41 2.71,0.35 6.72,0.59 12.02,0.71 0,-1.3 -0.39,-2.54 -1.15,-3.71 -0.77,-1.18 -1.68,-1.94 -2.74,-2.3l-41.37 -15.21 -11.32 0 0 38.9zm-42.44 24.76l0 -77.8 53.76 0c0.82,0 1.65,0.09 2.47,0.26 0.83,0.18 1.59,0.39 2.3,0.62l41.56 15.39c3.89,1.41 7.04,3.89 9.46,7.43 2.42,3.54 3.63,7.43 3.63,11.67l14.15 0c5.89,0 10.91,1.94 15.03,5.83 4.13,3.89 6.19,9.02 6.19,15.39l0 7.07 -56.59 17.68 -49.51 -13.79 0 10.26 -42.44 0zm14.15 -14.15l14.15 0 0 -49.51 -14.15 0 0 49.51z"/>
   <path id="real_estate_agent_24dp_FILL0_wght400_GRAD0_opsz24.svg_31" class="fil0" d="M2609.31 520.76l0 -45.98 -35.37 -24.76 -35.37 24.76 0 10.61 -14.15 -0 0 -17.68 49.51 -35.37 49.51 35.37 0 53.05 -14.15 0zm-35.37 -70.73zm3.54 28.29l7.07 0 0 -7.07 -7.07 0 0 7.07zm-14.15 0l7.07 0 0 -7.07 -7.07 0 0 7.07zm14.15 14.15l7.07 0 0 -7.07 -7.07 0 0 7.07zm-14.15 0l7.07 0 0 -7.07 -7.07 0 0 7.07zm-38.9 60.12l49.16 13.44 42.08 -13.08c-0.59,-1.06 -1.44,-1.97 -2.56,-2.74 -1.12,-0.77 -2.39,-1.15 -3.8,-1.15l-35.72 0c-3.18,0 -5.72,-0.12 -7.6,-0.35 -1.89,-0.24 -3.83,-0.71 -5.84,-1.41l-16.44 -5.48 3.89 -13.79 14.32 4.78c2.01,0.59 4.36,1.06 7.08,1.41 2.71,0.35 6.72,0.59 12.02,0.7 0,-1.3 -0.39,-2.53 -1.15,-3.71 -0.77,-1.18 -1.68,-1.94 -2.74,-2.3l-41.38 -15.21 -11.31 0 0 38.9zm-42.44 24.76l0 -77.8 53.75 0c0.83,0 1.65,0.09 2.48,0.26 0.83,0.18 1.59,0.39 2.3,0.62l41.56 15.38c3.89,1.41 7.04,3.89 9.46,7.43 2.42,3.54 3.63,7.43 3.63,11.67l14.15 0c5.89,0 10.91,1.95 15.03,5.84 4.13,3.89 6.19,9.02 6.19,15.38l0 7.07 -56.58 17.68 -49.51 -13.79 0 10.26 -42.44 0zm14.15 -14.15l14.15 0 0 -49.51 -14.15 0 0 49.51z"/>
  </g>
 </g>
</svg>
