<?xml version="1.0" encoding="UTF-8"?>
<!DOCTYPE svg PUBLIC "-//W3C//DTD SVG 1.0//EN" "http://www.w3.org/TR/2001/REC-SVG-20010904/DTD/svg10.dtd">
<!-- Creator: CorelDRAW -->
<svg xmlns="http://www.w3.org/2000/svg" xml:space="preserve" width="1.60749in" height="2.37737in" version="1.0" style="shape-rendering:geometricPrecision; text-rendering:geometricPrecision; image-rendering:optimizeQuality; fill-rule:evenodd; clip-rule:evenodd"
viewBox="0 0 1607.49 2377.37"
 xmlns:xlink="http://www.w3.org/1999/xlink"
 xmlns:xodm="http://www.corel.com/coreldraw/odm/2003">
 <defs>
  <style type="text/css">
   <![CDATA[
    .fil0 {fill:#CCCCCC;fill-rule:nonzero}
   ]]>
  </style>
 </defs>
 <g id="Layer_x0020_1">
  <metadata id="CorelCorpID_0Corel-Layer"/>
  <path id="corporate_fare_24dp_E8EAED_FILL0_wght400_GRAD0_opsz24.svg" class="fil0" d="M460.38 719.34l0 -166.67 92.59 0 0 37.04 92.59 0 0 129.63 -185.18 0zm18.52 -18.52l55.56 0 0 -18.52 -55.56 0 0 18.52zm0 -37.04l55.56 0 0 -18.52 -55.56 0 0 18.52 0 -0zm0 -37.04l55.56 0 0 -18.52 -55.56 0 0 18.52zm0 -37.04l55.56 0 0 -18.52 -55.56 0 0 18.52zm74.07 111.11l74.07 0 0 -92.59 -74.07 -0 0 92.59 0 0zm18.52 -55.56l0 -18.52 37.04 0 0 18.52 -37.04 0zm0 37.04l0 -18.52 37.04 0 0 18.52 -37.04 0z"/>
  <path id="corporate_fare_24dp_E8EAED_FILL0_wght400_GRAD0_opsz24.svg_0" class="fil0" d="M1380.22 1824.69l0 -166.66 92.59 0 0 37.04 92.59 0 0 129.63 -185.18 -0zm18.51 -18.52l55.56 0 0 -18.52 -55.56 0 0 18.52zm0 -37.04l55.56 0 0 -18.52 -55.56 0 0 18.52 0 -0zm0 -37.04l55.56 0 0 -18.52 -55.56 0 0 18.52zm0 -37.04l55.56 0 0 -18.52 -55.56 0 0 18.52zm74.07 111.11l74.07 0 0 -92.59 -74.07 -0 0 92.59 0 0zm18.52 -55.56l0 -18.52 37.04 0 0 18.52 -37.04 0zm0 37.04l0 -18.52 37.04 0 0 18.52 -37.04 0z"/>
  <path id="source_environment_24dp_E8EAED_FILL0_wght400_GRAD0_opsz24.svg" class="fil0" d="M-0 1272.02l0 -135.41 41.67 -31.25 41.67 31.25 0 18.75 83.33 0 0 116.66 -166.66 0zm16.67 -16.67l16.67 0 0 -16.67 -16.67 0 0 16.67zm0 -33.33l16.67 0 0 -16.67 -16.67 0 0 16.67 0 -0zm0 -33.33l16.67 0 0 -16.67 -16.67 0 0 16.67zm0 -33.33l16.67 0 0 -16.67 -16.67 0 0 16.67zm33.33 0l16.66 0 0 -16.67 -16.66 0 0 16.67zm0 100l100 0 0 -83.33 -100 0 0 83.33 0 0zm50 -50l0 -16.67 33.33 0 0 16.67 -33.33 0zm0 33.33l0 -16.67 33.33 0 0 16.67 -33.33 0zm-33.34 -33.33l0 -16.67 16.67 0 0 16.67 -16.67 0zm0 33.33l0 -16.67 16.67 0 0 16.67 -16.67 0z"/>
  <path id="source_environment_24dp_E8EAED_FILL0_wght400_GRAD0_opsz24.svg_1" class="fil0" d="M925.63 2377.36l0 -135.41 41.67 -31.25 41.67 31.25 0 18.75 83.33 0 0 116.67 -166.66 -0zm16.67 -16.67l16.67 0 0 -16.67 -16.67 0 0 16.67zm0 -33.33l16.67 0 0 -16.67 -16.67 0 0 16.67 0 -0zm0 -33.33l16.67 0 0 -16.67 -16.67 0 0 16.67zm0 -33.33l16.67 0 0 -16.67 -16.67 0 0 16.67zm33.33 0l16.66 0 0 -16.67 -16.66 0 0 16.67zm0 100l100 0 0 -83.33 -100 0 0 83.33 0 0zm50 -50l0 -16.67 33.33 0 0 16.67 -33.33 0zm0 33.33l0 -16.67 33.33 0 0 16.67 -33.33 0zm-33.34 -33.33l0 -16.67 16.67 0 0 16.67 -16.67 0zm0 33.33l0 -16.67 16.67 0 0 16.67 -16.67 0z"/>
  <path id="emoji_transportation_24dp_E8EAED_FILL0_wght400_GRAD0_opsz24.svg" class="fil0" d="M1482.98 713.93l0 -47.5 11.67 -33.33c0.69,-1.53 1.7,-2.81 3.02,-3.86 1.32,-1.04 2.95,-1.56 4.89,-1.56l60.83 0c1.94,0 3.61,0.52 5,1.56 1.39,1.04 2.36,2.33 2.92,3.85l11.67 33.33 0 47.5c0,1.53 -0.52,2.81 -1.56,3.85 -1.04,1.04 -2.33,1.56 -3.85,1.56l-5.83 0c-1.53,0 -2.81,-0.52 -3.85,-1.56 -1.04,-1.04 -1.56,-2.32 -1.56,-3.85l0 -7.08 -66.67 0 0 7.08c0,1.53 -0.52,2.81 -1.56,3.85 -1.04,1.04 -2.33,1.56 -3.85,1.56l-5.83 0c-1.53,0 -2.81,-0.52 -3.85,-1.56 -1.04,-1.04 -1.56,-2.32 -1.56,-3.85zm16.67 -57.08l66.67 0 -5.83 -16.67 -55 0 -5.83 16.67zm-4.17 12.5l0 25 0 -25 0 0zm12.5 20.83c2.36,0 4.34,-0.8 5.94,-2.4 1.59,-1.59 2.4,-3.57 2.4,-5.94 0,-2.36 -0.8,-4.34 -2.4,-5.94 -1.6,-1.59 -3.58,-2.39 -5.94,-2.39 -2.36,0 -4.34,0.8 -5.94,2.39 -1.6,1.6 -2.4,3.57 -2.4,5.94 0,2.36 0.8,4.34 2.4,5.94 1.59,1.6 3.57,2.4 5.94,2.4zm50 0c2.36,0 4.34,-0.8 5.94,-2.4 1.59,-1.59 2.4,-3.57 2.4,-5.94 0,-2.36 -0.8,-4.34 -2.4,-5.94 -1.6,-1.59 -3.58,-2.39 -5.94,-2.39 -2.36,0 -4.34,0.8 -5.94,2.39 -1.6,1.6 -2.4,3.57 -2.4,5.94 0,2.36 0.8,4.34 2.4,5.94 1.59,1.6 3.57,2.4 5.94,2.4zm-108.33 -37.5l0 -16.67 16.67 0 0 16.67 -16.67 0zm41.67 -50l0 -16.67 16.67 0 0 16.67 -16.67 0zm-41.67 83.33l0 -16.67 16.67 0 0 16.67 -16.67 0zm0 33.33l0 -16.67 16.67 0 0 16.67 -16.67 -0zm-33.33 0l0 -116.67 41.67 0 0 -50 83.33 0 0 58.33 -16.67 0 0 -41.67 -50 0 0 50 -41.67 0 0 100 -16.66 0zm79.17 -25l75 0 0 -25 -75 0 0 25 0 0z"/>
  <path id="emoji_transportation_24dp_E8EAED_FILL0_wght400_GRAD0_opsz24.svg_2" class="fil0" d="M575.86 2371.95l0 -47.5 11.67 -33.33c0.69,-1.53 1.7,-2.81 3.02,-3.86 1.32,-1.04 2.95,-1.56 4.89,-1.56l60.83 0c1.94,0 3.61,0.52 5,1.56 1.39,1.04 2.36,2.33 2.92,3.85l11.67 33.33 0 47.5c0,1.53 -0.52,2.81 -1.56,3.85 -1.04,1.04 -2.33,1.56 -3.85,1.56l-5.83 0c-1.53,0 -2.81,-0.52 -3.85,-1.56 -1.04,-1.04 -1.56,-2.32 -1.56,-3.85l0 -7.08 -66.67 0 0 7.08c0,1.53 -0.52,2.81 -1.56,3.85 -1.04,1.04 -2.33,1.56 -3.85,1.56l-5.83 0c-1.53,0 -2.81,-0.52 -3.85,-1.56 -1.04,-1.04 -1.56,-2.32 -1.56,-3.85zm16.67 -57.08l66.67 0 -5.83 -16.67 -55 0 -5.83 16.67zm-4.17 12.5l0 25 0 -25 0 0zm12.5 20.83c2.36,0 4.34,-0.8 5.94,-2.4 1.59,-1.59 2.4,-3.57 2.4,-5.94 0,-2.36 -0.8,-4.34 -2.4,-5.94 -1.6,-1.59 -3.58,-2.39 -5.94,-2.39 -2.36,0 -4.34,0.8 -5.94,2.39 -1.6,1.6 -2.4,3.57 -2.4,5.94 0,2.36 0.8,4.34 2.4,5.94 1.59,1.6 3.57,2.4 5.94,2.4zm50 0c2.36,0 4.34,-0.8 5.94,-2.4 1.59,-1.59 2.4,-3.57 2.4,-5.94 0,-2.36 -0.8,-4.34 -2.4,-5.94 -1.6,-1.59 -3.58,-2.39 -5.94,-2.39 -2.36,0 -4.34,0.8 -5.94,2.39 -1.6,1.6 -2.4,3.57 -2.4,5.94 0,2.36 0.8,4.34 2.4,5.94 1.59,1.6 3.57,2.4 5.94,2.4zm-108.33 -37.5l0 -16.67 16.67 0 0 16.67 -16.67 0zm41.67 -50l0 -16.67 16.67 0 0 16.67 -16.67 0zm-41.67 83.33l0 -16.67 16.67 0 0 16.67 -16.67 0zm0 33.33l0 -16.67 16.67 0 0 16.67 -16.67 -0zm-33.33 0l0 -116.67 41.67 0 0 -50 83.33 0 0 58.33 -16.67 0 0 -41.67 -50 0 0 50 -41.67 0 0 100 -16.67 0zm79.17 -25l75 0 0 -25 -75 0 0 25 0 0z"/>
  <path id="cabin_24dp_E8EAED_FILL0_wght400_GRAD0_opsz24.svg" class="fil0" d="M502.97 150l100 0 0 -16.67 -100 0 0 16.67zm0 -33.34l100 0 0 -16.67 -100 0 0 16.67 0 -0zm0 -33.33l100 0 0 -7.5 -12.08 -9.17 -75.83 -0 -12.08 9.17 0 7.5 0 0zm33.75 -33.33l32.5 0 -16.25 -12.3 -16.25 12.3zm-50.42 116.67l0 -78.13 -15 11.46 -10 -13.33 25 -19.17 0 -25.83 16.67 0 0 13.12 50 -38.13 91.67 70 -10 13.13 -15 -11.25 0 78.13 -133.33 0zm0 -133.33c0,-6.94 2.43,-12.85 7.29,-17.71 4.86,-4.86 10.77,-7.29 17.71,-7.29 2.36,0 4.34,-0.8 5.94,-2.39 1.59,-1.6 2.39,-3.58 2.39,-5.94l16.67 0c0,6.95 -2.43,12.85 -7.29,17.71 -4.86,4.86 -10.76,7.29 -17.7,7.29 -2.36,0 -4.34,0.8 -5.94,2.4 -1.6,1.6 -2.4,3.58 -2.4,5.94l-16.67 0z"/>
  <path id="cabin_24dp_E8EAED_FILL0_wght400_GRAD0_opsz24.svg_3" class="fil0" d="M1423.72 1255.36l100 0 0 -16.67 -100 0 0 16.67zm0 -33.34l100 0 0 -16.67 -100 0 0 16.67 0 -0zm0 -33.33l100 0 0 -7.5 -12.08 -9.17 -75.83 -0 -12.08 9.17 0 7.5 0 0zm33.75 -33.33l32.5 0 -16.25 -12.3 -16.25 12.3zm-50.42 116.67l0 -78.13 -15 11.46 -10 -13.33 25 -19.17 0 -25.83 16.67 0 0 13.12 50 -38.13 91.67 70 -10 13.13 -15 -11.25 0 78.13 -133.33 0zm0 -133.33c0,-6.94 2.43,-12.85 7.29,-17.71 4.86,-4.86 10.77,-7.29 17.71,-7.29 2.36,0 4.34,-0.8 5.94,-2.39 1.59,-1.6 2.39,-3.58 2.39,-5.94l16.67 0c0,6.94 -2.43,12.85 -7.29,17.7 -4.86,4.86 -10.76,7.29 -17.7,7.29 -2.36,0 -4.34,0.8 -5.94,2.4 -1.6,1.6 -2.4,3.58 -2.4,5.94l-16.67 0z"/>
  <path id="food_bank_24dp_E8EAED_FILL0_wght400_GRAD0_opsz24.svg" class="fil0" d="M74.07 138.89l9.26 0 0 -37.04c3.86,0 7.14,-1.35 9.84,-4.05 2.7,-2.7 4.05,-5.98 4.05,-9.84l0 -27.78 -9.26 0 0 27.78 -4.63 0 0 -27.78 -9.26 0 0 27.78 -4.63 0 0 -27.78 -9.26 0 0 27.78c0,3.86 1.35,7.14 4.05,9.84 2.7,2.7 5.98,4.05 9.84,4.05l0 37.04zm37.04 0l9.26 0 0 -78.7c-5.09,0 -9.45,1.81 -13.08,5.44 -3.63,3.63 -5.44,7.99 -5.44,13.08l0 27.78 9.26 0 0 32.41zm-92.59 27.78l0 -111.11 74.07 -55.56 74.07 55.56 0 111.11 -148.15 0zm18.52 -18.52l111.11 0 0 -83.33 -55.56 -41.67 -55.56 41.67 0 83.33zm55.56 -62.5z"/>
  <path id="food_bank_24dp_E8EAED_FILL0_wght400_GRAD0_opsz24.svg_4" class="fil0" d="M994.83 1244.24l9.26 0 0 -37.04c3.86,0 7.14,-1.35 9.84,-4.05 2.7,-2.7 4.05,-5.98 4.05,-9.84l0 -27.78 -9.26 0 0 27.78 -4.63 0 0 -27.78 -9.26 0 0 27.78 -4.63 0 0 -27.78 -9.26 0 0 27.78c0,3.86 1.35,7.14 4.05,9.84 2.7,2.7 5.98,4.05 9.84,4.05l0 37.04zm37.04 0l9.26 0 0 -78.7c-5.09,0 -9.45,1.81 -13.08,5.44 -3.63,3.63 -5.44,7.99 -5.44,13.08l0 27.78 9.26 0 0 32.41zm-92.59 27.78l0 -111.11 74.07 -55.56 74.07 55.56 0 111.11 -148.15 0zm18.52 -18.52l111.11 0 0 -83.33 -55.56 -41.67 -55.56 41.67 0 83.33zm55.56 -62.5z"/>
  <path id="house_24dp_E8EAED_FILL0_wght400_GRAD0_opsz24.svg" class="fil0" d="M1431.02 166.67l0 -89.7 -27.45 21.08 -11.76 -15.69 107.84 -82.35 39.21 29.9 0 -20.1 29.42 -0 0 42.65 39.21 29.91 -11.76 15.69 -27.45 -21.08 0 89.7 -58.83 0.01 0 -58.82 -19.61 0 0 58.82 -58.83 0zm19.61 -19.61l19.61 0 0 -58.82 58.82 0 0 58.82 19.61 0 0 -85.05 -49.02 -37.26 -49.02 37.26 0 85.05zm29.41 -78.19l39.22 0c0,-5.23 -1.96,-9.52 -5.89,-12.87 -3.92,-3.35 -8.5,-5.02 -13.72,-5.02 -5.23,0 -9.8,1.67 -13.72,5.02 -3.92,3.35 -5.89,7.64 -5.89,12.87zm-9.8 78.19l0 -58.82 58.82 0 0 58.82 0 -58.82 -58.82 0 0 58.82z"/>
  <path id="house_24dp_E8EAED_FILL0_wght400_GRAD0_opsz24.svg_5" class="fil0" d="M510.26 1824.69l0 -89.7 -27.45 21.08 -11.76 -15.69 107.84 -82.35 39.21 29.9 0 -20.1 29.42 -0 0 42.65 39.21 29.91 -11.76 15.69 -27.45 -21.08 0 89.7 -58.83 0.01 0 -58.82 -19.61 0 0 58.82 -58.83 0zm19.61 -19.61l19.61 0 0 -58.82 58.82 0 0 58.82 19.61 0 0 -85.05 -49.02 -37.26 -49.02 37.26 0 85.05zm29.41 -78.19l39.22 0c0,-5.23 -1.96,-9.52 -5.89,-12.87 -3.92,-3.35 -8.5,-5.02 -13.72,-5.02 -5.23,0 -9.8,1.67 -13.72,5.02 -3.92,3.35 -5.89,7.64 -5.89,12.87zm-9.8 78.19l0 -58.82 58.82 0 0 58.82 0 -58.82 -58.82 0 0 58.82z"/>
  <path id="location_city_24dp_E8EAED_FILL0_wght400_GRAD0_opsz24.svg" class="fil0" d="M939.27 166.67l0 -122.81 52.63 0 0 -17.54 26.32 -26.32 26.31 26.31 0 52.63 52.63 0 0 87.72 -157.89 0zm17.54 -17.54l17.54 0 0 -17.55 -17.54 0 0 17.55zm0 -35.09l17.54 0 0 -17.55 -17.54 0 0 17.55 0 -0zm0 -35.09l17.54 0 0 -17.54 -17.54 0 0 17.54zm52.63 70.18l17.54 0 0 -17.55 -17.54 0 0 17.55zm0 -35.09l17.54 0 0 -17.55 -17.54 0 0 17.55 0 -0zm0 -35.09l17.54 0 0 -17.54 -17.54 0 0 17.54zm0 -35.09l17.54 0 0 -17.54 -17.54 0 0 17.54zm52.63 105.26l17.54 0 0 -17.55 -17.54 0 0 17.55zm0 -35.09l17.54 0 0 -17.55 -17.54 0 0 17.55 0 -0z"/>
  <path id="location_city_24dp_E8EAED_FILL0_wght400_GRAD0_opsz24.svg_6" class="fil0" d="M18.52 1824.69l0 -122.81 52.63 0 0 -17.54 26.32 -26.32 26.31 26.31 0 52.63 52.63 0 0 87.72 -157.89 0zm17.54 -17.54l17.54 0 0 -17.55 -17.54 0 0 17.55zm0 -35.09l17.54 0 0 -17.55 -17.54 0 0 17.55 0 -0zm0 -35.09l17.54 0 0 -17.54 -17.54 0 0 17.54zm52.63 70.18l17.54 0 0 -17.55 -17.54 0 0 17.55zm0 -35.09l17.54 0 0 -17.55 -17.54 0 0 17.55 0 -0zm0 -35.09l17.54 0 0 -17.54 -17.54 0 0 17.54zm0 -35.09l17.54 0 0 -17.54 -17.54 0 0 17.54zm52.63 105.26l17.54 0 0 -17.55 -17.54 0 0 17.55zm0 -35.09l17.54 0 0 -17.55 -17.54 0 0 17.55 0 -0z"/>
  <path id="domain_24dp_E8EAED_FILL0_wght400_GRAD0_opsz24.svg" class="fil0" d="M925.63 719.34l0 -166.67 92.59 0 0 37.04 92.59 0 0 129.63 -185.18 0zm18.51 -18.52l18.52 0 0 -18.52 -18.52 0 0 18.52zm0 -37.04l18.52 0 0 -18.52 -18.52 0 0 18.52 0 -0zm0 -37.04l18.52 0 0 -18.52 -18.52 0 0 18.52zm0 -37.04l18.52 0 0 -18.52 -18.52 0 0 18.52zm37.04 111.11l18.52 0 0 -18.52 -18.52 0 0 18.52zm0 -37.04l18.52 0 0 -18.52 -18.52 0 0 18.52 0 -0zm0 -37.04l18.52 0 0 -18.52 -18.52 0 0 18.52zm0 -37.04l18.52 0 0 -18.52 -18.52 0 0 18.52zm37.04 111.11l74.07 0 0 -92.59 -74.07 -0 0 18.52 18.52 0 0 18.52 -18.52 0 0 18.52 18.52 -0 0 18.52 -18.52 0 0 18.52zm37.04 -55.56l0 -18.52 18.52 0 0 18.52 -18.52 0zm0 37.04l0 -18.52 18.52 0 0 18.52 -18.52 0z"/>
  <path id="domain_24dp_E8EAED_FILL0_wght400_GRAD0_opsz24.svg_7" class="fil0" d="M18.52 2377.36l0 -166.66 92.59 0 0 37.04 92.59 0 0 129.63 -185.18 -0zm18.52 -18.52l18.52 0 0 -18.52 -18.52 0 0 18.52zm0 -37.04l18.52 0 0 -18.52 -18.52 0 0 18.52 0 -0zm0 -37.04l18.52 0 0 -18.52 -18.52 0 0 18.52zm0 -37.04l18.52 0 0 -18.52 -18.52 0 0 18.52zm37.04 111.11l18.52 0 0 -18.52 -18.52 0 0 18.52zm0 -37.04l18.52 0 0 -18.52 -18.52 0 0 18.52 0 -0zm0 -37.04l18.52 0 0 -18.52 -18.52 0 0 18.52zm0 -37.04l18.52 0 0 -18.52 -18.52 0 0 18.52zm37.04 111.11l74.07 0 0 -92.59 -74.07 -0 0 18.52 18.52 0 0 18.52 -18.52 0 0 18.52 18.52 -0 0 18.52 -18.52 0 0 18.52zm37.04 -55.56l0 -18.52 18.52 0 0 18.52 -18.52 0zm0 37.04l0 -18.52 18.52 0 0 18.52 -18.52 0z"/>
  <path id="cottage_24dp_E8EAED_FILL0_wght400_GRAD0_opsz24.svg" class="fil0" d="M486.3 1272.02l0 -78.13 -15 11.46 -10 -13.33 25 -19.17 0 -25.83 16.67 0 0 13.12 50 -38.13 91.67 70 -10 13.13 -15 -11.25 0 78.13 -133.33 0zm16.67 -16.67l41.67 0 0 -33.33 16.67 -0 0 33.33 41.67 0 0 -74.17 -50 -38.13 -50 38.13 0 74.17zm-16.67 -116.67c0,-6.94 2.43,-12.85 7.29,-17.71 4.86,-4.86 10.77,-7.29 17.71,-7.29 2.36,0 4.34,-0.8 5.94,-2.39 1.59,-1.6 2.39,-3.58 2.39,-5.94l16.67 0c0,6.94 -2.43,12.85 -7.29,17.7 -4.86,4.86 -10.76,7.29 -17.7,7.29 -2.36,0 -4.34,0.8 -5.94,2.4 -1.6,1.6 -2.4,3.58 -2.4,5.94l-16.67 0zm16.67 116.67l100 0 -100 0z"/>
  <path id="cottage_24dp_E8EAED_FILL0_wght400_GRAD0_opsz24.svg_8" class="fil0" d="M1411.93 2377.37l0 -78.13 -15 11.46 -10 -13.33 25 -19.17 0 -25.83 16.67 0 0 13.12 50 -38.13 91.67 70 -10 13.13 -15 -11.25 0 78.13 -133.33 0zm16.67 -16.67l41.67 0 0 -33.33 16.67 -0 0 33.33 41.67 0 0 -74.17 -50 -38.13 -50 38.13 0 74.17zm-16.67 -116.67c0,-6.94 2.43,-12.85 7.29,-17.71 4.86,-4.86 10.77,-7.29 17.71,-7.29 2.36,0 4.34,-0.8 5.94,-2.39 1.59,-1.6 2.39,-3.58 2.39,-5.94l16.67 0c0,6.94 -2.43,12.85 -7.29,17.7 -4.86,4.86 -10.76,7.29 -17.7,7.29 -2.36,0 -4.34,0.8 -5.94,2.4 -1.6,1.6 -2.4,3.58 -2.4,5.94l-16.67 0zm16.67 116.67l100 0 -100 0z"/>
  <path id="real_estate_agent_24dp_FILL0_wght400_GRAD0_opsz24.svg" class="fil0" d="M142.86 651.89l0 -51.59 -39.68 -27.78 -39.68 27.78 0 11.91 -15.87 -0 0 -19.84 55.56 -39.68 55.56 39.68 0 59.52 -15.87 0zm-39.68 -79.37zm3.97 31.75l7.93 0 0 -7.94 -7.93 0 0 7.94zm-15.87 0l7.94 0 0 -7.94 -7.94 0 0 7.94zm15.87 15.87l7.93 0 0 -7.94 -7.93 0 0 7.94zm-15.87 0l7.94 0 0 -7.94 -7.94 0 0 7.94zm-43.65 67.46l55.16 15.08 47.22 -14.68c-0.66,-1.19 -1.62,-2.22 -2.88,-3.07 -1.26,-0.86 -2.68,-1.29 -4.27,-1.29l-40.08 0c-3.57,0 -6.41,-0.13 -8.53,-0.39 -2.11,-0.27 -4.3,-0.8 -6.55,-1.59l-18.46 -6.15 4.37 -15.48 16.07 5.36c2.25,0.66 4.9,1.19 7.94,1.59 3.04,0.4 7.54,0.66 13.49,0.79 0,-1.45 -0.43,-2.84 -1.29,-4.17 -0.86,-1.32 -1.89,-2.18 -3.07,-2.58l-46.43 -17.07 -12.7 0 0 43.65zm-47.62 27.78l0 -87.3 60.32 0c0.93,0 1.85,0.1 2.78,0.3 0.93,0.2 1.79,0.43 2.58,0.69l46.63 17.26c4.36,1.59 7.9,4.37 10.61,8.33 2.71,3.97 4.07,8.33 4.07,13.09l15.87 0c6.61,0 12.24,2.19 16.87,6.55 4.63,4.37 6.94,10.12 6.94,17.26l0 7.94 -63.49 19.84 -55.56 -15.47 0 11.5 -47.62 0zm15.87 -15.87l15.87 0 0 -55.56 -15.87 0 0 55.56z"/>
  <path id="real_estate_agent_24dp_FILL0_wght400_GRAD0_opsz24.svg_9" class="fil0" d="M1062.7 1757.24l0 -51.59 -39.68 -27.78 -39.68 27.78 0 11.91 -15.87 -0 0 -19.84 55.56 -39.68 55.56 39.68 0 59.52 -15.87 0zm-39.68 -79.37zm3.97 31.75l7.93 0 0 -7.94 -7.93 0 0 7.94zm-15.87 0l7.94 0 0 -7.94 -7.94 0 0 7.94zm15.87 15.87l7.93 0 0 -7.94 -7.93 0 0 7.94zm-15.87 0l7.94 0 0 -7.94 -7.94 0 0 7.94zm-43.65 67.46l55.16 15.08 47.22 -14.68c-0.66,-1.19 -1.62,-2.22 -2.88,-3.07 -1.26,-0.86 -2.68,-1.29 -4.27,-1.29l-40.08 0c-3.57,0 -6.41,-0.13 -8.53,-0.39 -2.11,-0.27 -4.3,-0.8 -6.55,-1.59l-18.46 -6.15 4.37 -15.48 16.07 5.36c2.25,0.66 4.9,1.19 7.94,1.59 3.04,0.4 7.54,0.66 13.49,0.79 0,-1.45 -0.43,-2.84 -1.29,-4.17 -0.86,-1.32 -1.89,-2.18 -3.07,-2.58l-46.43 -17.07 -12.7 0 0 43.65zm-47.62 27.78l0 -87.3 60.31 0c0.93,0 1.85,0.1 2.78,0.3 0.93,0.2 1.79,0.43 2.58,0.69l46.63 17.26c4.36,1.59 7.9,4.37 10.61,8.33 2.71,3.97 4.07,8.33 4.07,13.09l15.87 0c6.61,0 12.24,2.19 16.87,6.55 4.63,4.37 6.94,10.12 6.94,17.26l0 7.94 -63.49 19.84 -55.56 -15.47 0 11.5 -47.62 0zm15.87 -15.87l15.87 0 0 -55.56 -15.87 0 0 55.56z"/>
 </g>
</svg>
