<?xml version="1.0" encoding="UTF-8"?>
<!DOCTYPE svg PUBLIC "-//W3C//DTD SVG 1.0//EN" "http://www.w3.org/TR/2001/REC-SVG-20010904/DTD/svg10.dtd">
<!-- Creator: CorelDRAW -->
<svg xmlns="http://www.w3.org/2000/svg" xml:space="preserve" width="0.166433in" height="0.187311in" version="1.0" style="shape-rendering:geometricPrecision; text-rendering:geometricPrecision; image-rendering:optimizeQuality; fill-rule:evenodd; clip-rule:evenodd"
viewBox="0 0 166.43 187.31"
 xmlns:xlink="http://www.w3.org/1999/xlink"
 xmlns:xodm="http://www.corel.com/coreldraw/odm/2003">
 <defs>
  <style type="text/css">
   <![CDATA[
    .fil0 {fill:#009600;fill-rule:nonzero}
   ]]>
  </style>
 </defs>
 <g id="Layer_x0020_1">
  <metadata id="CorelCorpID_0Corel-Layer"/>
  <path id="Bookmark_x0020_Add.svg" class="fil0" d="M0.02 187.31l0 -166.54c0,-5.73 2.04,-10.57 6.12,-14.65 4.08,-4.08 8.92,-6.12 14.65,-6.12l62.44 0 0 20.77 -62.44 0 0 134.81 52.11 -22.43 52.11 22.43 0 -72.37 20.77 0 0 104.1 -72.89 -31.22 -72.89 31.22 0 0 0 0 0.02 -0zm20.77 -166.54l62.44 0 -62.44 0zm104.1 41.67l0 -20.77 -20.77 0 0 -20.77 20.77 0 0 -20.77 20.77 0 0 20.77 20.77 0 0 20.77 -20.77 0 0 20.77 -20.77 0z"/>
 </g>
</svg>
