<?xml version="1.0" encoding="UTF-8"?>
<!DOCTYPE svg PUBLIC "-//W3C//DTD SVG 1.0//EN" "http://www.w3.org/TR/2001/REC-SVG-20010904/DTD/svg10.dtd">
<!-- Creator: CorelDRAW -->
<svg xmlns="http://www.w3.org/2000/svg" xml:space="preserve" width="0.233335in" height="0.233339in" version="1.0" style="shape-rendering:geometricPrecision; text-rendering:geometricPrecision; image-rendering:optimizeQuality; fill-rule:evenodd; clip-rule:evenodd"
viewBox="0 0 40.39 40.39"
 xmlns:xlink="http://www.w3.org/1999/xlink"
 xmlns:xodm="http://www.corel.com/coreldraw/odm/2003">
 <defs>
  <style type="text/css">
   <![CDATA[
    .fil0 {fill:none}
    .fil1 {fill:white;fill-rule:nonzero}
   ]]>
  </style>
 </defs>
 <g id="Layer_x0020_1">
  <metadata id="CorelCorpID_0Corel-Layer"/>
  <rect class="fil0" x="0" y="-0" width="40.39" height="40.39"/>
 </g>
 <g id="Layer_x0020_1_1">
  <metadata id="CorelCorpID_1Corel-Layer"/>
  <path id="Call.svg" class="fil1" d="M38.03 40.39c-4.67,0 -9.29,-1.02 -13.86,-3.06 -4.56,-2.04 -8.71,-4.93 -12.45,-8.67 -3.74,-3.74 -6.63,-7.89 -8.67,-12.45 -2.04,-4.56 -3.06,-9.18 -3.06,-13.86 0,-0.67 0.22,-1.23 0.67,-1.68 0.45,-0.45 1.01,-0.67 1.68,-0.67l9.09 0c0.52,0 0.99,0.18 1.4,0.53 0.41,0.36 0.65,0.78 0.73,1.26l1.46 7.85c0.07,0.6 0.06,1.1 -0.06,1.52 -0.11,0.41 -0.32,0.77 -0.62,1.06l-5.44 5.5c0.75,1.38 1.64,2.72 2.66,4.01 1.03,1.29 2.16,2.53 3.39,3.73 1.16,1.16 2.37,2.23 3.65,3.22 1.27,0.99 2.62,1.9 4.04,2.72l5.27 -5.27c0.34,-0.34 0.78,-0.59 1.32,-0.76 0.54,-0.17 1.07,-0.21 1.6,-0.14l7.74 1.57c0.52,0.15 0.95,0.42 1.29,0.81 0.34,0.39 0.5,0.83 0.5,1.32l0 9.09c0,0.67 -0.22,1.23 -0.67,1.68 -0.45,0.45 -1.01,0.67 -1.68,0.67zm-31.25 -26.93l3.7 -3.7 -0.95 -5.27 -4.99 0c0.19,1.53 0.45,3.05 0.79,4.54 0.34,1.5 0.82,2.97 1.46,4.43l-0 0zm20.08 20.08c1.46,0.64 2.95,1.14 4.46,1.51 1.51,0.37 3.04,0.62 4.57,0.73l0 -4.94 -5.27 -1.07 -3.76 3.76 0 -0zm-20.08 -20.08zm20.08 20.08z"/>
 </g>
</svg>
