<?xml version="1.0" encoding="UTF-8"?>
<!DOCTYPE svg PUBLIC "-//W3C//DTD SVG 1.0//EN" "http://www.w3.org/TR/2001/REC-SVG-20010904/DTD/svg10.dtd">
<!-- Creator: CorelDRAW -->
<svg xmlns="http://www.w3.org/2000/svg" xml:space="preserve" width="0.233394in" height="0.233339in" version="1.0" style="shape-rendering:geometricPrecision; text-rendering:geometricPrecision; image-rendering:optimizeQuality; fill-rule:evenodd; clip-rule:evenodd"
viewBox="0 0 77.82 77.8"
 xmlns:xlink="http://www.w3.org/1999/xlink"
 xmlns:xodm="http://www.corel.com/coreldraw/odm/2003">
 <defs>
  <style type="text/css">
   <![CDATA[
    .fil0 {fill:none}
    .fil1 {fill:black;fill-rule:nonzero}
   ]]>
  </style>
 </defs>
 <g id="Layer_x0020_1">
  <metadata id="CorelCorpID_0Corel-Layer"/>
  <rect class="fil0" x="0.02" y="0" width="77.8" height="77.8"/>
 </g>
 <g id="Layer_x0020_1_1">
  <metadata id="CorelCorpID_1Corel-Layer"/>
  <path id="Call.svg" class="fil1" d="M73.27 77.8c-9,0 -17.89,-1.97 -26.7,-5.89 -8.78,-3.93 -16.78,-9.5 -23.98,-16.7 -7.2,-7.2 -12.77,-15.2 -16.7,-23.98 -3.93,-8.78 -5.89,-17.68 -5.89,-26.7 0,-1.29 0.42,-2.37 1.29,-3.24 0.87,-0.87 1.95,-1.29 3.24,-1.29l17.51 0c1,0 1.91,0.35 2.7,1.02 0.79,0.69 1.25,1.5 1.41,2.43l2.81 15.12c0.14,1.16 0.12,2.12 -0.12,2.93 -0.21,0.79 -0.62,1.48 -1.19,2.04l-10.48 10.59c1.45,2.66 3.16,5.24 5.12,7.72 1.98,2.48 4.16,4.87 6.53,7.18 2.23,2.23 4.57,4.3 7.03,6.2 2.45,1.91 5.05,3.66 7.78,5.24l10.15 -10.15c0.66,-0.66 1.5,-1.14 2.54,-1.46 1.04,-0.33 2.06,-0.4 3.08,-0.27l14.91 3.02c1,0.29 1.83,0.81 2.48,1.56 0.66,0.75 0.96,1.6 0.96,2.54l0 17.51c0,1.29 -0.42,2.37 -1.29,3.24 -0.87,0.87 -1.95,1.29 -3.24,1.29l0.04 0.04zm-60.19 -51.87l7.13 -7.13 -1.83 -10.15 -9.61 0c0.37,2.95 0.87,5.87 1.52,8.75 0.66,2.89 1.58,5.72 2.81,8.53l0 0 -0.02 0zm38.68 38.68c2.81,1.23 5.68,2.2 8.59,2.91 2.91,0.71 5.86,1.19 8.8,1.41l0 -9.52 -10.15 -2.06 -7.24 7.24 0 0 0 0.02zm-38.68 -38.68zm38.68 38.68z"/>
 </g>
</svg>
