<?xml version="1.0" encoding="UTF-8"?>
<!DOCTYPE svg PUBLIC "-//W3C//DTD SVG 1.0//EN" "http://www.w3.org/TR/2001/REC-SVG-20010904/DTD/svg10.dtd">
<!-- Creator: CorelDRAW -->
<svg xmlns="http://www.w3.org/2000/svg" xml:space="preserve" width="0.233331in" height="0.233331in" version="1.0" style="shape-rendering:geometricPrecision; text-rendering:geometricPrecision; image-rendering:optimizeQuality; fill-rule:evenodd; clip-rule:evenodd"
viewBox="0 0 233.33 233.33"
 xmlns:xlink="http://www.w3.org/1999/xlink"
 xmlns:xodm="http://www.corel.com/coreldraw/odm/2003">
 <defs>
  <style type="text/css">
   <![CDATA[
    .fil0 {fill:white;fill-rule:nonzero}
   ]]>
  </style>
 </defs>
 <g id="Layer_x0020_1">
  <metadata id="CorelCorpID_0Corel-Layer"/>
  <path id="Call.svg" class="fil0" d="M219.72 233.33c-27,0 -53.69,-5.88 -80.05,-17.66 -26.36,-11.78 -50.34,-28.46 -71.94,-50.07 -21.61,-21.61 -38.3,-45.59 -50.07,-71.94 -11.78,-26.36 -17.66,-53.04 -17.66,-80.05 0,-3.89 1.29,-7.13 3.88,-9.73 2.59,-2.59 5.84,-3.88 9.73,-3.88l52.5 0c3.03,0 5.73,1.02 8.11,3.07 2.37,2.05 3.78,4.48 4.21,7.29l8.43 45.37c0.43,3.46 0.32,6.37 -0.33,8.76 -0.65,2.37 -1.83,4.43 -3.56,6.15l-31.43 31.76c4.32,8 9.45,15.72 15.39,23.18 5.94,7.45 12.47,14.64 19.6,21.55 6.7,6.7 13.72,12.91 21.07,18.63 7.35,5.73 15.13,10.96 23.33,15.72l30.47 -30.46c1.94,-1.94 4.48,-3.4 7.62,-4.37 3.13,-0.97 6.21,-1.24 9.24,-0.81l44.72 9.07c3.02,0.87 5.51,2.43 7.45,4.7 1.94,2.27 2.91,4.8 2.91,7.62l0 52.5c0,3.88 -1.29,7.13 -3.88,9.72 -2.59,2.59 -5.84,3.88 -9.73,3.88zm-180.51 -155.56l21.39 -21.39 -5.5 -30.46 -28.85 0c1.08,8.86 2.59,17.61 4.54,26.25 1.94,8.64 4.75,17.18 8.43,25.6zm116.02 116.03c8.43,3.67 17.02,6.59 25.77,8.75 8.75,2.16 17.56,3.56 26.41,4.22l0 -28.52 -30.46 -6.16 -21.72 21.72zm-116.02 -116.03zm116.02 116.03z"/>
 </g>
</svg>
