<?xml version="1.0" encoding="UTF-8"?>
<!DOCTYPE svg PUBLIC "-//W3C//DTD SVG 1.0//EN" "http://www.w3.org/TR/2001/REC-SVG-20010904/DTD/svg10.dtd">
<!-- Creator: CorelDRAW -->
<svg xmlns="http://www.w3.org/2000/svg" xml:space="preserve" width="0.233335in" height="0.233335in" version="1.0" style="shape-rendering:geometricPrecision; text-rendering:geometricPrecision; image-rendering:optimizeQuality; fill-rule:evenodd; clip-rule:evenodd"
viewBox="0 0 20.5 20.5"
 xmlns:xlink="http://www.w3.org/1999/xlink"
 xmlns:xodm="http://www.corel.com/coreldraw/odm/2003">
 <defs>
  <style type="text/css">
   <![CDATA[
    .fil0 {fill:#009600;fill-rule:nonzero}
   ]]>
  </style>
 </defs>
 <g id="Layer_x0020_1">
  <metadata id="CorelCorpID_0Corel-Layer"/>
  <path id="Account.svg" class="fil0" d="M10.25 10.25c-1.41,0 -2.62,-0.5 -3.62,-1.51 -1,-1 -1.51,-2.21 -1.51,-3.62 0,-1.41 0.5,-2.62 1.51,-3.62 1,-1 2.21,-1.51 3.62,-1.51 1.41,0 2.62,0.5 3.62,1.51 1,1 1.51,2.21 1.51,3.62 0,1.41 -0.5,2.62 -1.51,3.62 -1,1 -2.21,1.51 -3.62,1.51zm-10.25 10.25l0 -3.59c0,-0.73 0.19,-1.39 0.56,-2 0.37,-0.61 0.87,-1.07 1.49,-1.39 1.32,-0.66 2.67,-1.16 4.04,-1.49 1.37,-0.33 2.76,-0.5 4.16,-0.5 1.41,0 2.8,0.17 4.16,0.5 1.37,0.33 2.71,0.83 4.04,1.49 0.62,0.32 1.12,0.78 1.49,1.39 0.37,0.61 0.56,1.28 0.56,2l0 3.59 -20.5 0 0 0z"/>
 </g>
</svg>
