<?xml version="1.0" encoding="UTF-8"?>
<!DOCTYPE svg PUBLIC "-//W3C//DTD SVG 1.0//EN" "http://www.w3.org/TR/2001/REC-SVG-20010904/DTD/svg10.dtd">
<!-- Creator: CorelDRAW -->
<svg xmlns="http://www.w3.org/2000/svg" xml:space="preserve" width="0.187504in" height="0.187504in" version="1.0" style="shape-rendering:geometricPrecision; text-rendering:geometricPrecision; image-rendering:optimizeQuality; fill-rule:evenodd; clip-rule:evenodd"
viewBox="0 0 187.5 187.5"
 xmlns:xlink="http://www.w3.org/1999/xlink"
 xmlns:xodm="http://www.corel.com/coreldraw/odm/2003">
 <defs>
  <style type="text/css">
   <![CDATA[
    .fil0 {fill:#009600;fill-rule:nonzero}
   ]]>
  </style>
 </defs>
 <g id="Layer_x0020_1">
  <metadata id="CorelCorpID_0Corel-Layer"/>
  <path id="Dashboard.svg" class="fil0" d="M20.83 187.5c-5.73,0 -10.63,-2.04 -14.71,-6.12 -4.08,-4.08 -6.12,-8.98 -6.12,-14.71l0 -145.83c0,-5.73 2.04,-10.63 6.12,-14.71 4.08,-4.08 8.98,-6.12 14.71,-6.12l145.83 0c5.73,0 10.63,2.04 14.71,6.12 4.08,4.08 6.12,8.98 6.12,14.71l0 145.83c0,5.73 -2.04,10.63 -6.12,14.71 -4.08,4.08 -8.98,6.12 -14.71,6.12l-145.83 0zm0 -20.83l62.5 0 0 -145.83 -62.5 0 0 145.83zm83.33 0l62.5 0 0 -72.92 -62.5 0 0 72.92zm0 -93.75l62.5 0 0 -52.08 -62.5 0 0 52.08z"/>
 </g>
</svg>
