<?xml version="1.0" encoding="UTF-8"?>
<!DOCTYPE svg PUBLIC "-//W3C//DTD SVG 1.0//EN" "http://www.w3.org/TR/2001/REC-SVG-20010904/DTD/svg10.dtd">
<!-- Creator: CorelDRAW -->
<svg xmlns="http://www.w3.org/2000/svg" xml:space="preserve" width="0.166669in" height="0.187504in" version="1.0" style="shape-rendering:geometricPrecision; text-rendering:geometricPrecision; image-rendering:optimizeQuality; fill-rule:evenodd; clip-rule:evenodd"
viewBox="0 0 166.67 187.5"
 xmlns:xlink="http://www.w3.org/1999/xlink"
 xmlns:xodm="http://www.corel.com/coreldraw/odm/2003">
 <defs>
  <style type="text/css">
   <![CDATA[
    .fil0 {fill:red;fill-rule:nonzero}
   ]]>
  </style>
 </defs>
 <g id="Layer_x0020_1">
  <metadata id="CorelCorpID_0Corel-Layer"/>
  <path id="delete_24dp_E8EAED_FILL0_wght400_GRAD0_opsz24.svg" class="fil0" d="M31.25 187.5c-5.73,0 -10.63,-2.04 -14.71,-6.12 -4.08,-4.08 -6.12,-8.98 -6.12,-14.71l0 -135.42 -10.42 0 0 -20.83 52.09 0 0 -10.42 62.5 0 0 10.42 52.08 -0 0 20.83 -10.42 0 0 135.42c0,5.73 -2.04,10.63 -6.12,14.71 -4.08,4.08 -8.98,6.12 -14.71,6.12l-104.17 0zm104.17 -156.24l-104.17 0 0 135.42 104.17 0 0 -135.42zm-83.33 114.58l20.83 0 0 -93.75 -20.83 0 0 93.75 0 -0zm41.67 0l20.83 0 0 -93.75 -20.83 0 0 93.75 0 -0zm-62.5 -114.58l0 135.42 0 -135.42z"/>
 </g>
</svg>
