<?xml version="1.0" encoding="UTF-8"?>
<!DOCTYPE svg PUBLIC "-//W3C//DTD SVG 1.0//EN" "http://www.w3.org/TR/2001/REC-SVG-20010904/DTD/svg10.dtd">
<!-- Creator: CorelDRAW -->
<svg xmlns="http://www.w3.org/2000/svg" xml:space="preserve" width="0.166665in" height="0.166665in" version="1.0" style="shape-rendering:geometricPrecision; text-rendering:geometricPrecision; image-rendering:optimizeQuality; fill-rule:evenodd; clip-rule:evenodd"
viewBox="0 0 21.37 21.37"
 xmlns:xlink="http://www.w3.org/1999/xlink"
 xmlns:xodm="http://www.corel.com/coreldraw/odm/2003">
 <defs>
  <style type="text/css">
   <![CDATA[
    .fil0 {fill:none}
    .fil1 {fill:white;fill-rule:nonzero}
   ]]>
  </style>
 </defs>
 <g id="Layer_x0020_1">
  <metadata id="CorelCorpID_0Corel-Layer"/>
  <rect class="fil0" x="-0" y="-0" width="21.37" height="21.37"/>
  <path id="delete_24dp_E8EAED_FILL0_wght400_GRAD0_opsz24.svg" class="fil1" d="M5.94 19.23c-0.52,0 -0.97,-0.19 -1.34,-0.56 -0.37,-0.37 -0.56,-0.82 -0.56,-1.34l0 -12.35 -0.95 0 0 -1.9 4.75 0 0 -0.95 5.7 0 0 0.95 4.75 0 0 1.9 -0.95 0 0 12.35c0,0.52 -0.19,0.97 -0.56,1.34 -0.37,0.37 -0.82,0.56 -1.34,0.56l-9.5 0 0 0zm9.5 -14.24l-9.5 0 0 12.35 9.5 0 0 -12.35zm-7.6 10.45l1.9 0 0 -8.55 -1.9 0 0 8.55 0 0zm3.8 0l1.9 0 0 -8.55 -1.9 0 0 8.55 0 0zm-5.7 -10.45l0 12.35 0 -12.35z"/>
 </g>
</svg>
