<?xml version="1.0" encoding="UTF-8"?>
<!DOCTYPE svg PUBLIC "-//W3C//DTD SVG 1.0//EN" "http://www.w3.org/TR/2001/REC-SVG-20010904/DTD/svg10.dtd">
<!-- Creator: CorelDRAW -->
<svg xmlns="http://www.w3.org/2000/svg" xml:space="preserve" width="0.208343in" height="0.208571in" version="1.0" style="shape-rendering:geometricPrecision; text-rendering:geometricPrecision; image-rendering:optimizeQuality; fill-rule:evenodd; clip-rule:evenodd"
viewBox="0 0 208.34 208.57"
 xmlns:xlink="http://www.w3.org/1999/xlink"
 xmlns:xodm="http://www.corel.com/coreldraw/odm/2003">
 <defs>
  <style type="text/css">
   <![CDATA[
    .fil0 {fill:black;fill-rule:nonzero}
   ]]>
  </style>
 </defs>
 <g id="Layer_x0020_1">
  <metadata id="CorelCorpID_0Corel-Layer"/>
  <path id="Edit.svg" class="fil0" d="M20.87 208.57c-5.76,0 -10.67,-2.02 -14.72,-6.15 -4.05,-4.05 -6.15,-8.96 -6.15,-14.72l0 -145.79c0,-5.76 2.02,-10.67 6.15,-14.72 4.05,-4.05 8.96,-6.15 14.72,-6.15l92.99 0 -20.79 20.79 -72.12 0 0 145.79 145.79 0 0 -72.35 20.79 -20.79 0 93.22c0,5.76 -2.02,10.67 -6.15,14.72 -4.05,4.05 -8.96,6.15 -14.72,6.15l-145.79 0 0 0zm72.9 -93.77zm-31.23 31.23l0 -44.24 95.56 -95.56c2.1,-2.1 4.44,-3.66 7.01,-4.67 2.57,-1.01 5.22,-1.56 7.79,-1.56 2.8,0 5.45,0.54 7.94,1.56 2.49,1.01 4.83,2.57 6.93,4.67l14.56 14.87c1.95,2.1 3.35,4.36 4.44,6.93 1.01,2.49 1.56,5.06 1.56,7.71 0,2.57 -0.47,5.14 -1.4,7.71 -0.93,2.49 -2.49,4.83 -4.52,6.93l-95.56 95.79 -44.24 0 -0.08 -0.15zm125.23 -110.43l-14.56 -14.56 14.56 14.56zm-104.44 89.57l14.56 0 60.44 -60.44 -7.32 -7.32 -7.55 -7.32 -60.12 60.12 0 14.87 0 0.08zm67.68 -67.68l-7.55 -7.32 7.55 7.32 7.32 7.32 -7.32 -7.32z"/>
 </g>
</svg>
