<?xml version="1.0" encoding="UTF-8"?>
<!DOCTYPE svg PUBLIC "-//W3C//DTD SVG 1.0//EN" "http://www.w3.org/TR/2001/REC-SVG-20010904/DTD/svg10.dtd">
<!-- Creator: CorelDRAW -->
<svg xmlns="http://www.w3.org/2000/svg" xml:space="preserve" width="0.233335in" height="0.233335in" version="1.0" style="shape-rendering:geometricPrecision; text-rendering:geometricPrecision; image-rendering:optimizeQuality; fill-rule:evenodd; clip-rule:evenodd"
viewBox="0 0 154.09 154.09"
 xmlns:xlink="http://www.w3.org/1999/xlink"
 xmlns:xodm="http://www.corel.com/coreldraw/odm/2003">
 <defs>
  <style type="text/css">
   <![CDATA[
    .fil0 {fill:black;fill-rule:nonzero}
   ]]>
  </style>
 </defs>
 <g id="Layer_x0020_1">
  <metadata id="CorelCorpID_0Corel-Layer"/>
  <path id="Feedback.svg" class="fil0" d="M30.82 92.45l61.64 0 0 -15.41 -61.64 0 0 15.41zm0 -23.12l92.45 0 0 -15.41 -92.45 0 0 15.41zm0 -23.11l92.45 0 0 -15.41 -92.45 0 0 15.41zm-30.82 107.86l0 -138.68c0,-4.24 1.51,-7.87 4.52,-10.88 3.02,-3.02 6.65,-4.53 10.88,-4.53l123.27 0c4.24,0 7.87,1.51 10.88,4.53 3.02,3.02 4.53,6.65 4.53,10.88l0 92.45c0,4.24 -1.51,7.86 -4.53,10.89 -3.02,3.02 -6.65,4.52 -10.88,4.52l-107.86 0 -30.82 30.82zm24.27 -46.23l114.41 0 0 -92.45 -123.27 0 0 101.12 8.86 -8.67zm-8.86 0l0 -92.45 0 92.45z"/>
 </g>
</svg>
