<?xml version="1.0" encoding="UTF-8"?>
<!DOCTYPE svg PUBLIC "-//W3C//DTD SVG 1.0//EN" "http://www.w3.org/TR/2001/REC-SVG-20010904/DTD/svg10.dtd">
<!-- Creator: CorelDRAW -->
<svg xmlns="http://www.w3.org/2000/svg" xml:space="preserve" width="0.187591in" height="0.187571in" version="1.0" style="shape-rendering:geometricPrecision; text-rendering:geometricPrecision; image-rendering:optimizeQuality; fill-rule:evenodd; clip-rule:evenodd"
viewBox="0 0 187.61 187.59"
 xmlns:xlink="http://www.w3.org/1999/xlink"
 xmlns:xodm="http://www.corel.com/coreldraw/odm/2003">
 <defs>
  <style type="text/css">
   <![CDATA[
    .fil0 {fill:darkgreen;fill-rule:nonzero}
   ]]>
  </style>
 </defs>
 <g id="Layer_x0020_1">
  <metadata id="CorelCorpID_0Corel-Layer"/>
  <path id="Filter.svg" class="fil0" d="M83.38 187.58l0 -62.53 20.84 0 0 20.84 83.38 0 0 20.84 -83.38 0 0 20.84 -20.84 0 0 0 0 0 0 -0zm-83.38 -20.84l0 -20.84 62.53 0 0 20.84 -62.53 0zm41.68 -41.68l0 -20.84 -41.68 0 0 -20.84 41.68 0 0 -20.84 20.84 0 0 62.53 -20.84 0 0 0 0 0 0 0zm41.7 -20.84l0 -20.84 104.22 0 0 20.84 -104.22 0zm41.68 -41.68l0 -62.53 20.84 0 0 20.84 41.68 0 0 20.84 -41.68 0 0 20.84 -20.84 0 0 0 0 0 0 -0zm-125.07 -20.84l0 -20.84 104.22 0 0 20.84 -104.22 0z"/>
 </g>
</svg>
