<?xml version="1.0" encoding="UTF-8"?>
<!DOCTYPE svg PUBLIC "-//W3C//DTD SVG 1.0//EN" "http://www.w3.org/TR/2001/REC-SVG-20010904/DTD/svg10.dtd">
<!-- Creator: CorelDRAW -->
<svg xmlns="http://www.w3.org/2000/svg" xml:space="preserve" width="2.33333in" height="1.66667in" version="1.0" style="shape-rendering:geometricPrecision; text-rendering:geometricPrecision; image-rendering:optimizeQuality; fill-rule:evenodd; clip-rule:evenodd"
viewBox="0 0 2333.33 1666.67"
 xmlns:xlink="http://www.w3.org/1999/xlink"
 xmlns:xodm="http://www.corel.com/coreldraw/odm/2003">
 <defs>
  <style type="text/css">
   <![CDATA[
    .fil2 {fill:#009600}
    .fil0 {fill:white}
    .fil3 {fill:white;fill-rule:nonzero}
    .fil1 {fill:#666666;fill-rule:nonzero;fill-opacity:0.701961}
   ]]>
  </style>
 </defs>
 <g id="Layer_x0020_1">
  <metadata id="CorelCorpID_0Corel-Layer"/>
  <g id="_2305373488864">
   <rect class="fil0" x="-0.01" y="0" width="2333.33" height="1666.66"/>
   <path id="apparel_24dp_FILL0_wght400_GRAD0_opsz24.svg" class="fil1" d="M951.84 998l-7.41 4.08c-1.73,0.99 -3.58,1.23 -5.56,0.74 -1.98,-0.5 -3.46,-1.61 -4.45,-3.33l-14.82 -25.94c-0.99,-1.73 -1.24,-3.58 -0.74,-5.56 0.5,-1.98 1.61,-3.46 3.34,-4.44l42.61 -24.46 12.97 0c1.11,0 2.01,0.34 2.69,1.02 0.68,0.68 1.02,1.58 1.02,2.69l0 3.71c0,4.07 1.45,7.56 4.36,10.47 2.9,2.9 6.39,4.35 10.46,4.35 4.08,0 7.57,-1.45 10.47,-4.35 2.91,-2.91 4.36,-6.39 4.36,-10.47l0 -3.71c0,-1.11 0.34,-2 1.02,-2.69 0.68,-0.68 1.57,-1.02 2.69,-1.02l12.97 0 42.62 24.46c1.73,0.99 2.84,2.47 3.33,4.44 0.5,1.98 0.25,3.83 -0.74,5.56l-14.82 25.94c-0.99,1.73 -2.44,2.81 -4.35,3.24 -1.91,0.43 -3.8,0.15 -5.65,-0.83l-7.41 -3.71 0 66.89c0,2.1 -0.71,3.86 -2.13,5.28 -1.42,1.42 -3.18,2.13 -5.28,2.13l-74.11 0c-2.1,0 -3.86,-0.71 -5.28,-2.13 -1.42,-1.42 -2.13,-3.18 -2.13,-5.28l0 -67.07zm14.83 -24.83l0 84.49 59.29 0 0 -84.49 22.98 12.6 7.78 -12.97 -31.87 -18.53c-1.85,6.3 -5.34,11.52 -10.47,15.65 -5.13,4.14 -11.15,6.21 -18.07,6.21 -6.91,0 -12.94,-2.07 -18.06,-6.21 -5.13,-4.13 -8.62,-9.36 -10.47,-15.66l-31.87 18.53 7.78 12.97 22.98 -12.6 0 0zm29.64 32.8z"/>
   <path id="headphones_24dp_FILL0_wght400_GRAD0_opsz24.svg" class="fil1" d="M970.42 1504.08l-34.53 0c-4.75,0 -8.81,-1.69 -12.19,-5.07 -3.38,-3.38 -5.07,-7.44 -5.07,-12.19l0 -60.43c0,-10.79 2.05,-20.9 6.15,-30.32 4.1,-9.43 9.64,-17.63 16.62,-24.6 6.98,-6.98 15.18,-12.52 24.61,-16.62 9.42,-4.1 19.53,-6.15 30.32,-6.15 10.79,0 20.9,2.05 30.32,6.15 9.43,4.1 17.63,9.64 24.6,16.62 6.98,6.98 12.52,15.18 16.62,24.6 4.1,9.43 6.15,19.53 6.15,30.32l0 60.43c0,4.75 -1.69,8.81 -5.07,12.19 -3.38,3.38 -7.45,5.07 -12.19,5.07l-34.53 0 0 -69.06 34.53 0 0 -8.63c0,-16.83 -5.87,-31.11 -17.59,-42.84 -11.73,-11.72 -26.01,-17.59 -42.84,-17.59 -16.83,0 -31.11,5.87 -42.84,17.59 -11.73,11.73 -17.59,26.01 -17.59,42.84l0 8.63 34.53 0 0 69.06 0 -0zm-17.26 -51.8l-17.27 0 0 34.53 17.27 0 0 -34.53 0 0zm86.33 0l0 34.53 17.27 0 0 -34.53 -17.27 0zm-86.33 0l-17.27 0 17.27 0zm86.33 0l17.27 0 -17.27 0z"/>
   <path id="directions_car_24dp_FILL0_wght400_GRAD0_opsz24.svg" class="fil1" d="M938.04 285.96l0 9.71c0,2.75 -0.93,5.06 -2.79,6.92 -1.86,1.86 -4.17,2.8 -6.92,2.79l-9.71 0c-2.75,0 -5.06,-0.93 -6.92,-2.79 -1.86,-1.86 -2.8,-4.17 -2.79,-6.92l0 -77.7 20.39 -58.28c0.97,-2.91 2.71,-5.26 5.22,-7.04 2.51,-1.78 5.3,-2.67 8.38,-2.67l106.83 0c3.07,0 5.87,0.89 8.38,2.67 2.51,1.78 4.25,4.13 5.22,7.04l20.4 58.28 0 77.7c0,2.75 -0.93,5.06 -2.79,6.92 -1.86,1.86 -4.17,2.8 -6.92,2.79l-9.72 0c-2.75,0 -5.06,-0.93 -6.92,-2.79 -1.86,-1.86 -2.8,-4.17 -2.8,-6.92l0 -9.71 -116.54 0zm-1.94 -87.41l120.43 0 -10.2 -29.14 -100.04 0 -10.2 29.14zm-7.77 19.43l0 48.56 0 -48.56zm24.28 38.85c4.04,0 7.48,-1.42 10.32,-4.25 2.83,-2.83 4.25,-6.27 4.25,-10.32 0,-4.05 -1.42,-7.49 -4.25,-10.32 -2.83,-2.83 -6.28,-4.24 -10.32,-4.24 -4.05,0 -7.49,1.42 -10.32,4.24 -2.83,2.83 -4.25,6.28 -4.25,10.32 0,4.05 1.42,7.48 4.25,10.32 2.83,2.83 6.27,4.25 10.32,4.25zm87.41 0c4.05,0 7.49,-1.42 10.32,-4.25 2.83,-2.83 4.25,-6.27 4.25,-10.32 0,-4.05 -1.41,-7.49 -4.25,-10.32 -2.83,-2.83 -6.27,-4.24 -10.32,-4.24 -4.05,0 -7.48,1.42 -10.32,4.24 -2.83,2.83 -4.25,6.28 -4.25,10.32 0,4.05 1.41,7.48 4.25,10.32 2.83,2.83 6.27,4.25 10.32,4.25zm-111.69 9.71l135.97 0 0 -48.56 -135.97 0 0 48.56z"/>
   <path id="eyeglasses_24dp_FILL0_wght400_GRAD0_opsz24.svg" class="fil1" d="M959.94 645.22c3.65,0 6.92,-1.06 9.8,-3.18 2.88,-2.12 4.91,-4.89 6.09,-8.3l2.65 -8.13c1.89,-5.65 1.41,-10.86 -1.41,-15.63 -2.82,-4.77 -6.89,-7.15 -12.18,-7.15l-24.9 0 3.36 27.72c0.59,4.12 2.44,7.59 5.56,10.42 3.12,2.82 6.8,4.24 11.04,4.24zm72.75 0c4.24,0 7.92,-1.41 11.04,-4.24 3.12,-2.83 4.97,-6.3 5.56,-10.42l3.35 -27.72 -24.72 0c-5.3,0 -9.36,2.41 -12.19,7.24 -2.82,4.83 -3.3,10.07 -1.41,15.72l2.47 7.95c1.18,3.41 3.21,6.18 6.09,8.3 2.88,2.12 6.15,3.18 9.8,3.18zm-72.75 14.13c-7.77,0 -14.57,-2.56 -20.4,-7.68 -5.83,-5.12 -9.21,-11.57 -10.15,-19.33l-3.71 -29.49 -7.06 0 0 -14.13 46.26 0c5.18,0 9.92,1.26 14.21,3.8 4.3,2.53 7.68,5.97 10.15,10.33l14.3 0c2.47,-4.35 5.86,-7.8 10.15,-10.33 4.3,-2.53 9.04,-3.8 14.22,-3.8l46.09 0 0 14.13 -7.06 -0 -3.71 29.49c-0.94,7.77 -4.32,14.22 -10.15,19.34 -5.83,5.12 -12.63,7.68 -20.39,7.68 -6.71,0 -12.74,-1.91 -18.1,-5.74 -5.35,-3.82 -9.09,-8.91 -11.21,-15.27l-2.65 -7.95c-0.24,-0.82 -0.47,-1.67 -0.71,-2.56 -0.23,-0.88 -0.47,-2.15 -0.7,-3.8l-6 0c-0.24,1.41 -0.47,2.56 -0.7,3.44 -0.24,0.88 -0.47,1.73 -0.71,2.56l-2.65 8.12c-2.12,6.36 -5.85,11.48 -11.21,15.36 -5.36,3.89 -11.39,5.83 -18.1,5.83z"/>
   <path id="liquor_24dp_FILL0_wght400_GRAD0_opsz24.svg" class="fil1" d="M503.74 701.72l0 -15.54 15.54 0 0 -24.86c-4.53,-1.56 -8.26,-4.31 -11.17,-8.26 -2.91,-3.95 -4.37,-8.45 -4.37,-13.5l0 -62.16 46.61 0 0 62.16c0,5.05 -1.46,9.55 -4.37,13.5 -2.91,3.95 -6.64,6.7 -11.17,8.26l0 24.86 15.54 0 0 15.54 -46.61 -0zm15.54 -85.46l15.54 0 0 -23.31 -15.54 0 0 23.31zm7.77 31.07c2.2,0 4.04,-0.74 5.54,-2.23 1.49,-1.49 2.23,-3.33 2.23,-5.54l0 -7.77 -15.54 0 0 7.77c0,2.2 0.74,4.05 2.24,5.54 1.49,1.49 3.33,2.23 5.54,2.23zm54.39 54.39c-4.27,0 -7.93,-1.52 -10.97,-4.56 -3.05,-3.04 -4.57,-6.7 -4.57,-10.97l0 -74.2c0,-3.37 0.97,-6.38 2.91,-9.03 1.94,-2.65 4.47,-4.56 7.57,-5.73l7.38 -2.72c1.81,-0.65 3.17,-1.59 4.08,-2.81 0.91,-1.23 1.36,-2.75 1.36,-4.57l0 -33.02c0,-2.2 0.74,-4.05 2.23,-5.54 1.49,-1.49 3.33,-2.23 5.54,-2.23l23.31 0c2.2,0 4.05,0.74 5.54,2.23 1.49,1.49 2.24,3.33 2.24,5.54l0 33.02c0,1.81 0.45,3.33 1.36,4.56 0.91,1.23 2.27,2.17 4.08,2.81l7.39 2.72c3.11,1.17 5.63,3.07 7.57,5.73 1.94,2.65 2.91,5.67 2.91,9.03l0 74.2c0,4.27 -1.52,7.93 -4.56,10.97 -3.04,3.04 -6.7,4.56 -10.97,4.56l-54.39 0zm23.31 -132.08l7.77 0 0 -7.77 -7.77 0 0 7.77zm-23.31 54.39l54.39 0 0 -12.04 -7.38 -2.72c-4.93,-1.81 -8.81,-4.67 -11.66,-8.55 -2.85,-3.88 -4.27,-8.28 -4.27,-13.2l0 -2.33 -7.77 0 0 2.33c0,4.92 -1.43,9.32 -4.27,13.2 -2.85,3.89 -6.73,6.74 -11.65,8.55l-7.39 2.72 0 12.04 0 0zm0 62.16l54.39 0 0 -15.54 -54.39 0 0 15.54zm0 -31.08l54.39 0 0 -15.54 -54.39 0 0 15.54 0 0zm-54.39 -23.31zm54.39 23.31l0 -15.54 0 15.54z"/>
   <path id="laptop_mac_24dp_FILL0_wght400_GRAD0_opsz24.svg" class="fil1" d="M486.14 305.39c-5.02,0 -9.33,-1.79 -12.91,-5.37 -3.58,-3.58 -5.37,-7.89 -5.37,-12.91l36.56 0c-5.02,0 -9.33,-1.79 -12.91,-5.37 -3.58,-3.58 -5.37,-7.88 -5.37,-12.91l0 -100.54c0,-5.03 1.79,-9.33 5.37,-12.91 3.58,-3.58 7.89,-5.37 12.91,-5.37l146.25 0c5.03,0 9.33,1.79 12.91,5.37 3.58,3.58 5.37,7.89 5.37,12.91l0 100.54c0,5.03 -1.79,9.33 -5.37,12.91 -3.58,3.58 -7.89,5.37 -12.91,5.37l36.56 0c0,5.02 -1.79,9.33 -5.37,12.91 -3.58,3.58 -7.88,5.37 -12.91,5.37l-182.81 0zm91.41 -9.14c2.59,0 4.76,-0.87 6.51,-2.63 1.75,-1.75 2.63,-3.92 2.63,-6.51 0,-2.59 -0.88,-4.76 -2.63,-6.51 -1.75,-1.75 -3.92,-2.63 -6.51,-2.63 -2.59,0 -4.76,0.88 -6.51,2.63 -1.75,1.75 -2.63,3.92 -2.63,6.51 0,2.59 0.88,4.76 2.63,6.51 1.75,1.75 3.92,2.63 6.51,2.63zm-73.13 -27.42l146.25 0 0 -100.54 -146.25 0 0 100.54zm0 0l0 -100.54 0 100.54z"/>
   <path id="stockpot_24dp_FILL0_wght400_GRAD0_opsz24.svg" class="fil1" d="M499.86 1408.77l155.39 0 0 77.7c0,7.19 -2.52,13.31 -7.56,18.34 -5.03,5.04 -11.15,7.56 -18.34,7.56l-103.59 0c-7.2,0 -13.31,-2.52 -18.35,-7.56 -5.04,-5.04 -7.55,-11.15 -7.55,-18.35l0 -77.7 0 0zm17.26 17.26l0 60.43c0,2.45 0.83,4.5 2.48,6.15 1.66,1.66 3.7,2.48 6.15,2.48l103.59 0c2.45,0 4.5,-0.83 6.15,-2.48 1.66,-1.65 2.48,-3.7 2.48,-6.15l0 -60.43 -120.86 0zm-17.26 -25.9l0 -17.26 51.8 0 0 -8.63c0,-2.44 0.83,-4.5 2.48,-6.15 1.65,-1.65 3.71,-2.48 6.15,-2.48l34.54 0c2.44,0 4.5,0.83 6.15,2.48 1.66,1.66 2.48,3.71 2.48,6.15l0 8.63 51.8 0 0 17.26 -155.39 0zm77.69 60.43z"/>
   <path id="phone_iphone_24dp_FILL0_wght400_GRAD0_opsz24.svg" class="fil1" d="M542.24 1096.07c-3.89,0 -7.21,-1.39 -9.98,-4.15 -2.77,-2.77 -4.15,-6.09 -4.15,-9.98l0 -127.14c0,-3.89 1.38,-7.21 4.15,-9.98 2.76,-2.77 6.09,-4.15 9.98,-4.15l70.63 0c3.88,0 7.21,1.38 9.98,4.15 2.77,2.77 4.15,6.09 4.15,9.98l0 127.14c0,3.88 -1.38,7.21 -4.15,9.98 -2.77,2.76 -6.09,4.15 -9.98,4.15l-70.63 0zm0 -35.32l0 21.19 70.63 0 0 -21.19 -70.63 0zm35.31 17.66c2,0 3.68,-0.68 5.04,-2.03 1.35,-1.35 2.03,-3.04 2.03,-5.03 0,-2 -0.68,-3.68 -2.03,-5.04 -1.35,-1.35 -3.03,-2.03 -5.04,-2.03 -2,0 -3.68,0.68 -5.03,2.03 -1.35,1.35 -2.03,3.03 -2.03,5.04 0,2 0.68,3.68 2.03,5.03 1.35,1.35 3.03,2.03 5.03,2.03zm-35.31 -31.79l70.63 0 0 -70.63 -70.63 0 0 70.63zm0 -84.76l70.63 0 0 -7.06 -70.63 0 0 7.07 0 -0zm0 98.89l0 21.19 0 -21.19 0 0zm0 -98.89l0 -7.06 0 7.06z"/>
   <path id="skillet_24dp_FILL0_wght400_GRAD0_opsz24.svg" class="fil1" d="M104.37 1007.43c1.7,-4.37 1.98,-8.27 0.82,-11.67 -1.15,-3.41 -3.13,-6.81 -5.93,-10.21 -4.01,-4.86 -6.66,-9.45 -7.94,-13.77 -1.28,-4.32 -1.49,-9.46 -0.63,-15.41l14.22 0c-0.97,4.62 -1.13,8.39 -0.46,11.31 0.67,2.92 2.4,6.07 5.2,9.48 4.62,5.59 7.57,10.55 8.85,14.87 1.28,4.31 1.31,9.45 0.09,15.41l-14.22 0zm29.18 0c1.7,-4.37 2.01,-8.27 0.91,-11.67 -1.09,-3.41 -3.04,-6.81 -5.84,-10.21 -4.01,-4.86 -6.69,-9.45 -8.02,-13.77 -1.33,-4.32 -1.58,-9.46 -0.73,-15.41l14.22 0c-0.97,4.62 -1.12,8.39 -0.46,11.31 0.67,2.92 2.4,6.07 5.2,9.48 4.62,5.59 7.57,10.55 8.85,14.87 1.28,4.31 1.31,9.45 0.09,15.41l-14.23 0zm29.18 0c1.7,-4.37 2.01,-8.27 0.91,-11.67 -1.09,-3.41 -3.04,-6.81 -5.83,-10.21 -4.02,-4.86 -6.69,-9.45 -8.03,-13.77 -1.34,-4.32 -1.58,-9.46 -0.73,-15.41l14.22 0c-0.97,4.62 -1.12,8.39 -0.45,11.31 0.67,2.92 2.4,6.07 5.2,9.48 4.62,5.59 7.57,10.55 8.85,14.87 1.28,4.31 1.31,9.45 0.09,15.41l-14.23 0zm-54.17 72.96c-6.08,0 -11.24,-2.13 -15.5,-6.38 -4.26,-4.26 -6.38,-9.43 -6.38,-15.51l0 -36.48 102.31 0c0.61,-4.13 2.25,-7.75 4.93,-10.85 2.68,-3.1 5.96,-5.32 9.85,-6.66l33.74 -11.31 4.56 13.86 -33.74 11.31c-1.46,0.48 -2.65,1.37 -3.56,2.64 -0.91,1.28 -1.37,2.7 -1.37,4.29l0 33.19c0,6.08 -2.13,11.24 -6.38,15.5 -4.26,4.25 -9.43,6.38 -15.5,6.38l-72.96 0zm0 -14.59l72.96 0c2.07,0 3.8,-0.7 5.2,-2.1 1.4,-1.4 2.1,-3.13 2.1,-5.2l0 -21.89 -87.55 0 0 21.88c0,2.07 0.7,3.8 2.1,5.2 1.4,1.4 3.13,2.1 5.2,2.1zm36.48 -14.59z"/>
   <path id="real_estate_agent_24dp_FILL0_wght400_GRAD0_opsz24.svg" class="fil1" d="M219.87 1453.78l0 -48.1 -37 -25.9 -37 25.9 0 11.1 -14.8 0 0 -18.5 51.8 -37 51.8 37 0 55.5 -14.8 0zm-37 -74zm3.7 29.6l7.4 0 0 -7.4 -7.4 0 0 7.4zm-14.8 0l7.4 0 0 -7.4 -7.4 0 0 7.4zm14.8 14.8l7.4 0 0 -7.4 -7.4 0 0 7.4zm-14.8 0l7.4 0 0 -7.4 -7.4 0 0 7.4zm-40.7 62.9l51.43 14.06 44.03 -13.69c-0.62,-1.11 -1.51,-2.06 -2.69,-2.87 -1.17,-0.8 -2.5,-1.2 -3.98,-1.2l-37.37 0c-3.33,0 -5.98,-0.12 -7.95,-0.37 -1.97,-0.25 -4.01,-0.74 -6.11,-1.48l-17.2 -5.74 4.07 -14.43 14.99 5c2.09,0.61 4.56,1.11 7.4,1.48 2.83,0.37 7.03,0.61 12.58,0.74 0,-1.35 -0.4,-2.65 -1.2,-3.88 -0.8,-1.24 -1.76,-2.04 -2.87,-2.41l-43.29 -15.91 -11.84 0 0 40.7zm-44.4 25.9l0 -81.39 56.24 0c0.86,0 1.73,0.09 2.59,0.28 0.86,0.19 1.67,0.41 2.4,0.65l43.47 16.09c4.07,1.48 7.37,4.07 9.9,7.77 2.53,3.7 3.8,7.77 3.8,12.2l14.8 0c6.17,0 11.41,2.04 15.72,6.11 4.31,4.07 6.47,9.44 6.47,16.09l0 7.4 -59.2 18.5 -51.8 -14.43 0 10.73 -44.4 0zm14.8 -14.8l14.8 0 0 -51.8 -14.8 0 0 51.8z"/>
   <path id="watch_24dp_FILL0_wght400_GRAD0_opsz24.svg" class="fil1" d="M122.13 561.87l23.31 0 -23.31 0zm0 124.31l23.31 0 -23.31 0zm-11.65 15.54l-10.49 -35.35c-6.22,-4.92 -11.2,-11.07 -14.96,-18.45 -3.75,-7.38 -5.63,-15.35 -5.63,-23.89 0,-8.55 1.88,-16.51 5.63,-23.89 3.76,-7.38 8.74,-13.53 14.96,-18.45l10.49 -35.35 46.62 0 10.49 35.35c6.21,4.92 11.2,11.07 14.96,18.45 3.75,7.39 5.63,15.35 5.63,23.89 0,8.54 -1.88,16.51 -5.63,23.89 -3.76,7.38 -8.74,13.53 -14.96,18.45l-10.48 35.35 -46.62 0zm23.31 -38.85c10.75,0 19.91,-3.79 27.48,-11.36 7.57,-7.57 11.36,-16.74 11.36,-27.48 0,-10.75 -3.79,-19.91 -11.36,-27.48 -7.57,-7.57 -16.74,-11.36 -27.48,-11.36 -10.75,0 -19.91,3.79 -27.48,11.36 -7.57,7.57 -11.36,16.74 -11.36,27.48 0,10.75 3.79,19.91 11.36,27.48 7.57,7.57 16.74,11.36 27.48,11.36zm-14.76 -91.29c2.59,-0.65 5.08,-1.17 7.48,-1.56 2.39,-0.39 4.82,-0.58 7.28,-0.58 2.46,0 4.89,0.2 7.28,0.58 2.4,0.39 4.89,0.91 7.48,1.56l-3.11 -9.71 -23.31 -0 -3.11 9.71 0 0zm3.11 114.6l23.31 0 3.11 -9.71c-2.59,0.65 -5.08,1.13 -7.48,1.45 -2.39,0.33 -4.82,0.49 -7.28,0.49 -2.46,0 -4.89,-0.16 -7.28,-0.49 -2.39,-0.32 -4.89,-0.81 -7.48,-1.46l3.11 9.71 0 0z"/>
   <path id="restaurant_24dp_FILL0_wght400_GRAD0_opsz24.svg" class="fil1" d="M98.82 305.39l0 -71.09c-6.61,-1.81 -12.14,-5.44 -16.61,-10.88 -4.46,-5.44 -6.7,-11.78 -6.7,-19.04l0 -54.39 15.54 0 0 54.39 7.77 -0 0 -54.39 15.54 0 0 54.39 7.77 -0 0 -54.39 15.54 0 0 54.39c0,7.25 -2.24,13.59 -6.7,19.03 -4.47,5.44 -10,9.07 -16.61,10.88l0 71.09 -15.54 0zm77.69 0l0 -62.16 -23.31 0 0 -54.39c0,-10.75 3.79,-19.91 11.36,-27.49 7.57,-7.57 16.74,-11.36 27.48,-11.36l0 155.39 -15.54 0z"/>
   <path id="apparel_24dp_FILL0_wght400_GRAD0_opsz24.svg_72" class="fil1" d="M2125.95 998l-7.41 4.08c-1.73,0.99 -3.58,1.23 -5.56,0.74 -1.98,-0.5 -3.46,-1.61 -4.45,-3.33l-14.82 -25.94c-0.99,-1.73 -1.24,-3.58 -0.74,-5.56 0.49,-1.98 1.6,-3.46 3.33,-4.44l42.62 -24.46 12.96 0c1.11,0 2.01,0.34 2.69,1.02 0.68,0.68 1.02,1.58 1.02,2.69l0 3.71c0,4.07 1.45,7.56 4.35,10.47 2.9,2.9 6.39,4.35 10.47,4.35 4.07,0 7.57,-1.45 10.47,-4.35 2.9,-2.91 4.35,-6.39 4.35,-10.47l0 -3.71c0,-1.11 0.34,-2 1.02,-2.69 0.68,-0.68 1.58,-1.02 2.69,-1.02l12.97 0 42.61 24.46c1.73,0.99 2.84,2.47 3.33,4.44 0.49,1.98 0.25,3.83 -0.74,5.56l-14.82 25.94c-0.98,1.73 -2.44,2.81 -4.35,3.24 -1.91,0.43 -3.8,0.15 -5.65,-0.83l-7.41 -3.71 0 66.89c0,2.1 -0.71,3.86 -2.13,5.28 -1.42,1.42 -3.18,2.13 -5.28,2.13l-74.11 0c-2.1,0 -3.86,-0.71 -5.28,-2.13 -1.42,-1.42 -2.13,-3.18 -2.13,-5.28l0 -67.07zm14.82 -24.83l0 84.49 59.29 0 0 -84.49 22.97 12.6 7.78 -12.97 -31.87 -18.53c-1.85,6.3 -5.34,11.52 -10.47,15.65 -5.13,4.14 -11.15,6.21 -18.06,6.21 -6.92,0 -12.94,-2.07 -18.07,-6.21 -5.13,-4.13 -8.61,-9.36 -10.46,-15.66l-31.87 18.53 7.78 12.97 22.97 -12.6 0 0zm29.65 32.8z"/>
   <path id="headphones_24dp_FILL0_wght400_GRAD0_opsz24.svg_73" class="fil1" d="M2144.52 1504.08l-34.54 0c-4.75,0 -8.81,-1.69 -12.19,-5.07 -3.38,-3.38 -5.07,-7.44 -5.07,-12.19l0 -60.43c0,-10.79 2.05,-20.9 6.15,-30.32 4.09,-9.43 9.64,-17.63 16.61,-24.6 6.98,-6.98 15.18,-12.52 24.61,-16.62 9.42,-4.1 19.53,-6.15 30.32,-6.15 10.79,0 20.9,2.05 30.32,6.15 9.43,4.1 17.63,9.64 24.61,16.62 6.98,6.98 12.52,15.18 16.62,24.6 4.1,9.43 6.15,19.53 6.15,30.32l0 60.43c0,4.75 -1.69,8.81 -5.07,12.19 -3.38,3.38 -7.44,5.07 -12.19,5.07l-34.53 0 0 -69.06 34.53 0 0 -8.63c0,-16.83 -5.86,-31.11 -17.59,-42.84 -11.72,-11.72 -26.01,-17.59 -42.84,-17.59 -16.83,0 -31.11,5.87 -42.84,17.59 -11.72,11.73 -17.59,26.01 -17.59,42.84l0 8.63 34.54 0 0 69.06 0 -0zm-17.27 -51.8l-17.27 0 0 34.53 17.27 0 0 -34.53 0 0zm86.33 0l0 34.53 17.27 0 0 -34.53 -17.27 0zm-86.33 0l-17.27 0 17.27 0zm86.33 0l17.27 0 -17.27 0z"/>
   <path id="directions_car_24dp_FILL0_wght400_GRAD0_opsz24.svg_74" class="fil1" d="M2112.15 285.96l0 9.71c0,2.75 -0.93,5.06 -2.8,6.92 -1.86,1.86 -4.17,2.8 -6.92,2.79l-9.71 0c-2.75,0 -5.06,-0.93 -6.92,-2.79 -1.86,-1.86 -2.79,-4.17 -2.79,-6.92l0 -77.7 20.4 -58.28c0.97,-2.91 2.71,-5.26 5.22,-7.04 2.51,-1.78 5.3,-2.67 8.38,-2.67l106.83 0c3.08,0 5.87,0.89 8.38,2.67 2.51,1.78 4.25,4.13 5.22,7.04l20.39 58.28 0 77.7c0,2.75 -0.93,5.06 -2.79,6.92 -1.86,1.86 -4.17,2.8 -6.92,2.79l-9.71 0c-2.75,0 -5.06,-0.93 -6.92,-2.79 -1.86,-1.86 -2.79,-4.17 -2.79,-6.92l0 -9.71 -116.54 0zm-1.94 -87.41l120.43 0 -10.2 -29.14 -100.04 0 -10.2 29.14zm-7.77 19.43l0 48.56 0 -48.56zm24.28 38.85c4.05,0 7.48,-1.42 10.32,-4.25 2.83,-2.83 4.25,-6.27 4.25,-10.32 0,-4.05 -1.42,-7.49 -4.25,-10.32 -2.83,-2.83 -6.27,-4.24 -10.32,-4.24 -4.05,0 -7.49,1.42 -10.32,4.24 -2.83,2.83 -4.25,6.28 -4.25,10.32 0,4.05 1.41,7.48 4.25,10.32 2.83,2.83 6.27,4.25 10.32,4.25zm87.41 0c4.05,0 7.49,-1.42 10.32,-4.25 2.83,-2.83 4.25,-6.27 4.25,-10.32 0,-4.05 -1.42,-7.49 -4.25,-10.32 -2.83,-2.83 -6.27,-4.24 -10.32,-4.24 -4.04,0 -7.48,1.42 -10.31,4.24 -2.83,2.83 -4.25,6.28 -4.25,10.32 0,4.05 1.41,7.48 4.25,10.32 2.83,2.83 6.27,4.25 10.31,4.25zm-111.68 9.71l135.97 0 0 -48.56 -135.97 0 0 48.56z"/>
   <path id="eyeglasses_24dp_FILL0_wght400_GRAD0_opsz24.svg_75" class="fil1" d="M2134.04 645.22c3.65,0 6.92,-1.06 9.8,-3.18 2.88,-2.12 4.91,-4.89 6.09,-8.3l2.65 -8.13c1.88,-5.65 1.41,-10.86 -1.41,-15.63 -2.83,-4.77 -6.89,-7.15 -12.19,-7.15l-24.9 0 3.35 27.72c0.59,4.12 2.44,7.59 5.56,10.42 3.12,2.82 6.8,4.24 11.04,4.24zm72.75 0c4.24,0 7.92,-1.41 11.04,-4.24 3.12,-2.83 4.98,-6.3 5.57,-10.42l3.35 -27.72 -24.72 0c-5.3,0 -9.36,2.41 -12.19,7.24 -2.82,4.83 -3.3,10.07 -1.41,15.72l2.47 7.95c1.18,3.41 3.21,6.18 6.09,8.3 2.88,2.12 6.15,3.18 9.8,3.18zm-72.75 14.13c-7.77,0 -14.57,-2.56 -20.39,-7.68 -5.83,-5.12 -9.21,-11.57 -10.15,-19.33l-3.71 -29.49 -7.06 0 0 -14.13 46.26 0c5.18,0 9.92,1.26 14.22,3.8 4.3,2.53 7.68,5.97 10.15,10.33l14.3 0c2.47,-4.35 5.85,-7.8 10.15,-10.33 4.3,-2.53 9.04,-3.8 14.22,-3.8l46.09 0 0 14.13 -7.07 -0 -3.71 29.49c-0.94,7.77 -4.32,14.22 -10.15,19.34 -5.83,5.12 -12.63,7.68 -20.4,7.68 -6.71,0 -12.74,-1.91 -18.1,-5.74 -5.35,-3.82 -9.09,-8.91 -11.21,-15.27l-2.65 -7.95c-0.23,-0.82 -0.47,-1.67 -0.7,-2.56 -0.24,-0.88 -0.47,-2.15 -0.71,-3.8l-6 0c-0.24,1.41 -0.47,2.56 -0.71,3.44 -0.24,0.88 -0.47,1.73 -0.71,2.56l-2.65 8.12c-2.12,6.36 -5.86,11.48 -11.21,15.36 -5.36,3.89 -11.39,5.83 -18.1,5.83z"/>
   <path id="liquor_24dp_FILL0_wght400_GRAD0_opsz24.svg_76" class="fil1" d="M1677.85 701.72l0 -15.54 15.54 0 0 -24.86c-4.53,-1.56 -8.25,-4.31 -11.17,-8.26 -2.91,-3.95 -4.37,-8.45 -4.37,-13.5l0 -62.16 46.62 0 0 62.16c0,5.05 -1.46,9.55 -4.37,13.5 -2.91,3.95 -6.63,6.7 -11.17,8.26l0 24.86 15.54 0 0 15.54 -46.62 -0zm15.54 -85.46l15.54 0 0 -23.31 -15.54 0 0 23.31zm7.77 31.07c2.2,0 4.05,-0.74 5.54,-2.23 1.49,-1.49 2.24,-3.33 2.24,-5.54l0 -7.77 -15.54 0 0 7.77c0,2.2 0.75,4.05 2.24,5.54 1.49,1.49 3.33,2.23 5.54,2.23zm54.39 54.39c-4.28,0 -7.93,-1.52 -10.98,-4.56 -3.04,-3.04 -4.57,-6.7 -4.57,-10.97l0 -74.2c0,-3.37 0.97,-6.38 2.91,-9.03 1.94,-2.65 4.47,-4.56 7.58,-5.73l7.38 -2.72c1.81,-0.65 3.17,-1.59 4.08,-2.81 0.91,-1.23 1.36,-2.75 1.36,-4.57l0 -33.02c0,-2.2 0.74,-4.05 2.23,-5.54 1.49,-1.49 3.33,-2.23 5.54,-2.23l23.31 0c2.2,0 4.05,0.74 5.54,2.23 1.49,1.49 2.23,3.33 2.23,5.54l0 33.02c0,1.81 0.45,3.33 1.36,4.56 0.91,1.23 2.27,2.17 4.08,2.81l7.38 2.72c3.11,1.17 5.63,3.07 7.57,5.73 1.94,2.65 2.91,5.67 2.91,9.03l0 74.2c0,4.27 -1.52,7.93 -4.57,10.97 -3.04,3.04 -6.7,4.56 -10.97,4.56l-54.39 0zm23.31 -132.08l7.77 0 0 -7.77 -7.77 0 0 7.77zm-23.31 54.39l54.39 0 0 -12.04 -7.38 -2.72c-4.92,-1.81 -8.8,-4.67 -11.65,-8.55 -2.85,-3.88 -4.28,-8.28 -4.28,-13.2l0 -2.33 -7.77 0 0 2.33c0,4.92 -1.43,9.32 -4.28,13.2 -2.85,3.89 -6.73,6.74 -11.65,8.55l-7.38 2.72 0 12.04 0 0zm0 62.16l54.39 0 0 -15.54 -54.39 0 0 15.54zm0 -31.08l54.39 0 0 -15.54 -54.39 0 0 15.54 0 0zm-54.39 -23.31zm54.39 23.31l0 -15.54 0 15.54z"/>
   <path id="laptop_mac_24dp_FILL0_wght400_GRAD0_opsz24.svg_77" class="fil1" d="M1660.25 305.39c-5.03,0 -9.33,-1.79 -12.91,-5.37 -3.58,-3.58 -5.37,-7.89 -5.37,-12.91l36.56 0c-5.03,0 -9.33,-1.79 -12.91,-5.37 -3.58,-3.58 -5.37,-7.88 -5.37,-12.91l0 -100.54c0,-5.03 1.79,-9.33 5.37,-12.91 3.58,-3.58 7.89,-5.37 12.91,-5.37l146.25 0c5.03,0 9.33,1.79 12.91,5.37 3.58,3.58 5.37,7.89 5.37,12.91l0 100.54c0,5.03 -1.79,9.33 -5.37,12.91 -3.58,3.58 -7.88,5.37 -12.91,5.37l36.56 0c0,5.02 -1.79,9.33 -5.37,12.91 -3.58,3.58 -7.89,5.37 -12.91,5.37l-182.81 0zm91.41 -9.14c2.59,0 4.76,-0.87 6.51,-2.63 1.75,-1.75 2.63,-3.92 2.63,-6.51 0,-2.59 -0.88,-4.76 -2.63,-6.51 -1.75,-1.75 -3.92,-2.63 -6.51,-2.63 -2.59,0 -4.76,0.88 -6.51,2.63 -1.75,1.75 -2.63,3.92 -2.63,6.51 0,2.59 0.88,4.76 2.63,6.51 1.75,1.75 3.92,2.63 6.51,2.63zm-73.13 -27.42l146.25 0 0 -100.54 -146.25 0 0 100.54zm0 0l0 -100.54 0 100.54z"/>
   <path id="stockpot_24dp_FILL0_wght400_GRAD0_opsz24.svg_78" class="fil1" d="M1673.96 1408.77l155.39 0 0 77.7c0,7.19 -2.52,13.31 -7.55,18.34 -5.04,5.04 -11.15,7.56 -18.34,7.56l-103.6 0c-7.19,0 -13.31,-2.52 -18.34,-7.56 -5.04,-5.04 -7.56,-11.15 -7.56,-18.35l0 -77.7 0 0zm17.26 17.26l0 60.43c0,2.45 0.83,4.5 2.48,6.15 1.65,1.66 3.7,2.48 6.15,2.48l103.6 0c2.44,0 4.5,-0.83 6.15,-2.48 1.65,-1.65 2.48,-3.7 2.48,-6.15l0 -60.43 -120.86 0zm-17.26 -25.9l0 -17.26 51.8 0 0 -8.63c0,-2.44 0.82,-4.5 2.48,-6.15 1.65,-1.65 3.7,-2.48 6.15,-2.48l34.54 0c2.44,0 4.5,0.83 6.15,2.48 1.65,1.66 2.48,3.71 2.48,6.15l0 8.63 51.79 0 0 17.26 -155.39 0zm77.7 60.43z"/>
   <path id="phone_iphone_24dp_FILL0_wght400_GRAD0_opsz24.svg_79" class="fil1" d="M1716.34 1096.07c-3.88,0 -7.21,-1.39 -9.98,-4.15 -2.77,-2.77 -4.15,-6.09 -4.15,-9.98l0 -127.14c0,-3.89 1.38,-7.21 4.15,-9.98 2.77,-2.77 6.09,-4.15 9.98,-4.15l70.63 0c3.89,0 7.21,1.38 9.98,4.15 2.77,2.77 4.15,6.09 4.15,9.98l0 127.14c0,3.88 -1.39,7.21 -4.15,9.98 -2.76,2.76 -6.09,4.15 -9.98,4.15l-70.63 0zm0 -35.32l0 21.19 70.63 0 0 -21.19 -70.63 0zm35.32 17.66c2,0 3.68,-0.68 5.03,-2.03 1.35,-1.35 2.03,-3.04 2.03,-5.03 0,-2 -0.68,-3.68 -2.03,-5.04 -1.35,-1.35 -3.03,-2.03 -5.03,-2.03 -2,0 -3.68,0.68 -5.03,2.03 -1.35,1.35 -2.03,3.03 -2.03,5.04 0,2 0.68,3.68 2.03,5.03 1.35,1.35 3.03,2.03 5.03,2.03zm-35.32 -31.79l70.63 0 0 -70.63 -70.63 0 0 70.63zm0 -84.76l70.63 0 0 -7.06 -70.63 0 0 7.07 0 -0zm0 98.89l0 21.19 0 -21.19 0 0zm0 -98.89l0 -7.06 0 7.06z"/>
   <g>
    <path id="skillet_24dp_FILL0_wght400_GRAD0_opsz24.svg_80" class="fil1" d="M1278.48 1007.43c1.7,-4.37 1.97,-8.27 0.82,-11.67 -1.15,-3.41 -3.13,-6.81 -5.93,-10.21 -4.01,-4.86 -6.66,-9.45 -7.94,-13.77 -1.28,-4.32 -1.49,-9.46 -0.64,-15.41l14.22 0c-0.97,4.62 -1.12,8.39 -0.45,11.31 0.67,2.92 2.4,6.07 5.2,9.48 4.62,5.59 7.57,10.55 8.85,14.87 1.28,4.31 1.31,9.45 0.09,15.41l-14.22 0zm29.18 0c1.7,-4.37 2,-8.27 0.91,-11.67 -1.09,-3.41 -3.04,-6.81 -5.83,-10.21 -4.01,-4.86 -6.69,-9.45 -8.02,-13.77 -1.34,-4.32 -1.58,-9.46 -0.73,-15.41l14.23 0c-0.97,4.62 -1.13,8.39 -0.46,11.31 0.67,2.92 2.4,6.07 5.2,9.48 4.62,5.59 7.57,10.55 8.85,14.87 1.28,4.31 1.31,9.45 0.09,15.41l-14.22 0zm29.18 0c1.7,-4.37 2.01,-8.27 0.91,-11.67 -1.09,-3.41 -3.04,-6.81 -5.83,-10.21 -4.01,-4.86 -6.69,-9.45 -8.02,-13.77 -1.34,-4.32 -1.58,-9.46 -0.73,-15.41l14.22 0c-0.97,4.62 -1.13,8.39 -0.46,11.31 0.67,2.92 2.4,6.07 5.2,9.48 4.62,5.59 7.57,10.55 8.85,14.87 1.28,4.31 1.31,9.45 0.09,15.41l-14.23 0zm-54.17 72.96c-6.08,0 -11.25,-2.13 -15.5,-6.38 -4.26,-4.26 -6.38,-9.43 -6.38,-15.51l0 -36.48 102.31 0c0.61,-4.13 2.25,-7.75 4.93,-10.85 2.68,-3.1 5.96,-5.32 9.85,-6.66l33.74 -11.31 4.56 13.86 -33.74 11.31c-1.46,0.48 -2.64,1.37 -3.56,2.64 -0.91,1.28 -1.37,2.7 -1.37,4.29l0 33.19c0,6.08 -2.13,11.24 -6.38,15.5 -4.26,4.25 -9.43,6.38 -15.5,6.38l-72.96 0zm0 -14.59l72.96 0c2.06,0 3.8,-0.7 5.2,-2.1 1.4,-1.4 2.09,-3.13 2.09,-5.2l0 -21.89 -87.54 0 0 21.88c0,2.07 0.7,3.8 2.1,5.2 1.4,1.4 3.13,2.1 5.2,2.1zm36.48 -14.59z"/>
    <path id="real_estate_agent_24dp_FILL0_wght400_GRAD0_opsz24.svg_81" class="fil1" d="M1393.98 1453.78l0 -48.1 -37 -25.9 -37 25.9 0 11.1 -14.8 0 0 -18.5 51.8 -37 51.8 37 0 55.5 -14.8 0zm-37 -74zm3.7 29.6l7.4 0 0 -7.4 -7.4 0 0 7.4zm-14.8 0l7.4 0 0 -7.4 -7.4 0 0 7.4zm14.8 14.8l7.4 0 0 -7.4 -7.4 0 0 7.4zm-14.8 0l7.4 0 0 -7.4 -7.4 0 0 7.4zm-40.7 62.9l51.43 14.06 44.03 -13.69c-0.62,-1.11 -1.51,-2.06 -2.69,-2.87 -1.17,-0.8 -2.5,-1.2 -3.98,-1.2l-37.37 0c-3.33,0 -5.98,-0.12 -7.95,-0.37 -1.97,-0.25 -4.01,-0.74 -6.11,-1.48l-17.2 -5.74 4.07 -14.43 14.98 5c2.1,0.61 4.56,1.11 7.4,1.48 2.84,0.37 7.03,0.61 12.58,0.74 0,-1.35 -0.41,-2.65 -1.2,-3.88 -0.8,-1.24 -1.76,-2.04 -2.87,-2.41l-43.29 -15.91 -11.84 0 0 40.7zm-44.4 25.9l0 -81.39 56.24 0c0.87,0 1.73,0.09 2.59,0.28 0.86,0.19 1.67,0.41 2.41,0.65l43.47 16.09c4.07,1.48 7.37,4.07 9.9,7.77 2.53,3.7 3.79,7.77 3.79,12.2l14.8 0c6.17,0 11.41,2.04 15.72,6.11 4.32,4.07 6.48,9.44 6.48,16.09l0 7.4 -59.2 18.5 -51.8 -14.43 0 10.73 -44.4 0zm14.8 -14.8l14.8 0 0 -51.8 -14.8 0 0 51.8z"/>
    <path id="watch_24dp_FILL0_wght400_GRAD0_opsz24.svg_82" class="fil1" d="M1296.23 574.46l23.31 0 -23.31 0zm0 124.31l23.31 0 -23.31 0zm-11.65 15.54l-10.49 -35.35c-6.22,-4.92 -11.2,-11.07 -14.96,-18.45 -3.75,-7.38 -5.63,-15.35 -5.63,-23.89 0,-8.55 1.88,-16.51 5.63,-23.89 3.76,-7.38 8.74,-13.53 14.96,-18.45l10.49 -35.35 46.61 0 10.49 35.35c6.21,4.92 11.2,11.07 14.95,18.45 3.75,7.39 5.63,15.35 5.63,23.89 0,8.54 -1.88,16.51 -5.63,23.89 -3.76,7.38 -8.74,13.53 -14.96,18.45l-10.49 35.35 -46.61 0zm23.31 -38.85c10.74,0 19.91,-3.79 27.48,-11.36 7.57,-7.57 11.36,-16.74 11.36,-27.48 0,-10.75 -3.79,-19.91 -11.36,-27.48 -7.57,-7.57 -16.74,-11.36 -27.48,-11.36 -10.75,0 -19.91,3.79 -27.49,11.36 -7.57,7.57 -11.36,16.74 -11.36,27.48 0,10.75 3.79,19.91 11.36,27.48 7.58,7.57 16.74,11.36 27.49,11.36zm-14.76 -91.29c2.59,-0.65 5.08,-1.17 7.48,-1.56 2.39,-0.39 4.82,-0.58 7.28,-0.58 2.46,0 4.89,0.2 7.28,0.58 2.4,0.39 4.89,0.91 7.48,1.56l-3.11 -9.71 -23.31 -0 -3.11 9.71 0 0zm3.11 114.6l23.31 0 3.11 -9.71c-2.59,0.65 -5.08,1.13 -7.48,1.45 -2.39,0.33 -4.82,0.49 -7.28,0.49 -2.46,0 -4.89,-0.16 -7.28,-0.49 -2.4,-0.32 -4.89,-0.81 -7.48,-1.46l3.11 9.71 0 0z"/>
    <path id="restaurant_24dp_FILL0_wght400_GRAD0_opsz24.svg_83" class="fil1" d="M1272.93 317.98l0 -71.09c-6.6,-1.81 -12.14,-5.44 -16.61,-10.88 -4.47,-5.44 -6.7,-11.78 -6.7,-19.04l0 -54.39 15.54 0 0 54.39 7.77 -0 0 -54.39 15.54 0 0 54.39 7.77 -0 0 -54.39 15.54 0 0 54.39c0,7.25 -2.23,13.59 -6.7,19.03 -4.46,5.44 -10,9.07 -16.61,10.88l0 71.09 -15.54 0zm77.7 0l0 -62.16 -23.31 0 0 -54.39c0,-10.75 3.79,-19.91 11.36,-27.49 7.58,-7.57 16.74,-11.36 27.49,-11.36l0 155.39 -15.54 0z"/>
   </g>
   <rect class="fil2" x="915.38" y="546.16" width="538.46" height="538.46" rx="48.04" ry="53.85"/>
   <path id="all_inclusive_24dp_FILL0_wght400_GRAD0_opsz24.svg" class="fil3" d="M1111.7 877.09c-17.2,0 -31.78,-5.98 -43.75,-17.95 -11.96,-11.96 -17.95,-26.55 -17.95,-43.75 0,-17.2 5.98,-31.78 17.95,-43.75 11.97,-11.96 26.55,-17.95 43.75,-17.95 6.92,0 13.56,1.22 19.91,3.65 6.36,2.43 12.06,5.89 17.11,10.37l19.07 17.39 -16.83 15.15 -17.39 -15.7c-2.99,-2.62 -6.36,-4.67 -10.1,-6.17 -3.74,-1.5 -7.67,-2.24 -11.78,-2.24 -10.85,0 -20.1,3.83 -27.76,11.5 -7.67,7.67 -11.5,16.92 -11.5,27.76 0,10.85 3.83,20.1 11.5,27.76 7.67,7.67 16.92,11.5 27.76,11.5 4.11,0 8.04,-0.75 11.78,-2.24 3.74,-1.5 7.11,-3.55 10.1,-6.17l86.94 -78.53c5.05,-4.48 10.75,-7.94 17.11,-10.37 6.35,-2.43 12.99,-3.65 19.91,-3.65 17.2,0 31.78,5.98 43.75,17.95 11.96,11.96 17.95,26.55 17.95,43.75 0,17.2 -5.98,31.79 -17.95,43.75 -11.97,11.96 -26.55,17.95 -43.75,17.95 -6.92,0 -13.56,-1.22 -19.91,-3.65 -6.36,-2.43 -12.06,-5.89 -17.11,-10.38l-19.07 -17.39 16.83 -15.15 17.39 15.7c2.99,2.62 6.35,4.67 10.09,6.17 3.74,1.5 7.67,2.24 11.78,2.24 10.85,0 20.1,-3.83 27.76,-11.5 7.67,-7.67 11.5,-16.92 11.5,-27.76 0,-10.84 -3.83,-20.09 -11.5,-27.76 -7.67,-7.67 -16.92,-11.5 -27.76,-11.5 -4.11,0 -8.04,0.75 -11.78,2.24 -3.74,1.5 -7.11,3.55 -10.09,6.17l-86.94 78.52c-5.04,4.49 -10.75,7.94 -17.11,10.38 -6.35,2.43 -12.99,3.65 -19.91,3.65z"/>
  </g>
 </g>
</svg>
