<?xml version="1.0" encoding="UTF-8"?>
<!DOCTYPE svg PUBLIC "-//W3C//DTD SVG 1.0//EN" "http://www.w3.org/TR/2001/REC-SVG-20010904/DTD/svg10.dtd">
<!-- Creator: CorelDRAW -->
<svg xmlns="http://www.w3.org/2000/svg" xml:space="preserve" width="0.166669in" height="0.166669in" version="1.0" style="shape-rendering:geometricPrecision; text-rendering:geometricPrecision; image-rendering:optimizeQuality; fill-rule:evenodd; clip-rule:evenodd"
viewBox="0 0 416.66 416.66"
 xmlns:xlink="http://www.w3.org/1999/xlink"
 xmlns:xodm="http://www.corel.com/coreldraw/odm/2003">
 <defs>
  <style type="text/css">
   <![CDATA[
    .fil0 {fill:none}
    .fil2 {fill:white}
    .fil1 {fill:white;fill-rule:nonzero}
   ]]>
  </style>
 </defs>
 <g id="Layer_x0020_1">
  <metadata id="CorelCorpID_0Corel-Layer"/>
  <rect class="fil0" x="0" y="0" width="416.65" height="416.65"/>
 </g>
 <g id="Layer_x0020_1_2">
  <metadata id="CorelCorpID_1Corel-Layer"/>
  <g id="_2238878570608">
   <g>
    <path class="fil1" d="M371.21 257.32l-0.01 0 2.37 2.47 2.3 2.58 2.18 2.68 2.06 2.7 1.99 2.82 1.85 2.85 1.77 2.94 1.65 3.05 1.5 2.99 1.44 3.12 1.31 3.21 1.17 3.21 1.03 3.22 0.94 3.34 0.78 3.36 0.65 3.35 0.5 3.5 0.33 3.45 0.18 3.43 0.01 3.55 -0.19 3.54 -0.36 3.52 -0.57 3.6 -0.8 3.54 -0.98 3.48 -1.23 3.5 -1.51 3.51 -1.71 3.35 -1.95 3.29 -2.21 3.19 -2.43 3.04 -2.7 2.92 -29.64 -29.25 0.71 -0.78 0.66 -0.84 0.58 -0.83 0.51 -0.87 0.47 -0.93 0.38 -0.9 0.34 -1 0.33 -1.14 0.25 -1.14 0.2 -1.18 0.13 -1.3 0.07 -1.36 -0.01 -1.39 -0.08 -1.56 -0.14 -1.53 -0.23 -1.52 -0.31 -1.65 -0.38 -1.66 -0.46 -1.64 -0.56 -1.72 -0.62 -1.71 -0.68 -1.65 -0.77 -1.68 -0.87 -1.73 -0.89 -1.61 -0.96 -1.6 -1.02 -1.59 -1.06 -1.51 -1.15 -1.52 -1.16 -1.42 -1.2 -1.34 -1.25 -1.31 -0.01 0 29.47 -29.47zm-125.04 -66.1l29.47 -29.47 95.57 95.57 -29.47 29.47 -95.57 -95.57zm40.09 151.05l-29.47 29.47 -95.57 -95.57 29.47 -29.47 95.57 95.57zm72.99 38.71l-2.96 2.78 -3.09 2.53 -3.21 2.28 -3.36 2.06 -3.42 1.79 -3.53 1.57 -3.55 1.28 -3.58 1.06 -3.64 0.83 -3.59 0.58 -3.6 0.38 -3.62 0.18 -3.54 -0.03 -3.53 -0.2 -3.49 -0.38 -3.43 -0.53 -3.42 -0.71 -3.33 -0.83 -3.31 -0.98 -3.28 -1.11 -3.17 -1.24 -3.1 -1.34 -3.12 -1.49 -3 -1.58 -2.93 -1.66 -2.85 -1.77 -2.82 -1.89 -2.76 -1.99 -2.68 -2.08 -2.59 -2.17 -2.49 -2.23 -2.45 -2.35 29.47 -29.47 1.33 1.29 1.43 1.27 1.45 1.22 1.52 1.17 1.54 1.12 1.58 1.04 1.65 1.02 1.65 0.95 1.66 0.88 1.62 0.78 1.7 0.73 1.67 0.65 1.62 0.56 1.61 0.47 1.63 0.41 1.55 0.31 1.53 0.24 1.47 0.17 1.41 0.08 1.38 0.01 1.26 -0.06 1.24 -0.13 1.21 -0.21 1.08 -0.24 1.06 -0.31 1.01 -0.37 0.95 -0.41 0.97 -0.51 0.92 -0.56 0.93 -0.67 0.94 -0.76 0.92 -0.87 29.49 29.43zm-229.88 -306.57l-0.01 -0.01 29.46 -29.46 95.58 95.57 -29.45 29.47 -95.58 -95.57zm-72.82 -38.88l2.87 -2.61 2.99 -2.35 3.12 -2.11 3.25 -1.88 3.36 -1.64 3.39 -1.38 3.37 -1.14 3.44 -0.95 3.5 -0.74 3.47 -0.55 3.49 -0.35 3.43 -0.18 3.48 -0.03 3.46 0.15 3.41 0.3 3.43 0.43 3.4 0.59 3.33 0.72 3.34 0.85 3.27 0.97 3.29 1.1 3.24 1.25 3.13 1.34 3.11 1.46 3.11 1.61 3.01 1.72 2.97 1.85 2.87 1.96 2.8 2.06 2.74 2.2 2.67 2.32 2.55 2.45 -29.47 29.45 -1.23 -1.17 -1.29 -1.14 -1.38 -1.1 -1.48 -1.09 -1.52 -1.03 -1.56 -0.96 -1.61 -0.92 -1.63 -0.85 -1.71 -0.81 -1.75 -0.75 -1.72 -0.66 -1.73 -0.59 -1.77 -0.52 -1.74 -0.45 -1.75 -0.36 -1.68 -0.3 -1.64 -0.22 -1.65 -0.14 -1.54 -0.07 -1.5 0.01 -1.48 0.08 -1.35 0.14 -1.27 0.2 -1.16 0.25 -1.08 0.31 -1.06 0.35 -0.91 0.37 -0.8 0.38 -0.73 0.42 -0.7 0.47 -0.65 0.5 -0.57 0.52 -29.17 -29.74zm-12.13 123.83l-0.01 0 -2.44 -2.55 -2.3 -2.64 -2.19 -2.72 -2.1 -2.81 -1.95 -2.86 -1.85 -2.94 -1.73 -3.02 -1.58 -3.03 -1.49 -3.1 -1.39 -3.2 -1.24 -3.21 -1.13 -3.26 -0.99 -3.31 -0.86 -3.29 -0.74 -3.38 -0.6 -3.42 -0.44 -3.4 -0.31 -3.43 -0.15 -3.47 0.01 -3.48 0.19 -3.46 0.36 -3.54 0.56 -3.51 0.75 -3.44 0.95 -3.45 1.18 -3.43 1.42 -3.43 1.67 -3.35 1.91 -3.26 2.16 -3.14 2.4 -3.01 2.65 -2.86 29.51 29.41 -0.56 0.6 -0.51 0.65 -0.48 0.7 -0.43 0.74 -0.39 0.81 -0.37 0.89 -0.33 0.99 -0.31 1.09 -0.26 1.22 -0.21 1.23 -0.13 1.3 -0.07 1.44 -0.01 1.5 0.07 1.53 0.14 1.62 0.23 1.66 0.29 1.66 0.38 1.7 0.46 1.79 0.52 1.73 0.6 1.74 0.67 1.73 0.74 1.7 0.82 1.7 0.9 1.69 0.93 1.62 0.98 1.56 1.04 1.53 1.07 1.46 1.13 1.4 1.16 1.32 1.18 1.23 -0.01 0 -29.45 29.47zm125.03 66.1l-29.45 29.47 -95.58 -95.57 29.45 -29.47 95.58 95.57z"/>
   </g>
   <rect class="fil2" transform="matrix(-0.192995 -0.192995 -0.192998 0.192998 280.192 248.532)" width="583.31" height="166.66" rx="83.33" ry="83.33"/>
  </g>
 </g>
</svg>
