<?xml version="1.0" encoding="UTF-8"?>
<!DOCTYPE svg PUBLIC "-//W3C//DTD SVG 1.0//EN" "http://www.w3.org/TR/2001/REC-SVG-20010904/DTD/svg10.dtd">
<!-- Creator: CorelDRAW -->
<svg xmlns="http://www.w3.org/2000/svg" xml:space="preserve" width="0.166669in" height="0.208331in" version="1.0" style="shape-rendering:geometricPrecision; text-rendering:geometricPrecision; image-rendering:optimizeQuality; fill-rule:evenodd; clip-rule:evenodd"
viewBox="0 0 166.67 208.33"
 xmlns:xlink="http://www.w3.org/1999/xlink"
 xmlns:xodm="http://www.corel.com/coreldraw/odm/2003">
 <defs>
  <style type="text/css">
   <![CDATA[
    .fil0 {fill:#009600;fill-rule:nonzero}
    .fil1 {fill:white;fill-rule:nonzero}
   ]]>
  </style>
 </defs>
 <g id="Layer_x0020_1">
  <metadata id="CorelCorpID_0Corel-Layer"/>
  <g id="_2447942127488">
   <path id="location_on_24dp_E8EAED_FILL0_wght400_GRAD0_opsz24.svg" class="fil0" d="M83.33 83.33zm0 20.83"/>
   <path id="location_on_24dp_E8EAED_FILL0_wght400_GRAD0_opsz24.svg_0" class="fil0" d="M83.33 208.33c-27.97,-23.77 -48.81,-45.87 -62.6,-66.31 -13.79,-20.44 -20.74,-39.32 -20.74,-56.63 0,-26.02 8.41,-46.75 25.14,-62.2 16.72,-15.45 36.19,-23.18 58.2,-23.18 22.01,0 41.47,7.73 58.2,23.18 16.72,15.45 25.14,36.19 25.14,62.2 0,17.31 -6.94,36.29 -20.74,56.63 -13.79,20.44 -34.72,42.45 -62.6,66.31z"/>
   <path id="location_on_24dp_E8EAED_FILL0_wght400_GRAD0_opsz24.svg_1" class="fil0" d="M83.33 180.75c21.22,-19.46 36.87,-37.07 47.14,-53.01 10.27,-15.85 15.35,-30.03 15.35,-42.35 0,-18.88 -6.06,-34.43 -18.09,-46.46 -12.03,-12.03 -26.9,-18.09 -44.41,-18.09 -17.51,0 -32.37,6.06 -44.41,18.09 -12.03,12.03 -18.09,27.58 -18.09,46.46 0,12.32 5.09,26.41 15.35,42.35 10.27,15.85 25.92,33.55 47.14,53.01l0.01 0z"/>
   <path id="location_on_24dp_E8EAED_FILL0_wght400_GRAD0_opsz24.svg_2" class="fil1" d="M83.33 104.17c5.77,0 10.66,-2.06 14.67,-6.16 4.11,-4.11 6.16,-9 6.16,-14.67 0,-5.77 -2.06,-10.66 -6.16,-14.67 -4.11,-4.11 -9,-6.16 -14.67,-6.16 -5.77,0 -10.66,2.06 -14.67,6.16 -4.11,4.11 -6.16,9 -6.16,14.67 0,5.77 2.06,10.66 6.16,14.67 4.11,4.11 9,6.16 14.67,6.16z"/>
  </g>
 </g>
</svg>
