<?xml version="1.0" encoding="UTF-8"?>
<!DOCTYPE svg PUBLIC "-//W3C//DTD SVG 1.0//EN" "http://www.w3.org/TR/2001/REC-SVG-20010904/DTD/svg10.dtd">
<!-- Creator: CorelDRAW -->
<svg xmlns="http://www.w3.org/2000/svg" xml:space="preserve" width="0.233346in" height="0.233386in" version="1.0" style="shape-rendering:geometricPrecision; text-rendering:geometricPrecision; image-rendering:optimizeQuality; fill-rule:evenodd; clip-rule:evenodd"
viewBox="0 0 233.31 233.35"
 xmlns:xlink="http://www.w3.org/1999/xlink"
 xmlns:xodm="http://www.corel.com/coreldraw/odm/2003">
 <defs>
  <style type="text/css">
   <![CDATA[
    .fil0 {fill:black;fill-rule:nonzero}
   ]]>
  </style>
 </defs>
 <g id="Layer_x0020_1">
  <metadata id="CorelCorpID_0Corel-Layer"/>
  <path id="Logout.svg" class="fil0" d="M25.94 233.35c-7.12,0 -13.23,-2.53 -18.32,-7.62 -5.09,-5.09 -7.62,-11.19 -7.62,-18.32l0 -181.47c0,-7.12 2.53,-13.23 7.62,-18.32 5.09,-5.09 11.19,-7.62 18.32,-7.62l90.73 0 0 25.91 -90.73 0 0 181.47 90.73 0 0 25.91 -90.73 0 0 0.07zm142.57 -51.84l-17.83 -18.78 33.03 -33.03 -105.93 0 0 -25.91 105.93 0 -33.03 -33.03 17.83 -18.78 64.79 64.79 -64.79 64.79 0 -0.04 0 0 0 -0.03z"/>
 </g>
</svg>
