<?xml version="1.0" encoding="UTF-8"?>
<!DOCTYPE svg PUBLIC "-//W3C//DTD SVG 1.0//EN" "http://www.w3.org/TR/2001/REC-SVG-20010904/DTD/svg10.dtd">
<!-- Creator: CorelDRAW -->
<svg xmlns="http://www.w3.org/2000/svg" xml:space="preserve" width="1.88884in" height="0.555535in" version="1.0" style="shape-rendering:geometricPrecision; text-rendering:geometricPrecision; image-rendering:optimizeQuality; fill-rule:evenodd; clip-rule:evenodd"
viewBox="0 0 1705.81 501.7"
 xmlns:xlink="http://www.w3.org/1999/xlink"
 xmlns:xodm="http://www.corel.com/coreldraw/odm/2003">
 <defs>
  <style type="text/css">
   <![CDATA[
    .fil0 {fill:darkgreen;fill-rule:nonzero}
   ]]>
  </style>
 </defs>
 <g id="Layer_x0020_1">
  <metadata id="CorelCorpID_0Corel-Layer"/>
  <g id="_2900469959904">
   <path class="fil0" d="M570 210.73l0 -210.72 40.34 0 124.33 151.72 -19.57 0 0 -151.72 48.17 0 0 210.72 -40.04 0 -124.63 -151.72 19.57 0 0 151.72 -48.17 0z"/>
   <path id="_1" class="fil0" d="M785.55 210.73l93.92 -210.72 48.17 0 94.22 210.72 -51.18 0 -77.07 -186.04 19.27 0 -77.36 186.04 -49.97 0zm46.96 -45.15l12.95 -37.03 108.37 0 13.24 37.03 -134.56 0z"/>
   <path id="_2" class="fil0" d="M1043.83 210.73l0 -210.72 48.77 0 0 210.72 -48.77 0z"/>
   <path id="_3" class="fil0" d="M1181.41 214.35c-14.25,0 -27.34,-2.66 -39.28,-7.98 -11.94,-5.32 -21.72,-12.89 -29.35,-22.73l27.09 -32.51c5.82,7.63 11.94,13.4 18.36,17.31 6.42,3.91 13.35,5.87 20.77,5.87 19.87,0 29.8,-11.64 29.8,-34.92l0 -100.24 -74.05 0 0 -39.14 122.52 0 0 136.67c0,26.09 -6.42,45.56 -19.26,58.4 -12.85,12.85 -31.71,19.27 -56.6,19.27z"/>
   <path id="_4" class="fil0" d="M1273.22 210.73l93.92 -210.72 48.17 0 94.22 210.72 -51.18 0 -77.07 -186.04 19.27 0 -77.36 186.04 -49.97 0zm46.96 -45.15l12.95 -37.03 108.37 0 13.24 37.03 -134.56 0z"/>
   <path class="fil0" d="M614.86 372.26l101.45 0 0 37.93 -101.45 0 0 -37.93zm3.61 86.7l114.69 0 0 39.14 -163.16 0 0 -210.72 159.25 0 0 39.14 -110.78 0 0 132.45z"/>
   <path id="_1_0" class="fil0" d="M841.24 501.7c-16.86,0 -33.01,-2.26 -48.47,-6.77 -15.45,-4.52 -27.89,-10.39 -37.33,-17.61l16.55 -36.72c9.03,6.42 19.72,11.69 32.06,15.8 12.34,4.11 24.84,6.17 37.48,6.17 9.64,0 17.41,-0.95 23.33,-2.86 5.92,-1.91 10.29,-4.57 13.09,-7.98 2.81,-3.41 4.21,-7.32 4.21,-11.74 0,-5.62 -2.2,-10.08 -6.62,-13.39 -4.42,-3.31 -10.24,-6.02 -17.46,-8.13 -7.22,-2.11 -15.2,-4.12 -23.93,-6.02 -8.73,-1.91 -17.46,-4.26 -26.19,-7.07 -8.73,-2.81 -16.71,-6.42 -23.93,-10.84 -7.22,-4.42 -13.09,-10.24 -17.61,-17.46 -4.52,-7.22 -6.77,-16.46 -6.77,-27.69 0,-12.04 3.26,-23.03 9.78,-32.97 6.52,-9.93 16.36,-17.86 29.5,-23.78 13.14,-5.92 29.65,-8.88 49.52,-8.88 13.24,0 26.29,1.56 39.13,4.66 12.85,3.11 24.18,7.78 34.02,14l-15.05 37.03c-9.83,-5.62 -19.67,-9.78 -29.5,-12.49 -9.83,-2.71 -19.47,-4.06 -28.9,-4.06 -9.43,0 -17.16,1.1 -23.18,3.31 -6.02,2.21 -10.34,5.07 -12.95,8.58 -2.61,3.51 -3.91,7.58 -3.91,12.19 0,5.42 2.21,9.78 6.62,13.09 4.42,3.31 10.24,5.97 17.46,7.98 7.22,2.01 15.2,4.01 23.93,6.02 8.73,2.01 17.46,4.32 26.19,6.93 8.73,2.61 16.71,6.12 23.93,10.53 7.22,4.42 13.09,10.24 17.61,17.46 4.52,7.22 6.77,16.36 6.77,27.39 0,11.84 -3.31,22.68 -9.93,32.51 -6.62,9.83 -16.51,17.76 -29.65,23.78 -13.14,6.02 -29.75,9.03 -49.82,9.03z"/>
   <path id="_2_1" class="fil0" d="M1004.7 498.09l0 -170.99 -67.43 0 0 -39.74 183.63 0 0 39.74 -67.43 0 0 170.99 -48.77 0z"/>
   <path id="_3_2" class="fil0" d="M1108.86 498.09l93.92 -210.72 48.17 0 94.22 210.72 -51.18 0 -77.07 -186.04 19.27 0 -77.36 186.04 -49.97 0zm46.96 -45.15l12.95 -37.03 108.37 0 13.24 37.03 -134.56 0z"/>
   <path id="_4_3" class="fil0" d="M1400.26 498.09l0 -170.99 -67.43 0 0 -39.74 183.63 0 0 39.74 -67.43 0 0 170.99 -48.77 0z"/>
   <path id="_5" class="fil0" d="M1587.51 372.26l101.45 0 0 37.93 -101.45 0 0 -37.93zm3.61 86.7l114.69 0 0 39.14 -163.16 0 0 -210.72 159.25 0 0 39.14 -110.78 0 0 132.45z"/>
   <path id="real_estate_agent_24dp_FILL0_wght400_GRAD0_opsz24.svg" class="fil0" d="M430.02 298.64l0 -155.29 -119.45 -83.62 -119.45 83.62 0 35.84 -47.78 -0.01 0 -59.73 167.23 -119.45 167.23 119.45 0 179.18 -47.78 0.01zm-119.45 -238.91zm11.95 95.56l23.88 0 0 -23.89 -23.88 0 0 23.89zm-47.79 0l23.89 0 0 -23.89 -23.89 0 0 23.89zm47.79 47.78l23.88 0 0 -23.89 -23.88 0 0 23.89zm-47.79 0l23.89 0 0 -23.89 -23.89 0 0 23.89zm-131.39 203.07l166.04 45.39 142.15 -44.2c-1.99,-3.59 -4.89,-6.67 -8.67,-9.25 -3.78,-2.59 -8.06,-3.88 -12.84,-3.88l-120.65 0c-10.74,0 -19.3,-0.4 -25.68,-1.19 -6.37,-0.79 -12.94,-2.39 -19.71,-4.78l-55.55 -18.52 13.14 -46.58 48.38 16.12c6.77,1.99 14.74,3.58 23.9,4.78 9.16,1.19 22.69,1.99 40.61,2.38 0,-4.38 -1.3,-8.56 -3.88,-12.54 -2.59,-3.98 -5.68,-6.56 -9.27,-7.77l-139.76 -51.37 -38.22 0.01 0 131.39zm-143.34 83.61l0 -262.79 181.57 0c2.79,0 5.58,0.3 8.36,0.89 2.79,0.6 5.38,1.3 7.77,2.09l140.35 51.96c13.14,4.78 23.79,13.14 31.96,25.08 8.16,11.95 12.24,25.08 12.24,39.41l47.79 0c19.91,0 36.83,6.57 50.76,19.71 13.94,13.14 20.9,30.47 20.9,51.96l0 23.89 -191.12 59.72 -167.23 -46.58 0 34.64 -143.34 0zm47.79 -47.78l47.78 0 0 -167.23 -47.78 0 0 167.23z"/>
  </g>
 </g>
</svg>
