<?xml version="1.0" encoding="UTF-8"?>
<!DOCTYPE svg PUBLIC "-//W3C//DTD SVG 1.0//EN" "http://www.w3.org/TR/2001/REC-SVG-20010904/DTD/svg10.dtd">
<!-- Creator: CorelDRAW -->
<svg xmlns="http://www.w3.org/2000/svg" xml:space="preserve" width="0.186701in" height="0.233335in" version="1.0" style="shape-rendering:geometricPrecision; text-rendering:geometricPrecision; image-rendering:optimizeQuality; fill-rule:evenodd; clip-rule:evenodd"
viewBox="0 0 26.76 33.45"
 xmlns:xlink="http://www.w3.org/1999/xlink"
 xmlns:xodm="http://www.corel.com/coreldraw/odm/2003">
 <defs>
  <style type="text/css">
   <![CDATA[
    .fil0 {fill:#009600;fill-rule:nonzero}
   ]]>
  </style>
 </defs>
 <g id="Layer_x0020_1">
  <metadata id="CorelCorpID_0Corel-Layer"/>
  <path id="notifications_24dp_E8EAED_FILL0_wght400_GRAD0_opsz24.svg" class="fil0" d="M-0 28.44l0 -3.35 3.35 0 0 -11.71c0,-2.31 0.7,-4.37 2.09,-6.17 1.39,-1.79 3.2,-2.97 5.43,-3.54l0 -1.17c0,-0.7 0.25,-1.29 0.73,-1.78 0.49,-0.49 1.08,-0.73 1.78,-0.73 0.7,0 1.29,0.25 1.78,0.73 0.49,0.49 0.73,1.08 0.73,1.78l0 1.17c2.23,0.55 4.04,1.73 5.43,3.54 1.39,1.79 2.09,3.85 2.09,6.17l0 11.71 3.35 0 0 3.35 -26.75 0 -0.01 0zm13.37 5.01c-0.92,0 -1.71,-0.32 -2.37,-0.98 -0.66,-0.66 -0.98,-1.44 -0.98,-2.37l6.69 0c0,0.92 -0.32,1.71 -0.98,2.37 -0.66,0.66 -1.44,0.98 -2.37,0.98l0.01 0z"/>
 </g>
</svg>
