<?xml version="1.0" encoding="UTF-8"?>
<!DOCTYPE svg PUBLIC "-//W3C//DTD SVG 1.0//EN" "http://www.w3.org/TR/2001/REC-SVG-20010904/DTD/svg10.dtd">
<!-- Creator: CorelDRAW -->
<svg xmlns="http://www.w3.org/2000/svg" xml:space="preserve" width="0.245016in" height="0.245059in" version="1.0" style="shape-rendering:geometricPrecision; text-rendering:geometricPrecision; image-rendering:optimizeQuality; fill-rule:evenodd; clip-rule:evenodd"
viewBox="0 0 75.83 75.84"
 xmlns:xlink="http://www.w3.org/1999/xlink"
 xmlns:xodm="http://www.corel.com/coreldraw/odm/2003">
 <defs>
  <style type="text/css">
   <![CDATA[
    .str0 {stroke:black;stroke-width:7.22;stroke-linejoin:round;stroke-miterlimit:2.61313}
    .str1 {stroke:black;stroke-width:7.26;stroke-linejoin:round;stroke-miterlimit:2.61313}
    .fil0 {fill:none}
    .fil1 {fill:black}
    .fil3 {fill:white}
    .fil2 {fill:black;fill-rule:nonzero}
    .fil4 {fill:white;fill-rule:nonzero}
   ]]>
  </style>
 </defs>
 <g id="Layer_x0020_1_0">
  <metadata id="CorelCorpID_0Corel-Layer"/>
  <g id="_1304299395280">
   <g>
    <path class="fil0 str0" d="M8.77 24.26l5.16 0 15.47 0 15.47 0 5.16 0c2.84,0 5.16,2.32 5.16,5.16l0 20.63c0,2.84 -2.32,5.16 -5.16,5.16l-41.27 0c-2.84,0 -5.16,-2.32 -5.16,-5.16l0 -20.63c0,-2.84 2.32,-5.16 5.16,-5.16z"/>
    <path class="fil0 str1" d="M29.4 24.26l15.47 0c0,-11.39 0,-20.63 -15.47,-20.63 -15.47,0 -15.47,9.24 -15.47,20.63l15.47 0z"/>
    <circle class="fil1" cx="29.4" cy="39.73" r="5.16"/>
   </g>
   <g>
    <path id="Edit.svg" class="fil2" d="M38.47 38.4l-3.32 -3.32 3.32 3.32z"/>
    <g>
     <path id="Edit.svg_1" class="fil2" d="M45.59 64.56zm-7.12 7.12l0 -10.08 21.78 -21.78c0.48,-0.48 1.01,-0.83 1.6,-1.06 0.58,-0.23 1.19,-0.35 1.78,-0.35 0.64,0 1.24,0.12 1.81,0.35 0.57,0.23 1.1,0.58 1.58,1.06l3.32 3.39c0.44,0.48 0.76,1 1.01,1.58 0.23,0.57 0.35,1.16 0.35,1.76 0,0.58 -0.1,1.17 -0.32,1.76 -0.21,0.57 -0.57,1.1 -1.03,1.58l-21.78 21.83 -10.08 0 -0.02 -0.04 -0 0 0 0z"/>
     <path id="_1" class="fil3" d="M34.34 71.68l0 -10.08c0,-1.14 0.46,-2.17 1.21,-2.92l21.78 -21.78c0.4,-0.4 0.87,-0.78 1.39,-1.12 0,0 0.01,-0 0.01,-0.01l-0.01 -0.01c0.49,-0.33 1.04,-0.61 1.63,-0.84 0.09,-0.04 0.19,-0.07 0.29,-0.1 0.46,-0.17 0.9,-0.3 1.3,-0.38 0.07,-0.01 0.14,-0.03 0.22,-0.04 0.5,-0.09 0.99,-0.13 1.47,-0.13 0.57,0 1.15,0.06 1.71,0.17 0.51,0.1 1.07,0.27 1.64,0.51 0.59,0.24 1.13,0.52 1.59,0.83 0.49,0.33 0.95,0.71 1.36,1.12 0.08,0.08 0.17,0.17 0.24,0.26l3.09 3.16c0.03,0.03 0.05,0.05 0.08,0.08l0 0c0.38,0.41 0.72,0.86 1.03,1.35 0.31,0.48 0.56,0.95 0.76,1.42 0.06,0.14 0.11,0.27 0.15,0.41 0.15,0.42 0.27,0.85 0.36,1.27 0.12,0.6 0.19,1.17 0.19,1.69 0,0.48 -0.05,1.02 -0.16,1.61 -0.1,0.54 -0.24,1.06 -0.42,1.55 -0,0.01 -0.01,0.02 -0.01,0.03l0.01 0c-0.2,0.53 -0.48,1.07 -0.83,1.62 -0,0 -0.01,0.01 -0.01,0.01l0.01 0.01c-0.3,0.47 -0.67,0.92 -1.1,1.37 -0.03,0.04 -0.07,0.07 -0.1,0.1l-21.73 21.78c-0.81,0.81 -1.86,1.21 -2.92,1.21l0 0.01 -10.08 0c-1.46,0 -2.75,-0.76 -3.48,-1.91 -0.42,-0.65 -0.67,-1.42 -0.67,-2.26l-0 0zm4.13 0l0 -10.08 21.78 -21.78c0.48,-0.48 1.01,-0.83 1.6,-1.06 0.58,-0.23 1.19,-0.35 1.78,-0.35 0.64,0 1.24,0.12 1.81,0.35 0.57,0.23 1.1,0.58 1.58,1.06l3.32 3.39c0.44,0.48 0.76,1 1.01,1.58 0.23,0.57 0.35,1.16 0.35,1.76 0,0.58 -0.1,1.17 -0.32,1.76 -0.21,0.57 -0.57,1.1 -1.03,1.58l-21.78 21.83 -10.08 0 -0.02 -0.04 -0 0 0 0z"/>
    </g>
    <path id="Edit.svg_2" class="fil4" d="M46.54 63.61l3.32 0 13.77 -13.77 -1.67 -1.67 -1.72 -1.67 -13.71 13.71 0 3.39 0 0.02 0 -0 0 -0z"/>
   </g>
  </g>
 </g>
</svg>
