<?xml version="1.0" encoding="UTF-8"?>
<!DOCTYPE svg PUBLIC "-//W3C//DTD SVG 1.0//EN" "http://www.w3.org/TR/2001/REC-SVG-20010904/DTD/svg10.dtd">
<!-- Creator: CorelDRAW -->
<svg xmlns="http://www.w3.org/2000/svg" xml:space="preserve" width="0.241122in" height="0.239976in" version="1.0" style="shape-rendering:geometricPrecision; text-rendering:geometricPrecision; image-rendering:optimizeQuality; fill-rule:evenodd; clip-rule:evenodd"
viewBox="0 0 102.44 101.95"
 xmlns:xlink="http://www.w3.org/1999/xlink"
 xmlns:xodm="http://www.corel.com/coreldraw/odm/2003">
 <defs>
  <style type="text/css">
   <![CDATA[
    .str0 {stroke:black;stroke-width:9.91;stroke-linejoin:round;stroke-miterlimit:2.61313}
    .str1 {stroke:black;stroke-width:9.96;stroke-linejoin:round;stroke-miterlimit:2.61313}
    .fil0 {fill:none}
    .fil1 {fill:black}
    .fil3 {fill:white}
    .fil2 {fill:black;fill-rule:nonzero}
    .fil4 {fill:white;fill-rule:nonzero}
   ]]>
  </style>
 </defs>
 <g id="Layer_x0020_1_0">
  <metadata id="CorelCorpID_0Corel-Layer"/>
  <g id="_1304294262560">
   <path class="fil0 str0" d="M12.04 33.3l7.08 0 21.24 0 21.24 0 7.08 0c3.9,0 7.08,3.18 7.08,7.08l0 28.32c0,3.9 -3.18,7.08 -7.08,7.08l-56.64 0c-3.9,0 -7.08,-3.18 -7.08,-7.08l0 -28.32c0,-3.9 3.18,-7.08 7.08,-7.08z"/>
   <path class="fil0 str1" d="M40.36 33.3l21.24 0c0,-15.64 0,-28.32 -21.24,-28.32 -21.24,0 -21.24,12.68 -21.24,28.32l21.24 0z"/>
   <circle class="fil1" cx="40.36" cy="54.54" r="7.08"/>
   <g>
    <path id="Edit.svg" class="fil2" d="M51.15 50.55l-4.56 -4.56 4.56 4.56z"/>
    <g>
     <path id="Edit.svg_1" class="fil2" d="M60.92 86.47zm-9.77 9.77l0 -13.84 29.9 -29.9c0.66,-0.66 1.39,-1.15 2.19,-1.46 0.8,-0.32 1.63,-0.49 2.44,-0.49 0.88,0 1.71,0.17 2.49,0.49 0.78,0.32 1.51,0.8 2.17,1.46l4.56 4.65c0.61,0.66 1.05,1.37 1.39,2.17 0.32,0.78 0.49,1.59 0.49,2.41 0,0.8 -0.14,1.61 -0.44,2.41 -0.29,0.78 -0.78,1.51 -1.41,2.17l-29.9 29.97 -13.84 0 -0.03 -0.05 -0 0 0 0.01z"/>
     <path id="_1" class="fil3" d="M45.49 96.24l0 -13.84c0,-1.56 0.63,-2.98 1.66,-4.01l29.9 -29.9c0.55,-0.55 1.19,-1.07 1.91,-1.54 0,0 0.01,-0 0.01,-0.01l-0.01 -0.02c0.67,-0.45 1.42,-0.84 2.24,-1.16 0.13,-0.05 0.26,-0.1 0.39,-0.14 0.63,-0.23 1.23,-0.41 1.78,-0.52 0.1,-0.02 0.2,-0.04 0.3,-0.05 0.68,-0.12 1.36,-0.18 2.02,-0.18 0.79,0 1.57,0.08 2.35,0.23 0.71,0.14 1.46,0.37 2.26,0.7 0.81,0.33 1.55,0.71 2.18,1.14 0.67,0.45 1.3,0.97 1.87,1.54 0.12,0.12 0.23,0.24 0.33,0.36l4.25 4.34c0.04,0.04 0.07,0.08 0.11,0.11l0 0c0.52,0.56 0.99,1.18 1.42,1.85 0.42,0.66 0.76,1.31 1.04,1.96 0.08,0.19 0.15,0.37 0.21,0.56 0.21,0.58 0.37,1.16 0.49,1.74 0.17,0.83 0.26,1.61 0.26,2.32 0,0.66 -0.08,1.4 -0.22,2.21 -0.14,0.75 -0.33,1.46 -0.57,2.13 -0,0.01 -0.01,0.03 -0.02,0.04l0.02 0c-0.27,0.73 -0.66,1.47 -1.14,2.22 -0,0 -0.01,0.01 -0.01,0.02l0.01 0.01c-0.41,0.64 -0.92,1.27 -1.51,1.87 -0.04,0.05 -0.09,0.09 -0.14,0.14l-29.82 29.9c-1.11,1.11 -2.55,1.66 -4.01,1.66l0 0.02 -13.84 0c-2.01,0 -3.77,-1.05 -4.78,-2.62 -0.58,-0.89 -0.92,-1.96 -0.92,-3.1l-0.01 0zm5.66 0l0 -13.84 29.9 -29.9c0.66,-0.66 1.39,-1.15 2.19,-1.46 0.8,-0.32 1.63,-0.49 2.44,-0.49 0.88,0 1.71,0.17 2.49,0.49 0.78,0.32 1.51,0.8 2.17,1.46l4.56 4.65c0.61,0.66 1.05,1.37 1.39,2.17 0.32,0.78 0.49,1.59 0.49,2.41 0,0.8 -0.14,1.61 -0.44,2.41 -0.29,0.78 -0.78,1.51 -1.41,2.17l-29.9 29.97 -13.84 0 -0.03 -0.05 -0 0 0 0.01z"/>
    </g>
    <path id="Edit.svg_2" class="fil4" d="M62.23 85.16l4.56 0 18.9 -18.9 -2.29 -2.29 -2.36 -2.29 -18.81 18.81 0 4.65 0 0.02 0 -0 0 -0z"/>
   </g>
  </g>
 </g>
</svg>
