<?xml version="1.0" encoding="UTF-8"?>
<!DOCTYPE svg PUBLIC "-//W3C//DTD SVG 1.0//EN" "http://www.w3.org/TR/2001/REC-SVG-20010904/DTD/svg10.dtd">
<!-- Creator: CorelDRAW -->
<svg xmlns="http://www.w3.org/2000/svg" xml:space="preserve" width="1.06667in" height="1.78962in" version="1.0" style="shape-rendering:geometricPrecision; text-rendering:geometricPrecision; image-rendering:optimizeQuality; fill-rule:evenodd; clip-rule:evenodd"
viewBox="0 0 1066.67 1789.62"
 xmlns:xlink="http://www.w3.org/1999/xlink"
 xmlns:xodm="http://www.corel.com/coreldraw/odm/2003">
 <defs>
  <style type="text/css">
   <![CDATA[
    .str0 {stroke:white;stroke-width:10;stroke-miterlimit:2.61313}
    .fil0 {fill:#666666}
   ]]>
  </style>
 </defs>
 <g id="Layer_x0020_1">
  <metadata id="CorelCorpID_0Corel-Layer"/>
  <g id="_2233908920176">
   <g>
    <rect class="fil0" y="-0" width="1066.67" height="326.26"/>
    <circle class="fil0 str0" cx="533.33" cy="329.81" r="200"/>
   </g>
   <rect class="fil0" x="322.58" y="569.62" width="433.33" height="40"/>
   <rect class="fil0" x="406.31" y="628.55" width="256.03" height="40"/>
   <rect class="fil0" x="336.01" y="687.47" width="397.44" height="40"/>
   <rect class="fil0" x="320.23" y="746.39" width="422.54" height="40"/>
   <rect class="fil0" x="96.52" y="846.4" width="166.67" height="166.67" rx="14.36" ry="16.67"/>
   <rect class="fil0" x="451.22" y="846.4" width="166.67" height="166.67" rx="14.36" ry="16.67"/>
   <rect class="fil0" x="805.92" y="846.4" width="166.67" height="166.67" rx="14.36" ry="16.67"/>
   <g>
    <rect class="fil0" x="20.03" y="1122.96" width="493.26" height="146.29" rx="16.67" ry="16.67"/>
    <rect class="fil0" x="553.37" y="1122.96" width="493.26" height="146.29" rx="16.67" ry="16.67"/>
   </g>
   <rect class="fil0" x="26.12" y="1305.32" width="1014.43" height="147.19" rx="16.67" ry="16.67"/>
   <g>
    <rect class="fil0" x="33.33" y="1522.95" width="333.33" height="66.67"/>
    <rect class="fil0" x="33.33" y="1622.95" width="1000" height="66.67"/>
    <rect class="fil0" x="33.33" y="1722.95" width="1000" height="66.67"/>
   </g>
  </g>
 </g>
</svg>
