<?xml version="1.0" encoding="UTF-8"?>
<!DOCTYPE svg PUBLIC "-//W3C//DTD SVG 1.0//EN" "http://www.w3.org/TR/2001/REC-SVG-20010904/DTD/svg10.dtd">
<!-- Creator: CorelDRAW -->
<svg xmlns="http://www.w3.org/2000/svg" xml:space="preserve" width="0.233335in" height="0.233335in" version="1.0" style="shape-rendering:geometricPrecision; text-rendering:geometricPrecision; image-rendering:optimizeQuality; fill-rule:evenodd; clip-rule:evenodd"
viewBox="0 0 70.86 70.86"
 xmlns:xlink="http://www.w3.org/1999/xlink"
 xmlns:xodm="http://www.corel.com/coreldraw/odm/2003">
 <defs>
  <style type="text/css">
   <![CDATA[
    .fil1 {fill:white}
    .fil0 {fill:black;fill-rule:nonzero}
    .fil2 {fill:white;fill-rule:nonzero}
   ]]>
  </style>
 </defs>
 <g id="Layer_x0020_1_0">
  <metadata id="CorelCorpID_0Corel-Layer"/>
  <g id="_1304301500320">
   <path id="Account.svg" class="fil0" d="M25.3 25.31c-3.48,0 -6.46,-1.24 -8.94,-3.72 -2.48,-2.48 -3.72,-5.46 -3.72,-8.94 0,-3.48 1.24,-6.46 3.72,-8.94 2.48,-2.48 5.45,-3.72 8.94,-3.72 3.48,0 6.46,1.24 8.94,3.72 2.48,2.48 3.72,5.46 3.72,8.94 0,3.48 -1.24,6.46 -3.72,8.94 -2.48,2.48 -5.45,3.72 -8.94,3.72zm-25.3 25.31l0 -8.86c0,-1.79 0.46,-3.44 1.39,-4.94 0.92,-1.5 2.15,-2.65 3.68,-3.44 3.26,-1.63 6.59,-2.86 9.96,-3.68 3.38,-0.82 6.8,-1.23 10.28,-1.23 3.48,0 6.91,0.41 10.28,1.23 3.38,0.82 6.69,2.04 9.96,3.68 1.53,0.79 2.75,1.94 3.68,3.44 0.92,1.5 1.38,3.15 1.38,4.94l0 8.86 -50.61 0 0 0 -0.01 0zm6.33 -6.32l37.95 0 0 -2.53c0,-0.58 -0.15,-1.11 -0.43,-1.58 -0.29,-0.47 -0.67,-0.84 -1.15,-1.11 -2.85,-1.43 -5.72,-2.49 -8.62,-3.21 -2.9,-0.71 -5.83,-1.07 -8.78,-1.07 -2.95,0 -5.88,0.36 -8.78,1.07 -2.9,0.72 -5.77,1.78 -8.62,3.21 -0.47,0.27 -0.85,0.64 -1.15,1.11 -0.29,0.47 -0.43,1 -0.43,1.58l0 2.53 0.01 0 0 0 -0 0zm18.98 -25.31c1.74,0 3.23,-0.62 4.46,-1.86 1.24,-1.24 1.86,-2.73 1.86,-4.47 0,-1.74 -0.62,-3.23 -1.86,-4.47 -1.24,-1.24 -2.72,-1.86 -4.46,-1.86 -1.74,0 -3.23,0.62 -4.46,1.86 -1.24,1.24 -1.86,2.73 -1.86,4.47 0,1.74 0.62,3.23 1.86,4.47 1.24,1.24 2.72,1.86 4.46,1.86zm0 -6.32zm0 31.63z"/>
   <g>
    <path id="Edit.svg" class="fil0" d="M34.2 34.12l-3.26 -3.26 3.26 3.26z"/>
    <g>
     <path id="Edit.svg_1" class="fil0" d="M41.18 59.79zm-6.98 6.98l0 -9.89 21.37 -21.37c0.47,-0.47 0.99,-0.82 1.57,-1.04 0.57,-0.23 1.17,-0.35 1.74,-0.35 0.63,0 1.22,0.12 1.78,0.35 0.56,0.23 1.08,0.57 1.55,1.04l3.26 3.33c0.44,0.47 0.75,0.98 0.99,1.55 0.23,0.56 0.35,1.13 0.35,1.72 0,0.57 -0.1,1.15 -0.31,1.72 -0.21,0.56 -0.56,1.08 -1.01,1.55l-21.37 21.42 -9.89 0 -0.02 -0.03 -0 0 0 0z"/>
     <path id="_1" class="fil1" d="M30.15 66.78l0 -9.89c0,-1.12 0.45,-2.13 1.19,-2.86l21.37 -21.37c0.39,-0.39 0.85,-0.76 1.36,-1.1 0,0 0.01,-0 0.01,-0.01l-0.01 -0.01c0.48,-0.32 1.02,-0.6 1.6,-0.83 0.09,-0.04 0.19,-0.07 0.28,-0.1 0.45,-0.16 0.88,-0.29 1.27,-0.37 0.07,-0.01 0.14,-0.03 0.21,-0.04 0.49,-0.09 0.97,-0.13 1.45,-0.13 0.56,0 1.12,0.06 1.68,0.16 0.5,0.1 1.05,0.27 1.61,0.5 0.58,0.24 1.11,0.51 1.56,0.82 0.48,0.33 0.93,0.69 1.34,1.1 0.08,0.08 0.16,0.17 0.24,0.26l3.04 3.1c0.03,0.03 0.05,0.05 0.08,0.08l0 0c0.37,0.4 0.71,0.84 1.01,1.32 0.3,0.47 0.55,0.93 0.74,1.4 0.06,0.13 0.11,0.27 0.15,0.4 0.15,0.41 0.27,0.83 0.35,1.24 0.12,0.59 0.18,1.15 0.18,1.66 0,0.47 -0.05,1 -0.16,1.58 -0.1,0.53 -0.23,1.04 -0.41,1.52 -0,0.01 -0.01,0.02 -0.01,0.03l0.01 0c-0.19,0.52 -0.47,1.05 -0.82,1.59 -0,0 -0.01,0.01 -0.01,0.01l0.01 0.01c-0.3,0.46 -0.66,0.91 -1.08,1.34 -0.03,0.03 -0.07,0.07 -0.1,0.1l-21.32 21.38c-0.79,0.79 -1.82,1.19 -2.86,1.19l0 0.01 -9.89 0c-1.43,0 -2.69,-0.75 -3.41,-1.87 -0.42,-0.64 -0.66,-1.4 -0.66,-2.21l-0 0zm4.05 0l0 -9.89 21.37 -21.37c0.47,-0.47 0.99,-0.82 1.57,-1.04 0.57,-0.23 1.17,-0.35 1.74,-0.35 0.63,0 1.22,0.12 1.78,0.35 0.56,0.23 1.08,0.57 1.55,1.04l3.26 3.33c0.44,0.47 0.75,0.98 0.99,1.55 0.23,0.56 0.35,1.13 0.35,1.72 0,0.57 -0.1,1.15 -0.31,1.72 -0.21,0.56 -0.56,1.08 -1.01,1.55l-21.37 21.42 -9.89 0 -0.02 -0.03 -0 0 0 0z"/>
    </g>
    <path id="Edit.svg_2" class="fil2" d="M42.12 58.86l3.26 0 13.51 -13.51 -1.64 -1.64 -1.69 -1.64 -13.45 13.45 0 3.33 0 0.02 0 -0 0 -0z"/>
   </g>
  </g>
 </g>
</svg>
