<?xml version="1.0" encoding="UTF-8"?>
<!DOCTYPE svg PUBLIC "-//W3C//DTD SVG 1.0//EN" "http://www.w3.org/TR/2001/REC-SVG-20010904/DTD/svg10.dtd">
<!-- Creator: CorelDRAW -->
<svg xmlns="http://www.w3.org/2000/svg" xml:space="preserve" width="0.233331in" height="0.233311in" version="1.0" style="shape-rendering:geometricPrecision; text-rendering:geometricPrecision; image-rendering:optimizeQuality; fill-rule:evenodd; clip-rule:evenodd"
viewBox="0 0 233.33 233.31"
 xmlns:xlink="http://www.w3.org/1999/xlink"
 xmlns:xodm="http://www.corel.com/coreldraw/odm/2003">
 <defs>
  <style type="text/css">
   <![CDATA[
    .fil0 {fill:#009600;fill-rule:nonzero}
   ]]>
  </style>
 </defs>
 <g id="Layer_x0020_1">
  <metadata id="CorelCorpID_0Corel-Layer"/>
  <path id="Account.svg" class="fil0" d="M116.67 116.66c-16.04,0 -29.78,-5.71 -41.2,-17.13 -11.43,-11.43 -17.14,-25.15 -17.14,-41.2 0,-16.05 5.71,-29.78 17.14,-41.2 11.43,-11.43 25.15,-17.13 41.2,-17.13 16.05,0 29.78,5.71 41.2,17.13 11.43,11.43 17.13,25.15 17.13,41.2 0,16.04 -5.71,29.78 -17.13,41.2 -11.43,11.43 -25.15,17.13 -41.2,17.13zm-116.66 116.65l0 -40.83c0,-8.28 2.13,-15.86 6.38,-22.79 4.26,-6.93 9.9,-12.21 16.96,-15.86 15.06,-7.54 30.38,-13.19 45.93,-16.95 15.55,-3.76 31.36,-5.65 47.39,-5.65 16.05,0 31.83,1.89 47.39,5.65 15.56,3.76 30.87,9.42 45.93,16.95 7.06,3.64 12.7,8.93 16.95,15.86 4.26,6.93 6.39,14.52 6.39,22.79l0 40.83 -233.33 0 0.01 0z"/>
 </g>
</svg>
