<?xml version="1.0" encoding="UTF-8"?>
<!DOCTYPE svg PUBLIC "-//W3C//DTD SVG 1.0//EN" "http://www.w3.org/TR/2001/REC-SVG-20010904/DTD/svg10.dtd">
<!-- Creator: CorelDRAW -->
<svg xmlns="http://www.w3.org/2000/svg" xml:space="preserve" width="0.133343in" height="0.133319in" version="1.0" style="shape-rendering:geometricPrecision; text-rendering:geometricPrecision; image-rendering:optimizeQuality; fill-rule:evenodd; clip-rule:evenodd"
viewBox="0 0 133.38 133.35"
 xmlns:xlink="http://www.w3.org/1999/xlink"
 xmlns:xodm="http://www.corel.com/coreldraw/odm/2003">
 <defs>
  <style type="text/css">
   <![CDATA[
    .fil0 {fill:white;fill-rule:nonzero}
   ]]>
  </style>
 </defs>
 <g id="Layer_x0020_1">
  <metadata id="CorelCorpID_0Corel-Layer"/>
  <path id="Account.svg" class="fil0" d="M66.68 66.68c-9.17,0 -17.02,-3.26 -23.55,-9.79 -6.53,-6.53 -9.79,-14.39 -9.79,-23.55 0,-9.17 3.26,-17.02 9.79,-23.55 6.53,-6.53 14.37,-9.79 23.55,-9.79 9.17,0 17.02,3.26 23.55,9.79 6.53,6.53 9.79,14.37 9.79,23.55 0,9.17 -3.26,17.02 -9.79,23.55 -6.53,6.53 -14.37,9.79 -23.55,9.79zm-66.68 66.68l0 -23.34c0,-4.72 1.22,-9.06 3.65,-13.02 2.43,-3.96 5.66,-6.98 9.69,-9.07 8.61,-4.3 17.37,-7.54 26.26,-9.69 8.89,-2.15 17.93,-3.23 27.09,-3.23 9.17,0 18.19,1.08 27.09,3.23 8.89,2.15 17.65,5.39 26.26,9.69 4.03,2.08 7.26,5.11 9.69,9.07 2.43,3.96 3.65,8.3 3.65,13.02l0 23.34 -133.38 0 0.01 0 -0.01 0zm16.67 -16.66l100.03 0 0 -6.67c0,-1.53 -0.39,-2.92 -1.15,-4.17 -0.76,-1.24 -1.76,-2.22 -3.02,-2.92 -7.5,-3.75 -15.06,-6.56 -22.71,-8.44 -7.64,-1.87 -15.35,-2.81 -23.14,-2.81 -7.78,0 -15.48,0.93 -23.14,2.81 -7.64,1.88 -15.21,4.68 -22.71,8.44 -1.25,0.7 -2.26,1.67 -3.02,2.92 -0.77,1.25 -1.14,2.64 -1.14,4.17l0 6.67 0.01 0 -0 0zm50.01 -66.68c4.58,0 8.5,-1.63 11.77,-4.89 3.26,-3.26 4.89,-7.18 4.89,-11.77 0,-4.58 -1.63,-8.5 -4.89,-11.78 -3.26,-3.26 -7.18,-4.89 -11.77,-4.89 -4.58,0 -8.5,1.63 -11.77,4.89 -3.26,3.26 -4.89,7.18 -4.89,11.78 0,4.58 1.63,8.5 4.89,11.77 3.26,3.26 7.18,4.89 11.77,4.89zm0 -16.67zm0 83.35z"/>
 </g>
</svg>
