<?xml version="1.0" encoding="UTF-8"?>
<!DOCTYPE svg PUBLIC "-//W3C//DTD SVG 1.0//EN" "http://www.w3.org/TR/2001/REC-SVG-20010904/DTD/svg10.dtd">
<!-- Creator: CorelDRAW -->
<svg xmlns="http://www.w3.org/2000/svg" xml:space="preserve" width="3.51666in" height="6.34931in" version="1.0" style="shape-rendering:geometricPrecision; text-rendering:geometricPrecision; image-rendering:optimizeQuality; fill-rule:evenodd; clip-rule:evenodd"
viewBox="0 0 3467.35 6260.28"
 xmlns:xlink="http://www.w3.org/1999/xlink"
 xmlns:xodm="http://www.corel.com/coreldraw/odm/2003">
 <defs>
  <style type="text/css">
   <![CDATA[
    .fil1 {fill:#646464}
    .fil0 {fill:#666666}
   ]]>
  </style>
 </defs>
 <g id="Layer_x0020_1">
  <metadata id="CorelCorpID_0Corel-Layer"/>
  <rect class="fil0" x="49.3" y="-0" width="1643.3" height="1643.3" rx="44.61" ry="65.74"/>
  <rect class="fil0" x="1824.05" y="-0" width="1643.3" height="1643.3" rx="44.61" ry="65.74"/>
  <rect class="fil0" x="49.3" y="1886.42" width="1511.83" height="173.03"/>
  <rect class="fil0" x="49.3" y="2806.7" width="534.68" height="328" rx="2.71" ry="32.86"/>
  <rect class="fil0" x="770.14" y="2806.69" width="534.68" height="328" rx="2.71" ry="32.86"/>
  <rect class="fil0" x="1490.99" y="2806.69" width="534.68" height="328" rx="2.71" ry="32.86"/>
  <rect class="fil0" x="2211.83" y="2806.68" width="534.68" height="328" rx="2.71" ry="32.86"/>
  <rect class="fil0" x="2932.67" y="2806.68" width="534.68" height="328" rx="2.71" ry="32.86"/>
  <rect class="fil0" x="49.3" y="3464.04" width="3418.04" height="173.03"/>
  <rect class="fil0" x="49.3" y="2182.22" width="3418.04" height="173.03"/>
  <rect class="fil0" x="49.3" y="2478.02" width="3418.04" height="173.03"/>
  <rect class="fil0" x="49.3" y="3759.84" width="2333.48" height="173.03"/>
  <rect class="fil0" x="49.3" y="4055.64" width="2333.48" height="173.03"/>
  <ellipse class="fil1" cx="341.94" cy="4824.1" rx="341.94" ry="341.95"/>
  <rect class="fil1" x="800.16" y="4618.92" width="1600.29" height="136.78"/>
  <rect class="fil1" x="800.16" y="4892.48" width="2667.14" height="136.78"/>
  <rect class="fil1" x="-0.01" y="5302.81" width="3467.35" height="136.78"/>
  <rect class="fil1" x="-0.01" y="5576.39" width="3467.35" height="136.77"/>
  <rect class="fil1" x="-0.01" y="5849.94" width="3467.35" height="136.78"/>
  <rect class="fil1" x="-0.01" y="6123.49" width="3467.35" height="136.78"/>
 </g>
</svg>
