<?xml version="1.0" encoding="UTF-8"?>
<!DOCTYPE svg PUBLIC "-//W3C//DTD SVG 1.0//EN" "http://www.w3.org/TR/2001/REC-SVG-20010904/DTD/svg10.dtd">
<!-- Creator: CorelDRAW -->
<svg xmlns="http://www.w3.org/2000/svg" xml:space="preserve" width="0.1875in" height="0.1875in" version="1.0" style="shape-rendering:geometricPrecision; text-rendering:geometricPrecision; image-rendering:optimizeQuality; fill-rule:evenodd; clip-rule:evenodd"
viewBox="0 0 187.5 187.5"
 xmlns:xlink="http://www.w3.org/1999/xlink"
 xmlns:xodm="http://www.corel.com/coreldraw/odm/2003">
 <defs>
  <style type="text/css">
   <![CDATA[
    .fil0 {fill:#009600;fill-rule:nonzero}
   ]]>
  </style>
 </defs>
 <g id="Layer_x0020_1">
  <metadata id="CorelCorpID_0Corel-Layer"/>
  <path id="Ranking.svg" class="fil0" d="M-0 187.5l0 -20.84 20.84 -20.84 0 41.67 -20.84 0zm41.67 0l0 -62.5 20.84 -20.84 0 83.34 -20.84 0zm41.67 0l0 -83.34 20.84 21.09 0 62.24 -20.84 0zm41.67 0l0 -62.24 20.84 -20.84 0 83.08 -20.84 0zm41.67 0l0 -104.17 20.84 -20.84 0 125 -20.84 0zm-166.67 -53.91l0 -29.43 72.92 -72.92 41.67 41.67 72.92 -72.92 0 29.43 -72.92 72.92 -41.67 -41.67 -72.91 72.92z"/>
 </g>
</svg>
