<?xml version="1.0" encoding="UTF-8"?>
<!DOCTYPE svg PUBLIC "-//W3C//DTD SVG 1.0//EN" "http://www.w3.org/TR/2001/REC-SVG-20010904/DTD/svg10.dtd">
<!-- Creator: CorelDRAW -->
<svg xmlns="http://www.w3.org/2000/svg" xml:space="preserve" width="0.1875in" height="0.1875in" version="1.0" style="shape-rendering:geometricPrecision; text-rendering:geometricPrecision; image-rendering:optimizeQuality; fill-rule:evenodd; clip-rule:evenodd"
viewBox="0 0 2637.24 2637.24"
 xmlns:xlink="http://www.w3.org/1999/xlink"
 xmlns:xodm="http://www.corel.com/coreldraw/odm/2003">
 <defs>
  <style type="text/css">
   <![CDATA[
    .fil0 {fill:black;fill-rule:nonzero}
   ]]>
  </style>
 </defs>
 <g id="Layer_x0020_1">
  <metadata id="CorelCorpID_0Corel-Layer"/>
  <path id="report_24dp_E8EAED_FILL0_wght400_GRAD0_opsz24.svg" class="fil0" d="M1318.59 2051.2c41.53,0 76.31,-14.01 104.38,-42.14 28.08,-28.08 42.14,-62.85 42.14,-104.38 0,-41.48 -14.07,-76.31 -42.14,-104.38 -28.08,-28.08 -62.85,-42.14 -104.38,-42.14 -41.53,0 -76.31,14.07 -104.38,42.14 -28.08,28.08 -42.14,62.91 -42.14,104.38 0,41.53 14.07,76.31 42.14,104.38 28.08,28.13 62.85,42.14 104.38,42.14zm-146.52 -586.03l293.04 0 0 -879.08 -293.04 0 0 879.08zm-402.91 1172.07l-769.16 -769.16 0 -1098.86 769.22 -769.22 1098.81 0.06 769.22 769.22 0 1098.86 -769.22 769.1 -1098.86 0zm124.54 -292.99l849.79 0 600.71 -600.71 0 -849.79 -600.71 -600.71 -849.79 0 -600.71 600.71 0 849.79 600.71 600.71zm424.89 -1025.6z"/>
 </g>
</svg>
