<?xml version="1.0" encoding="UTF-8"?>
<!DOCTYPE svg PUBLIC "-//W3C//DTD SVG 1.0//EN" "http://www.w3.org/TR/2001/REC-SVG-20010904/DTD/svg10.dtd">
<!-- Creator: CorelDRAW -->
<svg xmlns="http://www.w3.org/2000/svg" xml:space="preserve" width="0.187488in" height="0.187496in" version="1.0" style="shape-rendering:geometricPrecision; text-rendering:geometricPrecision; image-rendering:optimizeQuality; fill-rule:evenodd; clip-rule:evenodd"
viewBox="0 0 187.49 187.5"
 xmlns:xlink="http://www.w3.org/1999/xlink"
 xmlns:xodm="http://www.corel.com/coreldraw/odm/2003">
 <defs>
  <style type="text/css">
   <![CDATA[
    .fil0 {fill:darkgreen;fill-rule:nonzero}
   ]]>
  </style>
 </defs>
 <g id="Layer_x0020_1">
  <metadata id="CorelCorpID_0Corel-Layer"/>
  <path id="Search.svg" class="fil0" d="M14.58 187.49l65.62 -65.62c5.21,4.17 11.2,7.46 17.97,9.89 6.77,2.43 13.98,3.65 21.62,3.65 18.92,0 34.94,-6.55 48.04,-19.66 13.11,-13.11 19.66,-29.12 19.66,-48.05 0,-18.92 -6.55,-34.94 -19.66,-48.04 -13.11,-13.11 -29.12,-19.66 -48.04,-19.66 -18.92,0 -34.94,6.55 -48.05,19.66 -13.11,13.11 -19.66,29.12 -19.66,48.04 0,7.64 1.21,14.85 3.65,21.62 2.43,6.77 5.73,12.76 9.89,17.97l-65.62 65.62 14.58 14.58 0 0 0.01 0.01 -0.01 -0.01 0 0 0 0zm105.2 -72.91c-13.02,0 -24.09,-4.56 -33.2,-13.67 -9.11,-9.11 -13.67,-20.18 -13.67,-33.2 0,-13.02 4.56,-24.09 13.67,-33.2 9.11,-9.11 20.18,-13.67 33.2,-13.67 13.02,0 24.09,4.56 33.2,13.67 9.11,9.11 13.67,20.18 13.67,33.2 0,13.02 -4.56,24.09 -13.67,33.2 -9.11,9.11 -20.18,13.67 -33.2,13.67z"/>
 </g>
</svg>
