<?xml version="1.0" encoding="UTF-8"?>
<!DOCTYPE svg PUBLIC "-//W3C//DTD SVG 1.0//EN" "http://www.w3.org/TR/2001/REC-SVG-20010904/DTD/svg10.dtd">
<!-- Creator: CorelDRAW -->
<svg xmlns="http://www.w3.org/2000/svg" xml:space="preserve" width="0.23328in" height="0.233283in" version="1.0" style="shape-rendering:geometricPrecision; text-rendering:geometricPrecision; image-rendering:optimizeQuality; fill-rule:evenodd; clip-rule:evenodd"
viewBox="0 0 233.28 233.28"
 xmlns:xlink="http://www.w3.org/1999/xlink"
 xmlns:xodm="http://www.corel.com/coreldraw/odm/2003">
 <defs>
  <style type="text/css">
   <![CDATA[
    .fil1 {fill:black}
    .fil0 {fill:black;fill-rule:nonzero}
   ]]>
  </style>
 </defs>
 <g id="Layer_x0020_1">
  <metadata id="CorelCorpID_0Corel-Layer"/>
  <g id="_1921794724048">
   <g>
    <path id="Switch.svg" class="fil0" d="M-0 116.61c0,-16.07 3.04,-31.18 9.13,-45.33 6.09,-14.15 14.47,-26.53 25.04,-37.11 10.63,-10.63 22.96,-18.96 37.11,-25.04 14.15,-6.09 29.26,-9.13 45.33,-9.13 19.81,0 38.02,4.48 54.62,13.51 16.61,9.02 30.22,21.04 40.85,36.04l0 -28.35 21.2 0 0 63.64 -63.64 0 0 -21.2 26.27 0c-8.49,-12.71 -19.65,-22.96 -33.53,-30.76 -13.88,-7.8 -29.1,-11.64 -45.76,-11.64 -13.24,0 -25.68,2.51 -37.27,7.53 -11.59,5.02 -21.68,11.85 -30.22,20.4 -8.6,8.6 -15.38,18.63 -20.4,30.22 -5.02,11.59 -7.53,23.97 -7.53,37.27l-21.2 0 -0 -0.05z"/>
    <path id="Switch.svg_0" class="fil0" d="M116.67 233.28c-19.81,0 -38.02,-4.48 -54.62,-13.51 -16.61,-9.02 -30.22,-21.04 -40.85,-36.04l0 28.35 -21.2 0 0 -63.64 63.64 0 0 21.2 -26.27 0c8.49,12.71 19.65,22.96 33.53,30.76 13.88,7.8 29.1,11.64 45.76,11.64 13.24,0 25.68,-2.51 37.27,-7.53 11.59,-5.02 21.68,-11.85 30.22,-20.4 8.6,-8.6 15.38,-18.63 20.4,-30.22 5.02,-11.59 7.53,-23.97 7.53,-37.27l21.2 0c0,16.07 -3.04,31.18 -9.13,45.33 -6.09,14.15 -14.47,26.53 -25.04,37.11 -10.63,10.63 -22.96,18.96 -37.11,25.04 -14.15,6.09 -29.26,9.13 -45.33,9.13l0 0.05z"/>
   </g>
   <g>
    <path class="fil0" d="M77.64 165.25l0 -97.34 16.28 0 50.24 70.05 -7.9 0 0 -70.05 19.49 0 0 97.34 -16.18 0 -50.35 -70.05 7.9 0 0 70.05 -19.49 0z"/>
    <g id="_1698429420848">
     <rect class="fil1" x="60.34" y="93.81" width="112.61" height="14.57"/>
     <rect class="fil1" x="60.34" y="124.84" width="112.61" height="14.57"/>
    </g>
   </g>
  </g>
 </g>
</svg>
