<?xml version="1.0" encoding="UTF-8"?>
<!DOCTYPE svg PUBLIC "-//W3C//DTD SVG 1.0//EN" "http://www.w3.org/TR/2001/REC-SVG-20010904/DTD/svg10.dtd">
<!-- Creator: CorelDRAW -->
<svg xmlns="http://www.w3.org/2000/svg" xml:space="preserve" width="5.5in" height="1.7695in" version="1.0" style="shape-rendering:geometricPrecision; text-rendering:geometricPrecision; image-rendering:optimizeQuality; fill-rule:evenodd; clip-rule:evenodd"
viewBox="0 0 5500.01 1769.51"
 xmlns:xlink="http://www.w3.org/1999/xlink"
 xmlns:xodm="http://www.corel.com/coreldraw/odm/2003">
 <defs>
  <style type="text/css">
   <![CDATA[
    .str0 {stroke:#FEFEFE;stroke-width:20.8;stroke-miterlimit:2.61313}
    .fil0 {fill:#009600}
    .fil2 {fill:white}
    .fil3 {fill:#009600;fill-rule:nonzero}
    .fil1 {fill:white;fill-rule:nonzero}
   ]]>
  </style>
 </defs>
 <g id="Layer_x0020_1">
  <metadata id="CorelCorpID_0Corel-Layer"/>
  <rect class="fil0" x="-0" y="0" width="1769.5" height="1769.5"/>
  <g id="_2004700808464">
   <g>
    <path class="fil1" d="M1270.6 570.77l124.91 0.27 -2.97 98.43 -8.02 92.49 -12.7 86.45 -17.29 80.51 -21.52 74.48 -25.4 68.62 -29.18 62.59 -32.69 56.74 -35.93 50.7 -39.08 44.67 -42.15 38.54 -44.85 32.24 -47.46 25.67 -49.71 18.73 -51.33 11.44 -52.32 3.78 -52.23 -3.78 -51.33 -11.53 -49.71 -18.73 -47.37 -25.67 -44.76 -32.24 -41.96 -38.54 -38.91 -44.76 -35.75 -50.7 -32.42 -56.74 -28.91 -62.59 -25.13 -68.62 -21.07 -74.57 -16.93 -80.42 -12.34 -86.54 -7.56 -92.4 -2.52 -98.43 124.91 0.18 2.34 93.12 7.11 86.82 11.53 80.42 15.49 74.03 19.18 67.63 22.43 61.15 25.31 54.76 27.65 48.45 29.54 41.88 30.98 35.66 31.97 29.45 32.42 23.32 32.42 17.65 32.24 12.16 31.79 7.11 31.61 2.25 31.7 -2.25 31.79 -7.11 32.33 -12.25 32.6 -17.56 32.51 -23.41 32.15 -29.45 31.16 -35.66 29.81 -41.96 27.83 -48.45 25.57 -54.76 22.69 -61.24 19.45 -67.63 15.94 -74.03 11.8 -80.42 7.56 -86.72 2.79 -93.21 -0 -0z"/>
   </g>
   <circle class="fil2 str0" cx="436.41" cy="414.79" r="62.41"/>
   <circle class="fil2 str0" cx="1333.01" cy="414.79" r="62.41"/>
  </g>
  <path class="fil3" d="M2572.99 683.61c41.33,0 77.99,8.28 109.96,24.76 32.06,16.48 57.28,41.7 75.65,75.65 18.46,33.86 27.65,77.36 27.65,130.4l0 298.63 -151.21 0 0 -275.39c0,-42.06 -8.74,-73.04 -26.2,-93.03 -17.47,-20.08 -42.06,-30.08 -73.67,-30.08 -21.97,0 -41.7,4.95 -59.17,15.04 -17.47,10 -31.07,25.04 -40.7,45.03 -9.72,20.08 -14.59,45.57 -14.59,76.64l0 261.79 -151.21 0 0 -275.39c0,-42.06 -8.56,-73.04 -25.76,-93.03 -17.11,-20.08 -41.52,-30.08 -73.13,-30.08 -21.97,0 -41.7,4.95 -59.17,15.04 -17.47,10 -31.07,25.04 -40.7,45.03 -9.72,20.08 -14.59,45.57 -14.59,76.64l0 261.79 -151.21 0 0 -521.7 144.45 0 0 142.56 -27.2 -41.7c18.1,-35.57 43.86,-62.5 77.09,-80.96 33.32,-18.37 71.32,-27.65 113.92,-27.65 47.91,0 89.7,12.16 125.63,36.38 35.84,24.22 59.62,61.24 71.24,111.04l-53.32 -14.59c17.38,-40.7 45.39,-73.04 83.84,-96.9 38.45,-23.96 82.58,-35.93 132.38,-35.93l0 0.02z"/>
  <path id="_1_3" class="fil3" d="M3241.93 1213.05l0 -101.85 -9.72 -22.33 0 -182.19c0,-32.33 -9.81,-57.55 -29.54,-75.65 -19.72,-18.1 -49.89,-27.2 -90.69,-27.2 -27.74,0 -55.11,4.41 -81.86,13.15 -26.84,8.74 -49.62,20.53 -68.35,35.39l-54.3 -105.72c28.46,-19.99 62.68,-35.57 102.76,-46.56 40.07,-10.99 80.78,-16.48 122.2,-16.48 79.43,0 141.21,18.82 185.15,56.28 43.95,37.46 65.92,96 65.92,175.43l0 297.73 -141.57 0zm-159.04 7.74c-40.7,0 -75.56,-6.93 -104.65,-20.89 -29.09,-13.87 -51.42,-32.78 -66.91,-56.74 -15.49,-23.87 -23.32,-50.7 -23.32,-80.42 0,-31.07 7.65,-58.18 22.78,-81.41 15.22,-23.32 39.26,-41.61 72.32,-54.84 32.96,-13.24 75.92,-19.81 128.87,-19.81l138.69 0 0 88.17 -122.2 0c-35.48,0 -59.89,5.85 -73.13,17.47 -13.33,11.62 -19.9,26.2 -19.9,43.59 0,19.45 7.56,34.76 22.78,46.11 15.22,11.26 36.02,16.93 62.5,16.93 25.22,0 47.82,-5.94 67.9,-17.92 19.99,-11.98 34.58,-29.54 43.59,-52.86l23.32 69.8c-10.99,33.68 -31.07,59.17 -60.16,76.64 -29.09,17.47 -66.55,26.2 -112.48,26.2l0 -0z"/>
  <path id="_2" class="fil3" d="M3520.2 1213.05l0 -521.7 144.45 0 0 147.42 -20.35 -42.69c15.49,-36.83 40.35,-64.75 74.66,-83.84 34.22,-19.09 75.92,-28.64 125.09,-28.64l0 139.68c-6.48,-0.72 -12.34,-1.17 -17.47,-1.53 -5.22,-0.27 -10.72,-0.45 -16.48,-0.45 -41.43,0 -74.84,11.8 -100.32,35.39 -25.57,23.59 -38.36,60.25 -38.36,110.05l0 246.3 -151.21 0 0 0z"/>
  <path id="_3" class="fil3" d="M4059.28 1106.34l3.87 -184.17 243.33 -230.82 180.29 0 -233.61 237.57 -78.53 64.03 -115.36 113.38zm-125.09 106.72l0 -719.46 151.21 0 0 719.46 -151.21 0zm388.77 0l-176.51 -219.2 95.1 -117.25 264.67 336.45 -183.26 0 0 0z"/>
  <path id="_4" class="fil3" d="M4810.62 1220.8c-59.44,0 -111.67,-11.62 -156.61,-34.94 -44.85,-23.24 -79.61,-55.11 -104.2,-95.46 -24.59,-40.44 -36.83,-86.45 -36.83,-138.15 0,-52.41 12.16,-98.79 36.38,-139.14 24.22,-40.44 57.37,-72.13 99.33,-95.01 42.06,-22.96 89.52,-34.49 142.56,-34.49 51.06,0 97.08,10.9 138.15,32.51 41.07,21.61 73.48,52.68 97.44,93.12 23.96,40.35 35.84,88.7 35.84,144.9 0,5.85 -0.27,12.43 -0.9,19.9 -0.72,7.39 -1.35,14.32 -1.98,20.8l-423.71 0 0 -88.17 344.19 0 -58.18 26.12c0,-27.11 -5.49,-50.7 -16.48,-70.78 -10.99,-19.99 -26.12,-35.66 -45.57,-47.01 -19.36,-11.26 -41.96,-16.93 -67.9,-16.93 -25.85,0 -48.63,5.67 -68.26,16.93 -19.72,11.35 -35.12,27.2 -46.11,47.55 -10.99,20.35 -16.48,44.4 -16.48,72.22l0 23.24c0,28.46 6.3,53.49 18.91,75.2 12.61,21.61 30.35,38.09 53.32,49.44 22.96,11.26 49.98,16.93 80.96,16.93 27.83,0 52.23,-4.23 73.22,-12.61 20.98,-8.37 40.26,-20.98 57.72,-37.82l80.42 87.26c-23.87,27.11 -53.94,48 -90.15,62.5 -36.2,14.59 -77.9,21.88 -125.09,21.88l0 -0.01z"/>
  <path id="_5" class="fil3" d="M5376.81 1220.8c-61.33,0 -109.15,-15.67 -143.46,-47.01 -34.22,-31.43 -51.33,-78.08 -51.33,-140.13l0 -457.67 151.21 0 0 455.69c0,21.97 5.85,39 17.47,50.97 11.62,11.89 27.47,17.92 47.46,17.92 23.96,0 44.31,-6.48 61.15,-19.45l40.7 106.72c-15.58,10.99 -34.13,19.18 -55.74,24.68 -21.7,5.49 -44.13,8.28 -67.45,8.28l-0 -0zm-275.3 -401.38l0 -116.35 361.67 0 0 116.35 -361.67 0z"/>
 </g>
</svg>
