<?xml version="1.0" encoding="UTF-8"?>
<!DOCTYPE svg PUBLIC "-//W3C//DTD SVG 1.0//EN" "http://www.w3.org/TR/2001/REC-SVG-20010904/DTD/svg10.dtd">
<!-- Creator: CorelDRAW -->
<svg xmlns="http://www.w3.org/2000/svg" xml:space="preserve" width="0.166657in" height="0.166661in" version="1.0" style="shape-rendering:geometricPrecision; text-rendering:geometricPrecision; image-rendering:optimizeQuality; fill-rule:evenodd; clip-rule:evenodd"
viewBox="0 0 166.66 166.67"
 xmlns:xlink="http://www.w3.org/1999/xlink"
 xmlns:xodm="http://www.corel.com/coreldraw/odm/2003">
 <defs>
  <style type="text/css">
   <![CDATA[
    .fil0 {fill:black;fill-rule:nonzero}
   ]]>
  </style>
 </defs>
 <g id="Layer_x0020_1">
  <metadata id="CorelCorpID_0Corel-Layer"/>
  <path id="Upload.svg" class="fil0" d="M72.91 124.99l0 -84.9 -27.08 27.09 -14.58 -15.1 52.08 -52.08 52.08 52.08 -14.58 15.1 -27.08 -27.08 0 84.9 -20.83 0 -0.01 -0.01zm-52.08 41.67c-5.73,0 -10.63,-2.04 -14.71,-6.12 -4.08,-4.08 -6.12,-8.98 -6.12,-14.71l0 -31.25 20.83 0 0 31.25 125 0 0 -31.25 20.83 0 0 31.25c0,5.73 -2.04,10.64 -6.12,14.72 -4.08,4.08 -8.98,6.12 -14.71,6.12l-125 0 -0.01 -0.01z"/>
 </g>
</svg>
