<?xml version="1.0" encoding="UTF-8"?>
<!DOCTYPE svg PUBLIC "-//W3C//DTD SVG 1.0//EN" "http://www.w3.org/TR/2001/REC-SVG-20010904/DTD/svg10.dtd">
<!-- Creator: CorelDRAW -->
<svg xmlns="http://www.w3.org/2000/svg" xml:space="preserve" width="0.229165in" height="0.218756in" version="1.0" style="shape-rendering:geometricPrecision; text-rendering:geometricPrecision; image-rendering:optimizeQuality; fill-rule:evenodd; clip-rule:evenodd"
viewBox="0 0 229.17 218.76"
 xmlns:xlink="http://www.w3.org/1999/xlink"
 xmlns:xodm="http://www.corel.com/coreldraw/odm/2003">
 <defs>
  <style type="text/css">
   <![CDATA[
    .fil0 {fill:#009600;fill-rule:nonzero}
   ]]>
  </style>
 </defs>
 <g id="Layer_x0020_1">
  <metadata id="CorelCorpID_0Corel-Layer"/>
  <path id="verified_24dp_E8EAED_FILL0_wght400_GRAD0_opsz24.svg" class="fil0" d="M79.17 218.76l-19.79 -33.33 -37.5 -8.33 3.65 -38.54 -25.52 -29.17 25.52 -29.17 -3.65 -38.54 37.5 -8.33 19.79 -33.33 35.42 15.1 35.42 -15.1 19.79 33.33 37.5 8.33 -3.65 38.54 25.52 29.17 -25.52 29.17 3.65 38.54 -37.5 8.33 -19.79 33.33 -35.42 -15.1 -35.42 15.1zm8.85 -26.56l26.56 -11.46 27.08 11.46 14.58 -25 28.65 -6.77 -2.6 -29.17 19.27 -21.87 -19.27 -22.4 2.6 -29.17 -28.65 -6.25 -15.1 -25 -26.56 11.46 -27.08 -11.46 -14.58 25 -28.65 6.25 2.6 29.17 -19.27 22.4 19.27 21.87 -2.6 29.69 28.65 6.25 15.1 25 0 -0zm26.56 -82.81zm-10.94 36.98l58.85 -58.85 -14.58 -15.1 -44.27 44.27 -22.4 -21.87 -14.58 14.58 36.98 36.98 0 -0z"/>
 </g>
</svg>
