<?xml version="1.0" encoding="UTF-8"?>
<!DOCTYPE svg PUBLIC "-//W3C//DTD SVG 1.0//EN" "http://www.w3.org/TR/2001/REC-SVG-20010904/DTD/svg10.dtd">
<!-- Creator: CorelDRAW -->
<svg xmlns="http://www.w3.org/2000/svg" xml:space="preserve" width="0.229165in" height="0.156252in" version="1.0" style="shape-rendering:geometricPrecision; text-rendering:geometricPrecision; image-rendering:optimizeQuality; fill-rule:evenodd; clip-rule:evenodd"
viewBox="0 0 229.17 156.25"
 xmlns:xlink="http://www.w3.org/1999/xlink"
 xmlns:xodm="http://www.corel.com/coreldraw/odm/2003">
 <defs>
  <style type="text/css">
   <![CDATA[
    .fil0 {fill:white;fill-rule:nonzero}
   ]]>
  </style>
 </defs>
 <g id="Layer_x0020_1">
  <metadata id="CorelCorpID_0Corel-Layer"/>
  <path id="Visible.svg" class="fil0" d="M114.58 125c13.02,0 24.09,-4.56 33.2,-13.67 9.11,-9.11 13.67,-20.19 13.67,-33.2 0,-13.02 -4.56,-24.09 -13.67,-33.2 -9.12,-9.11 -20.19,-13.67 -33.2,-13.67 -13.02,0 -24.09,4.56 -33.2,13.67 -9.11,9.12 -13.67,20.19 -13.67,33.2 0,13.02 4.56,24.09 13.67,33.2 9.12,9.11 20.19,13.67 33.2,13.67zm0 -18.75c-7.81,0 -14.45,-2.74 -19.92,-8.2 -5.47,-5.47 -8.2,-12.11 -8.2,-19.92 0,-7.81 2.74,-14.45 8.2,-19.92 5.47,-5.47 12.11,-8.2 19.92,-8.2 7.81,0 14.45,2.74 19.92,8.2 5.47,5.47 8.2,12.11 8.2,19.92 0,7.81 -2.74,14.45 -8.2,19.92 -5.47,5.47 -12.11,8.2 -19.92,8.2zm0 50c-25.35,0 -48.44,-7.07 -69.27,-21.22 -20.83,-14.15 -35.94,-33.12 -45.31,-56.9 9.37,-23.78 24.48,-42.75 45.31,-56.9 20.83,-14.15 43.93,-21.22 69.27,-21.22 25.35,0 48.44,7.07 69.27,21.22 20.83,14.15 35.94,33.12 45.31,56.9 -9.37,23.78 -24.48,42.75 -45.31,56.9 -20.83,14.15 -43.93,21.22 -69.27,21.22zm0 -78.13zm0 57.29c19.62,0 37.63,-5.17 54.04,-15.5 16.41,-10.33 28.95,-24.26 37.63,-41.8 -8.68,-17.54 -21.22,-31.47 -37.63,-41.8 -16.41,-10.33 -34.42,-15.5 -54.04,-15.5 -19.62,0 -37.63,5.17 -54.04,15.5 -16.41,10.33 -28.95,24.26 -37.63,41.8 8.68,17.54 21.22,31.47 37.63,41.8 16.41,10.33 34.42,15.5 54.04,15.5z"/>
 </g>
</svg>
