<?xml version="1.0" encoding="UTF-8"?>
<!DOCTYPE svg PUBLIC "-//W3C//DTD SVG 1.0//EN" "http://www.w3.org/TR/2001/REC-SVG-20010904/DTD/svg10.dtd">
<!-- Creator: CorelDRAW -->
<svg xmlns="http://www.w3.org/2000/svg" xml:space="preserve" width="0.233331in" height="0.233339in" version="1.0" style="shape-rendering:geometricPrecision; text-rendering:geometricPrecision; image-rendering:optimizeQuality; fill-rule:evenodd; clip-rule:evenodd"
viewBox="0 0 233.31 233.32"
 xmlns:xlink="http://www.w3.org/1999/xlink"
 xmlns:xodm="http://www.corel.com/coreldraw/odm/2003">
 <defs>
  <style type="text/css">
   <![CDATA[
    .fil0 {fill:none}
    .fil1 {fill:black;fill-rule:nonzero}
   ]]>
  </style>
 </defs>
 <g id="Layer_x0020_1">
  <metadata id="CorelCorpID_0Corel-Layer"/>
  <rect class="fil0" y="-0" width="233.31" height="233.32"/>
  <g id="_2286278375152">
   <path id="XMLID_469_" class="fil1" d="M172.64 133.97c-0.48,-0.24 -17.44,-8.59 -20.53,-9.79 -1.2,-0.48 -2.63,-0.96 -4.06,-0.96 -2.39,0 -4.29,1.19 -5.72,3.35 -1.67,2.63 -6.93,8.6 -8.36,10.27 -0.24,0.24 -0.48,0.48 -0.72,0.48 -0.24,0 -2.87,-1.2 -3.59,-1.44 -18.14,-7.88 -32,-26.98 -33.91,-30.09 -0.24,-0.48 -0.24,-0.72 -0.24,-0.72 0,-0.24 0.72,-0.96 0.95,-1.19 0.96,-0.96 1.91,-2.15 2.87,-3.35 0.48,-0.48 0.96,-1.2 1.43,-1.67 1.43,-1.67 2.15,-2.87 2.87,-4.3l0.48 -0.72c1.67,-3.59 0.24,-6.44 -0.24,-7.41 -0.48,-0.72 -7.64,-18.15 -8.36,-20.05 -1.91,-4.3 -4.3,-6.45 -7.65,-6.45 -0.24,0 0,0 -1.19,0 -1.67,0 -10.28,1.2 -14.09,3.59 -4.05,2.63 -10.98,10.74 -10.98,25.07 0,12.9 8.11,25.31 11.7,29.85 0,0 0.24,0.24 0.48,0.72 13.62,19.81 30.33,34.39 47.53,41.31 16.48,6.68 24.36,7.41 28.65,7.41 0,0 0,0 0,0 1.91,0 3.35,-0.24 4.78,-0.24l0.72 0c5.73,-0.48 18.14,-6.92 21.01,-14.81 2.15,-6.21 2.87,-13.13 1.43,-15.51 -0.96,-1.67 -2.87,-2.63 -5.02,-3.59l-0.24 0.24 -0 0.01z"/>
   <path id="XMLID_470_" class="fil1" d="M118.67 0c-63.28,0 -114.63,51.1 -114.63,113.67 0,20.29 5.5,40.12 15.77,57.56l-19.59 58.02c-0.48,1.2 0,2.39 0.72,3.11 0.48,0.48 1.44,0.96 2.15,0.96 0.24,0 0.72,0 0.96,-0.24l60.41 -19.35c16.48,8.84 35.34,13.61 54.21,13.61 63.28,0 114.63,-51.09 114.63,-113.67 0,-62.8 -51.34,-113.67 -114.63,-113.67l-0.01 0 0.01 0zm0 203.71c-17.92,0 -35.1,-5.26 -49.91,-14.81 -0.48,-0.24 -1.19,-0.48 -1.67,-0.48 -0.24,0 -0.72,0 -0.96,0.24l-30.33 9.56 9.8 -28.9c0.24,-0.96 0.24,-1.91 -0.48,-2.87 -11.22,-15.53 -17.2,-33.67 -17.2,-52.78 0,-49.67 40.83,-90.03 90.74,-90.03 50.15,0 90.74,40.36 90.74,90.03 0,49.67 -40.6,90.04 -90.74,90.04l0.01 -0z"/>
  </g>
 </g>
</svg>
