<?xml version="1.0" encoding="UTF-8"?>
<!DOCTYPE svg PUBLIC "-//W3C//DTD SVG 1.0//EN" "http://www.w3.org/TR/2001/REC-SVG-20010904/DTD/svg10.dtd">
<!-- Creator: CorelDRAW -->
<svg xmlns="http://www.w3.org/2000/svg" xml:space="preserve" width="0.233339in" height="0.233374in" version="1.0" style="shape-rendering:geometricPrecision; text-rendering:geometricPrecision; image-rendering:optimizeQuality; fill-rule:evenodd; clip-rule:evenodd"
viewBox="0 0 233.34 233.37"
 xmlns:xlink="http://www.w3.org/1999/xlink"
 xmlns:xodm="http://www.corel.com/coreldraw/odm/2003">
 <defs>
  <style type="text/css">
   <![CDATA[
    .fil0 {fill:white;fill-rule:nonzero}
   ]]>
  </style>
 </defs>
 <g id="Layer_x0020_1">
  <metadata id="CorelCorpID_0Corel-Layer"/>
  <g id="_2286278375152">
   <path id="XMLID_469_" class="fil0" d="M172.66 134c-0.48,-0.24 -17.44,-8.6 -20.54,-9.8 -1.2,-0.48 -2.63,-0.96 -4.06,-0.96 -2.39,0 -4.3,1.19 -5.73,3.35 -1.67,2.63 -6.93,8.6 -8.36,10.27 -0.24,0.24 -0.48,0.48 -0.72,0.48 -0.24,0 -2.87,-1.2 -3.59,-1.44 -18.15,-7.88 -32.01,-26.99 -33.92,-30.1 -0.24,-0.48 -0.24,-0.72 -0.24,-0.72 0,-0.24 0.72,-0.96 0.95,-1.19 0.96,-0.96 1.91,-2.15 2.87,-3.35 0.48,-0.48 0.96,-1.2 1.43,-1.67 1.43,-1.67 2.15,-2.87 2.87,-4.3l0.48 -0.72c1.67,-3.59 0.24,-6.45 -0.24,-7.41 -0.48,-0.72 -7.64,-18.15 -8.36,-20.06 -1.91,-4.3 -4.3,-6.45 -7.65,-6.45 -0.24,0 0,0 -1.19,0 -1.67,0 -10.28,1.2 -14.09,3.59 -4.06,2.63 -10.98,10.75 -10.98,25.08 0,12.9 8.12,25.32 11.7,29.86 0,0 0.24,0.24 0.48,0.72 13.62,19.82 30.34,34.4 47.54,41.32 16.48,6.69 24.37,7.41 28.66,7.41 0,0 0,0 0,0 1.91,0 3.35,-0.24 4.78,-0.24l0.72 0c5.73,-0.48 18.15,-6.93 21.02,-14.81 2.15,-6.21 2.87,-13.13 1.43,-15.52 -0.96,-1.67 -2.87,-2.63 -5.02,-3.59l-0.24 0.24z"/>
   <path id="XMLID_470_" class="fil0" d="M118.67 0c-63.3,0 -114.66,51.12 -114.66,113.7 0,20.3 5.5,40.13 15.77,57.57l-19.59 58.04c-0.48,1.2 0,2.39 0.72,3.11 0.48,0.48 1.44,0.96 2.15,0.96 0.24,0 0.72,0 0.96,-0.24l60.43 -19.35c16.48,8.84 35.35,13.61 54.22,13.61 63.3,0 114.66,-51.11 114.66,-113.7 0,-62.82 -51.36,-113.7 -114.66,-113.7l-0.01 -0zm0 203.76c-17.92,0 -35.11,-5.26 -49.93,-14.81 -0.48,-0.24 -1.19,-0.48 -1.67,-0.48 -0.24,0 -0.72,0 -0.96,0.24l-30.34 9.56 9.8 -28.9c0.24,-0.96 0.24,-1.91 -0.48,-2.87 -11.22,-15.53 -17.2,-33.68 -17.2,-52.79 0,-49.69 40.84,-90.06 90.77,-90.06 50.16,0 90.77,40.37 90.77,90.06 0,49.68 -40.61,90.06 -90.77,90.06z"/>
  </g>
 </g>
</svg>
